<svg width="326" height="283" viewBox="0 0 326 283" fill="none" xmlns="http://www.w3.org/2000/svg">
<g filter="url(#filter0_d_241_211)">
<rect y="0.5" width="315" height="274" rx="5" fill="#D9D9D9" fill-opacity="0.75" shape-rendering="crispEdges"/>
</g>
<g filter="url(#filter1_d_241_211)">
<path d="M66.3974 151.141V163.5H65.6051V151.141H66.3974ZM76.256 153.746C77.3945 153.746 78.3217 154.098 79.0377 154.803C79.7537 155.495 80.1117 156.528 80.1117 157.901V163.5H79.337V157.954C79.337 156.816 79.0495 155.947 78.4743 155.348C77.8992 154.738 77.1187 154.433 76.1328 154.433C75.0999 154.433 74.2724 154.762 73.6503 155.419C73.04 156.076 72.7348 157.05 72.7348 158.341V163.5H71.9426V153.94H72.7348V155.965C73.0048 155.249 73.4508 154.703 74.0729 154.327C74.7067 153.94 75.4344 153.746 76.256 153.746ZM86.7323 154.627V160.947C86.7323 161.651 86.8614 162.138 87.1196 162.408C87.3778 162.667 87.8356 162.796 88.4929 162.796H89.5668V163.5H88.3696C87.5363 163.5 86.9201 163.306 86.521 162.919C86.1337 162.52 85.94 161.863 85.94 160.947V154.627H84.4964V153.94H85.94V151.51H86.7323V153.94H89.5668V154.627H86.7323ZM102.906 158.077C102.906 158.5 102.895 158.817 102.871 159.028H94.6141C94.6375 159.885 94.8253 160.607 95.1775 161.194C95.5296 161.78 95.9932 162.221 96.5683 162.514C97.1434 162.808 97.7714 162.954 98.4521 162.954C99.3911 162.954 100.178 162.725 100.811 162.268C101.445 161.798 101.844 161.164 102.009 160.366H102.836C102.648 161.34 102.167 162.133 101.392 162.743C100.618 163.342 99.6376 163.641 98.4521 163.641C97.5601 163.641 96.762 163.441 96.0577 163.042C95.3535 162.643 94.8019 162.074 94.4028 161.334C94.0037 160.583 93.8042 159.709 93.8042 158.711C93.8042 157.714 93.9979 156.845 94.3852 156.106C94.7843 155.366 95.3359 154.803 96.0401 154.415C96.7444 154.016 97.5484 153.817 98.4521 153.817C99.3676 153.817 100.16 154.016 100.829 154.415C101.51 154.803 102.026 155.325 102.378 155.982C102.73 156.628 102.906 157.326 102.906 158.077ZM102.114 158.377C102.149 157.532 101.997 156.816 101.656 156.229C101.328 155.642 100.876 155.208 100.301 154.926C99.7256 154.633 99.1036 154.486 98.4345 154.486C97.7655 154.486 97.1434 154.633 96.5683 154.926C96.0049 155.208 95.5413 155.642 95.1775 156.229C94.8253 156.816 94.6375 157.532 94.6141 158.377H102.114ZM112.061 153.817C113.071 153.817 113.928 154.063 114.632 154.556C115.336 155.037 115.829 155.66 116.111 156.422V153.94H116.903V163.799C116.903 164.68 116.709 165.448 116.322 166.106C115.935 166.775 115.412 167.285 114.755 167.637C114.098 168.001 113.364 168.183 112.554 168.183C111.357 168.183 110.365 167.896 109.579 167.32C108.793 166.745 108.276 165.971 108.03 164.996H108.822C109.057 165.759 109.497 166.364 110.142 166.81C110.788 167.268 111.592 167.497 112.554 167.497C113.223 167.497 113.828 167.344 114.368 167.039C114.908 166.745 115.33 166.317 115.635 165.754C115.952 165.202 116.111 164.55 116.111 163.799V161C115.829 161.763 115.33 162.397 114.614 162.901C113.91 163.394 113.059 163.641 112.061 163.641C111.169 163.641 110.371 163.441 109.667 163.042C108.975 162.631 108.429 162.056 108.03 161.317C107.642 160.566 107.449 159.697 107.449 158.711C107.449 157.725 107.642 156.863 108.03 156.123C108.429 155.384 108.975 154.814 109.667 154.415C110.371 154.016 111.169 153.817 112.061 153.817ZM116.111 158.711C116.111 157.878 115.935 157.144 115.583 156.51C115.242 155.865 114.773 155.372 114.174 155.032C113.576 154.679 112.907 154.503 112.167 154.503C111.392 154.503 110.712 154.674 110.125 155.014C109.538 155.343 109.08 155.824 108.752 156.458C108.423 157.091 108.259 157.843 108.259 158.711C108.259 159.58 108.423 160.331 108.752 160.965C109.08 161.599 109.538 162.086 110.125 162.426C110.723 162.766 111.404 162.937 112.167 162.937C112.907 162.937 113.576 162.766 114.174 162.426C114.784 162.074 115.26 161.581 115.6 160.947C115.941 160.302 116.111 159.556 116.111 158.711ZM123.221 155.912C123.456 155.208 123.872 154.674 124.471 154.31C125.07 153.934 125.832 153.746 126.76 153.746V154.574H126.496C125.557 154.574 124.776 154.844 124.154 155.384C123.532 155.912 123.221 156.78 123.221 157.989V163.5H122.429V153.94H123.221V155.912ZM130.732 158.711C130.732 157.725 130.925 156.863 131.313 156.123C131.712 155.384 132.258 154.814 132.95 154.415C133.654 154.016 134.452 153.817 135.344 153.817C136.354 153.817 137.211 154.063 137.915 154.556C138.619 155.049 139.112 155.677 139.394 156.44V153.94H140.186V163.5H139.394V160.982C139.112 161.757 138.613 162.397 137.897 162.901C137.193 163.394 136.342 163.641 135.344 163.641C134.452 163.641 133.654 163.441 132.95 163.042C132.258 162.631 131.712 162.056 131.313 161.317C130.925 160.566 130.732 159.697 130.732 158.711ZM139.394 158.711C139.394 157.878 139.218 157.144 138.866 156.51C138.525 155.865 138.056 155.372 137.457 155.032C136.859 154.679 136.19 154.503 135.45 154.503C134.675 154.503 133.995 154.674 133.408 155.014C132.821 155.343 132.363 155.824 132.035 156.458C131.706 157.091 131.542 157.843 131.542 158.711C131.542 159.58 131.706 160.331 132.035 160.965C132.363 161.599 132.821 162.086 133.408 162.426C134.006 162.766 134.687 162.937 135.45 162.937C136.19 162.937 136.859 162.766 137.457 162.426C138.068 162.074 138.543 161.581 138.883 160.947C139.224 160.302 139.394 159.556 139.394 158.711ZM149.849 162.954C150.788 162.954 151.574 162.719 152.208 162.25C152.854 161.78 153.253 161.135 153.405 160.313H154.233C154.057 161.276 153.605 162.062 152.877 162.673C152.161 163.271 151.24 163.594 150.113 163.641V164.873C150.829 164.838 151.381 164.95 151.768 165.208C152.155 165.478 152.349 165.871 152.349 166.387C152.349 166.88 152.173 167.274 151.821 167.567C151.481 167.86 150.999 168.007 150.377 168.007H148.951V167.426H150.236C150.741 167.426 151.099 167.338 151.31 167.162C151.533 166.986 151.645 166.728 151.645 166.387C151.645 165.742 151.175 165.419 150.236 165.419H149.497V163.623C148.664 163.576 147.924 163.347 147.279 162.937C146.633 162.526 146.128 161.957 145.765 161.229C145.401 160.501 145.219 159.662 145.219 158.711C145.219 157.714 145.412 156.845 145.8 156.106C146.199 155.366 146.745 154.803 147.437 154.415C148.141 154.016 148.945 153.817 149.849 153.817C151.046 153.817 152.026 154.116 152.789 154.715C153.564 155.313 154.045 156.117 154.233 157.127H153.405C153.253 156.305 152.854 155.66 152.208 155.19C151.574 154.721 150.788 154.486 149.849 154.486C149.145 154.486 148.505 154.644 147.93 154.961C147.355 155.266 146.891 155.742 146.539 156.387C146.199 157.021 146.029 157.796 146.029 158.711C146.029 159.638 146.199 160.419 146.539 161.053C146.891 161.687 147.355 162.162 147.93 162.479C148.505 162.796 149.145 162.954 149.849 162.954ZM158.794 158.711C158.794 157.725 158.988 156.863 159.375 156.123C159.775 155.384 160.32 154.814 161.013 154.415C161.717 154.016 162.515 153.817 163.407 153.817C164.417 153.817 165.273 154.063 165.978 154.556C166.682 155.049 167.175 155.677 167.457 156.44V153.94H168.249V163.5H167.457V160.982C167.175 161.757 166.676 162.397 165.96 162.901C165.256 163.394 164.405 163.641 163.407 163.641C162.515 163.641 161.717 163.441 161.013 163.042C160.32 162.631 159.775 162.056 159.375 161.317C158.988 160.566 158.794 159.697 158.794 158.711ZM167.457 158.711C167.457 157.878 167.281 157.144 166.928 156.51C166.588 155.865 166.119 155.372 165.52 155.032C164.921 154.679 164.252 154.503 163.513 154.503C162.738 154.503 162.057 154.674 161.471 155.014C160.884 155.343 160.426 155.824 160.097 156.458C159.769 157.091 159.604 157.843 159.604 158.711C159.604 159.58 159.769 160.331 160.097 160.965C160.426 161.599 160.884 162.086 161.471 162.426C162.069 162.766 162.75 162.937 163.513 162.937C164.252 162.937 164.921 162.766 165.52 162.426C166.13 162.074 166.606 161.581 166.946 160.947C167.286 160.302 167.457 159.556 167.457 158.711ZM161.805 152.848C161.864 152.402 162.005 152.056 162.228 151.81C162.462 151.563 162.756 151.44 163.108 151.44C163.307 151.44 163.484 151.481 163.636 151.563C163.789 151.634 163.959 151.745 164.147 151.898C164.323 152.039 164.469 152.144 164.587 152.215C164.716 152.273 164.869 152.303 165.045 152.303C165.244 152.303 165.414 152.232 165.555 152.091C165.696 151.951 165.784 151.751 165.819 151.493H166.347C166.312 151.915 166.171 152.256 165.925 152.514C165.678 152.76 165.379 152.884 165.027 152.884C164.804 152.884 164.61 152.843 164.446 152.76C164.293 152.678 164.117 152.561 163.918 152.408C163.753 152.279 163.613 152.185 163.495 152.127C163.378 152.056 163.243 152.021 163.09 152.021C162.656 152.021 162.404 152.297 162.333 152.848H161.805ZM177.982 163.641C177.09 163.641 176.286 163.441 175.57 163.042C174.854 162.643 174.291 162.074 173.88 161.334C173.481 160.583 173.281 159.709 173.281 158.711C173.281 157.725 173.487 156.863 173.898 156.123C174.309 155.372 174.872 154.803 175.588 154.415C176.316 154.016 177.125 153.817 178.017 153.817C178.909 153.817 179.713 154.016 180.429 154.415C181.145 154.803 181.703 155.366 182.102 156.106C182.513 156.845 182.718 157.714 182.718 158.711C182.718 159.709 182.513 160.583 182.102 161.334C181.691 162.074 181.122 162.643 180.394 163.042C179.678 163.441 178.874 163.641 177.982 163.641ZM177.982 162.937C178.675 162.937 179.32 162.784 179.919 162.479C180.529 162.162 181.016 161.687 181.38 161.053C181.744 160.419 181.926 159.638 181.926 158.711C181.926 157.796 181.744 157.021 181.38 156.387C181.016 155.753 180.535 155.284 179.937 154.979C179.338 154.662 178.692 154.503 178 154.503C177.307 154.503 176.662 154.662 176.063 154.979C175.476 155.284 175.001 155.753 174.637 156.387C174.273 157.021 174.091 157.796 174.091 158.711C174.091 159.638 174.267 160.419 174.62 161.053C174.983 161.687 175.459 162.162 176.046 162.479C176.644 162.784 177.29 162.937 177.982 162.937ZM194.88 158.711C194.88 157.714 195.073 156.845 195.461 156.106C195.86 155.366 196.405 154.803 197.098 154.415C197.802 154.016 198.606 153.817 199.51 153.817C200.707 153.817 201.687 154.116 202.45 154.715C203.225 155.313 203.706 156.117 203.894 157.127H203.066C202.914 156.305 202.515 155.66 201.869 155.19C201.235 154.721 200.449 154.486 199.51 154.486C198.806 154.486 198.166 154.644 197.591 154.961C197.016 155.266 196.552 155.742 196.2 156.387C195.86 157.021 195.689 157.796 195.689 158.711C195.689 159.638 195.86 160.419 196.2 161.053C196.552 161.687 197.016 162.162 197.591 162.479C198.166 162.796 198.806 162.954 199.51 162.954C200.449 162.954 201.235 162.719 201.869 162.25C202.515 161.78 202.914 161.135 203.066 160.313H203.894C203.706 161.311 203.225 162.115 202.45 162.725C201.675 163.336 200.695 163.641 199.51 163.641C198.606 163.641 197.802 163.441 197.098 163.042C196.405 162.643 195.86 162.074 195.461 161.334C195.073 160.583 194.88 159.709 194.88 158.711ZM213.156 163.641C212.264 163.641 211.46 163.441 210.744 163.042C210.028 162.643 209.465 162.074 209.054 161.334C208.655 160.583 208.455 159.709 208.455 158.711C208.455 157.725 208.661 156.863 209.072 156.123C209.482 155.372 210.046 154.803 210.762 154.415C211.489 154.016 212.299 153.817 213.191 153.817C214.083 153.817 214.887 154.016 215.603 154.415C216.319 154.803 216.877 155.366 217.276 156.106C217.687 156.845 217.892 157.714 217.892 158.711C217.892 159.709 217.687 160.583 217.276 161.334C216.865 162.074 216.296 162.643 215.568 163.042C214.852 163.441 214.048 163.641 213.156 163.641ZM213.156 162.937C213.849 162.937 214.494 162.784 215.093 162.479C215.703 162.162 216.19 161.687 216.554 161.053C216.918 160.419 217.1 159.638 217.1 158.711C217.1 157.796 216.918 157.021 216.554 156.387C216.19 155.753 215.709 155.284 215.11 154.979C214.512 154.662 213.866 154.503 213.174 154.503C212.481 154.503 211.836 154.662 211.237 154.979C210.65 155.284 210.175 155.753 209.811 156.387C209.447 157.021 209.265 157.796 209.265 158.711C209.265 159.638 209.441 160.419 209.793 161.053C210.157 161.687 210.633 162.162 211.219 162.479C211.818 162.784 212.464 162.937 213.156 162.937ZM234.24 153.746C235.331 153.746 236.223 154.098 236.916 154.803C237.608 155.495 237.954 156.528 237.954 157.901V163.5H237.18V157.954C237.18 156.816 236.904 155.947 236.352 155.348C235.812 154.738 235.067 154.433 234.116 154.433C233.13 154.433 232.338 154.773 231.74 155.454C231.141 156.135 230.842 157.121 230.842 158.412V163.5H230.067V157.954C230.067 156.816 229.791 155.947 229.24 155.348C228.7 154.738 227.954 154.433 227.004 154.433C226.018 154.433 225.225 154.773 224.627 155.454C224.028 156.135 223.729 157.121 223.729 158.412V163.5H222.937V153.94H223.729V156.018C223.999 155.266 224.433 154.703 225.032 154.327C225.642 153.94 226.34 153.746 227.127 153.746C227.995 153.746 228.741 153.975 229.363 154.433C229.997 154.879 230.431 155.542 230.666 156.422C230.889 155.542 231.323 154.879 231.968 154.433C232.614 153.975 233.371 153.746 234.24 153.746ZM250.524 158.711C250.524 157.725 250.717 156.863 251.105 156.123C251.504 155.384 252.05 154.814 252.742 154.415C253.446 154.016 254.244 153.817 255.136 153.817C256.146 153.817 257.003 154.063 257.707 154.556C258.411 155.049 258.904 155.677 259.186 156.44V153.94H259.978V163.5H259.186V160.982C258.904 161.757 258.405 162.397 257.689 162.901C256.985 163.394 256.134 163.641 255.136 163.641C254.244 163.641 253.446 163.441 252.742 163.042C252.05 162.631 251.504 162.056 251.105 161.317C250.717 160.566 250.524 159.697 250.524 158.711ZM259.186 158.711C259.186 157.878 259.01 157.144 258.658 156.51C258.317 155.865 257.848 155.372 257.249 155.032C256.651 154.679 255.981 154.503 255.242 154.503C254.467 154.503 253.787 154.674 253.2 155.014C252.613 155.343 252.155 155.824 251.827 156.458C251.498 157.091 251.334 157.843 251.334 158.711C251.334 159.58 251.498 160.331 251.827 160.965C252.155 161.599 252.613 162.086 253.2 162.426C253.798 162.766 254.479 162.937 255.242 162.937C255.981 162.937 256.651 162.766 257.249 162.426C257.859 162.074 258.335 161.581 258.675 160.947C259.016 160.302 259.186 159.556 259.186 158.711ZM106.441 184.711C106.441 183.725 106.635 182.863 107.022 182.123C107.421 181.384 107.967 180.814 108.66 180.415C109.364 180.016 110.162 179.817 111.054 179.817C112.063 179.817 112.92 180.063 113.624 180.556C114.329 181.049 114.822 181.677 115.103 182.44V179.94H115.896V189.5H115.103V186.982C114.822 187.757 114.323 188.397 113.607 188.901C112.903 189.394 112.052 189.641 111.054 189.641C110.162 189.641 109.364 189.441 108.66 189.042C107.967 188.631 107.421 188.056 107.022 187.317C106.635 186.566 106.441 185.697 106.441 184.711ZM115.103 184.711C115.103 183.878 114.927 183.144 114.575 182.51C114.235 181.865 113.765 181.372 113.167 181.032C112.568 180.679 111.899 180.503 111.16 180.503C110.385 180.503 109.704 180.674 109.117 181.014C108.53 181.343 108.073 181.824 107.744 182.458C107.415 183.091 107.251 183.843 107.251 184.711C107.251 185.58 107.415 186.331 107.744 186.965C108.073 187.599 108.53 188.086 109.117 188.426C109.716 188.766 110.397 188.937 111.16 188.937C111.899 188.937 112.568 188.766 113.167 188.426C113.777 188.074 114.252 187.581 114.593 186.947C114.933 186.302 115.103 185.556 115.103 184.711ZM133.344 179.746C134.483 179.746 135.41 180.098 136.126 180.803C136.842 181.495 137.2 182.528 137.2 183.901V189.5H136.425V183.954C136.425 182.816 136.138 181.947 135.563 181.348C134.988 180.738 134.207 180.433 133.221 180.433C132.188 180.433 131.361 180.762 130.739 181.419C130.128 182.076 129.823 183.05 129.823 184.341V189.5H129.031V179.94H129.823V181.965C130.093 181.249 130.539 180.703 131.161 180.327C131.795 179.94 132.523 179.746 133.344 179.746ZM142.148 184.711C142.148 183.725 142.342 182.863 142.729 182.123C143.128 181.384 143.674 180.814 144.366 180.415C145.071 180.016 145.869 179.817 146.761 179.817C147.77 179.817 148.627 180.063 149.331 180.556C150.035 181.049 150.528 181.677 150.81 182.44V179.94H151.602V189.5H150.81V186.982C150.528 187.757 150.03 188.397 149.314 188.901C148.609 189.394 147.758 189.641 146.761 189.641C145.869 189.641 145.071 189.441 144.366 189.042C143.674 188.631 143.128 188.056 142.729 187.317C142.342 186.566 142.148 185.697 142.148 184.711ZM150.81 184.711C150.81 183.878 150.634 183.144 150.282 182.51C149.942 181.865 149.472 181.372 148.873 181.032C148.275 180.679 147.606 180.503 146.866 180.503C146.092 180.503 145.411 180.674 144.824 181.014C144.237 181.343 143.78 181.824 143.451 182.458C143.122 183.091 142.958 183.843 142.958 184.711C142.958 185.58 143.122 186.331 143.451 186.965C143.78 187.599 144.237 188.086 144.824 188.426C145.423 188.766 146.103 188.937 146.866 188.937C147.606 188.937 148.275 188.766 148.873 188.426C149.484 188.074 149.959 187.581 150.3 186.947C150.64 186.302 150.81 185.556 150.81 184.711ZM158.308 180.627V186.947C158.308 187.651 158.437 188.138 158.695 188.408C158.953 188.667 159.411 188.796 160.068 188.796H161.142V189.5H159.945C159.112 189.5 158.495 189.306 158.096 188.919C157.709 188.52 157.515 187.863 157.515 186.947V180.627H156.072V179.94H157.515V177.51H158.308V179.94H161.142V180.627H158.308ZM173.954 179.94V189.5H173.161V187.423C172.891 188.15 172.439 188.708 171.806 189.095C171.184 189.471 170.468 189.658 169.658 189.658C168.519 189.658 167.586 189.312 166.858 188.62C166.142 187.915 165.784 186.877 165.784 185.503V179.94H166.559V185.451C166.559 186.589 166.847 187.464 167.422 188.074C167.997 188.673 168.777 188.972 169.763 188.972C170.796 188.972 171.618 188.643 172.228 187.986C172.85 187.329 173.161 186.354 173.161 185.063V179.94H173.954ZM180.275 181.912C180.51 181.208 180.926 180.674 181.525 180.31C182.123 179.934 182.886 179.746 183.814 179.746V180.574H183.55C182.611 180.574 181.83 180.844 181.208 181.384C180.586 181.912 180.275 182.78 180.275 183.989V189.5H179.483V179.94H180.275V181.912ZM196.888 184.077C196.888 184.5 196.876 184.817 196.853 185.028H188.596C188.619 185.885 188.807 186.607 189.159 187.194C189.511 187.78 189.975 188.221 190.55 188.514C191.125 188.808 191.753 188.954 192.434 188.954C193.373 188.954 194.159 188.725 194.793 188.268C195.427 187.798 195.826 187.164 195.99 186.366H196.817C196.63 187.34 196.148 188.133 195.374 188.743C194.599 189.342 193.619 189.641 192.434 189.641C191.542 189.641 190.743 189.441 190.039 189.042C189.335 188.643 188.783 188.074 188.384 187.334C187.985 186.583 187.786 185.709 187.786 184.711C187.786 183.714 187.979 182.845 188.367 182.106C188.766 181.366 189.317 180.803 190.022 180.415C190.726 180.016 191.53 179.817 192.434 179.817C193.349 179.817 194.141 180.016 194.81 180.415C195.491 180.803 196.008 181.325 196.36 181.982C196.712 182.628 196.888 183.326 196.888 184.077ZM196.096 184.377C196.131 183.532 195.978 182.816 195.638 182.229C195.309 181.642 194.857 181.208 194.282 180.926C193.707 180.633 193.085 180.486 192.416 180.486C191.747 180.486 191.125 180.633 190.55 180.926C189.986 181.208 189.523 181.642 189.159 182.229C188.807 182.816 188.619 183.532 188.596 184.377H196.096ZM201.958 188.831H207.346V189.5H201.078V188.831L206.325 180.609H201.201V179.94H207.223V180.609L201.958 188.831ZM211.533 184.711C211.533 183.725 211.727 182.863 212.114 182.123C212.513 181.384 213.059 180.814 213.751 180.415C214.455 180.016 215.254 179.817 216.146 179.817C217.155 179.817 218.012 180.063 218.716 180.556C219.42 181.049 219.913 181.677 220.195 182.44V179.94H220.987V189.5H220.195V186.982C219.913 187.757 219.414 188.397 218.699 188.901C217.994 189.394 217.143 189.641 216.146 189.641C215.254 189.641 214.455 189.441 213.751 189.042C213.059 188.631 212.513 188.056 212.114 187.317C211.727 186.566 211.533 185.697 211.533 184.711ZM220.195 184.711C220.195 183.878 220.019 183.144 219.667 182.51C219.326 181.865 218.857 181.372 218.258 181.032C217.66 180.679 216.991 180.503 216.251 180.503C215.477 180.503 214.796 180.674 214.209 181.014C213.622 181.343 213.164 181.824 212.836 182.458C212.507 183.091 212.343 183.843 212.343 184.711C212.343 185.58 212.507 186.331 212.836 186.965C213.164 187.599 213.622 188.086 214.209 188.426C214.808 188.766 215.488 188.937 216.251 188.937C216.991 188.937 217.66 188.766 218.258 188.426C218.869 188.074 219.344 187.581 219.684 186.947C220.025 186.302 220.195 185.556 220.195 184.711ZM226.39 189.553C226.19 189.553 226.026 189.488 225.897 189.359C225.768 189.23 225.703 189.066 225.703 188.866C225.703 188.667 225.768 188.502 225.897 188.373C226.026 188.244 226.19 188.18 226.39 188.18C226.577 188.18 226.736 188.244 226.865 188.373C226.994 188.502 227.059 188.667 227.059 188.866C227.059 189.066 226.994 189.23 226.865 189.359C226.736 189.488 226.577 189.553 226.39 189.553ZM67.5442 203.81V208.968H72.4738V209.637H67.5442V214.831H73.002V215.5H66.7519V203.141H73.002V203.81H67.5442ZM81.2276 215.641C80.1596 215.641 79.2851 215.406 78.6044 214.937C77.9354 214.467 77.5598 213.798 77.4776 212.93H78.2875C78.3462 213.552 78.6278 214.045 79.1326 214.408C79.649 214.772 80.3474 214.954 81.2276 214.954C81.9554 214.954 82.5305 214.772 82.953 214.408C83.3873 214.033 83.6044 213.575 83.6044 213.035C83.6044 212.66 83.4871 212.354 83.2523 212.12C83.0293 211.873 82.7476 211.685 82.4072 211.556C82.0669 211.427 81.6032 211.286 81.0164 211.134C80.3121 210.946 79.7429 210.764 79.3086 210.588C78.8743 210.4 78.5046 210.124 78.1994 209.76C77.8943 209.397 77.7417 208.91 77.7417 208.299C77.7417 207.853 77.8767 207.442 78.1466 207.067C78.4166 206.679 78.7922 206.374 79.2734 206.151C79.7546 205.928 80.3004 205.817 80.9107 205.817C81.9084 205.817 82.7124 206.069 83.3227 206.574C83.9448 207.067 84.2793 207.753 84.3263 208.634H83.534C83.4988 208 83.2523 207.483 82.7946 207.084C82.3368 206.685 81.703 206.486 80.8931 206.486C80.2124 206.486 79.649 206.662 79.203 207.014C78.757 207.366 78.534 207.795 78.534 208.299C78.534 208.745 78.6572 209.109 78.9037 209.391C79.1619 209.661 79.4729 209.872 79.8368 210.025C80.2124 210.165 80.7053 210.318 81.3157 210.482C81.9847 210.658 82.5187 210.834 82.9178 211.011C83.3286 211.175 83.6749 211.421 83.9565 211.75C84.2382 212.067 84.3791 212.495 84.3791 213.035C84.3791 213.528 84.2441 213.974 83.9742 214.373C83.7042 214.772 83.3286 215.083 82.8474 215.306C82.3662 215.529 81.8262 215.641 81.2276 215.641ZM92.6199 215.641C91.5518 215.641 90.6773 215.406 89.9966 214.937C89.3276 214.467 88.952 213.798 88.8698 212.93H89.6797C89.7384 213.552 90.0201 214.045 90.5248 214.408C91.0412 214.772 91.7396 214.954 92.6199 214.954C93.3476 214.954 93.9227 214.772 94.3452 214.408C94.7795 214.033 94.9966 213.575 94.9966 213.035C94.9966 212.66 94.8793 212.354 94.6445 212.12C94.4215 211.873 94.1398 211.685 93.7995 211.556C93.4591 211.427 92.9955 211.286 92.4086 211.134C91.7044 210.946 91.1351 210.764 90.7008 210.588C90.2665 210.4 89.8968 210.124 89.5917 209.76C89.2865 209.397 89.1339 208.91 89.1339 208.299C89.1339 207.853 89.2689 207.442 89.5388 207.067C89.8088 206.679 90.1844 206.374 90.6656 206.151C91.1468 205.928 91.6926 205.817 92.303 205.817C93.3006 205.817 94.1046 206.069 94.715 206.574C95.337 207.067 95.6715 207.753 95.7185 208.634H94.9262C94.891 208 94.6445 207.483 94.1868 207.084C93.729 206.685 93.0952 206.486 92.2853 206.486C91.6046 206.486 91.0412 206.662 90.5952 207.014C90.1492 207.366 89.9262 207.795 89.9262 208.299C89.9262 208.745 90.0494 209.109 90.2959 209.391C90.5541 209.661 90.8651 209.872 91.229 210.025C91.6046 210.165 92.0976 210.318 92.7079 210.482C93.3769 210.658 93.911 210.834 94.31 211.011C94.7208 211.175 95.0671 211.421 95.3488 211.75C95.6305 212.067 95.7713 212.495 95.7713 213.035C95.7713 213.528 95.6363 213.974 95.3664 214.373C95.0964 214.772 94.7208 215.083 94.2396 215.306C93.7584 215.529 93.2185 215.641 92.6199 215.641ZM100.332 210.711C100.332 209.725 100.526 208.863 100.913 208.123C101.313 207.384 101.858 206.814 102.551 206.415C103.255 206.016 104.053 205.817 104.945 205.817C105.955 205.817 106.811 206.063 107.516 206.556C108.22 207.049 108.713 207.677 108.995 208.44V205.94H109.787V215.5H108.995V212.982C108.713 213.757 108.214 214.397 107.498 214.901C106.794 215.394 105.943 215.641 104.945 215.641C104.053 215.641 103.255 215.441 102.551 215.042C101.858 214.631 101.313 214.056 100.913 213.317C100.526 212.566 100.332 211.697 100.332 210.711ZM108.995 210.711C108.995 209.878 108.818 209.144 108.466 208.51C108.126 207.865 107.656 207.372 107.058 207.032C106.459 206.679 105.79 206.503 105.051 206.503C104.276 206.503 103.595 206.674 103.009 207.014C102.422 207.343 101.964 207.824 101.635 208.458C101.307 209.091 101.142 209.843 101.142 210.711C101.142 211.58 101.307 212.331 101.635 212.965C101.964 213.599 102.422 214.086 103.009 214.426C103.607 214.766 104.288 214.937 105.051 214.937C105.79 214.937 106.459 214.766 107.058 214.426C107.668 214.074 108.144 213.581 108.484 212.947C108.824 212.302 108.995 211.556 108.995 210.711ZM131.531 210.077C131.531 210.5 131.52 210.817 131.496 211.028H123.239C123.263 211.885 123.45 212.607 123.802 213.194C124.155 213.78 124.618 214.221 125.193 214.514C125.768 214.808 126.396 214.954 127.077 214.954C128.016 214.954 128.802 214.725 129.436 214.268C130.07 213.798 130.469 213.164 130.633 212.366H131.461C131.273 213.34 130.792 214.133 130.017 214.743C129.243 215.342 128.263 215.641 127.077 215.641C126.185 215.641 125.387 215.441 124.683 215.042C123.978 214.643 123.427 214.074 123.028 213.334C122.629 212.583 122.429 211.709 122.429 210.711C122.429 209.714 122.623 208.845 123.01 208.106C123.409 207.366 123.961 206.803 124.665 206.415C125.369 206.016 126.173 205.817 127.077 205.817C127.993 205.817 128.785 206.016 129.454 206.415C130.135 206.803 130.651 207.325 131.003 207.982C131.355 208.628 131.531 209.326 131.531 210.077ZM130.739 210.377C130.774 209.532 130.622 208.816 130.281 208.229C129.953 207.642 129.501 207.208 128.926 206.926C128.351 206.633 127.729 206.486 127.059 206.486C126.39 206.486 125.768 206.633 125.193 206.926C124.63 207.208 124.166 207.642 123.802 208.229C123.45 208.816 123.263 209.532 123.239 210.377H130.739ZM128.503 202.982L125.052 205.165V204.514L128.503 202.208V202.982ZM143.683 210.711C143.683 209.725 143.877 208.863 144.264 208.123C144.663 207.384 145.209 206.814 145.902 206.415C146.606 206.016 147.404 205.817 148.296 205.817C149.306 205.817 150.162 206.063 150.867 206.556C151.571 207.049 152.064 207.677 152.345 208.44V205.94H153.138V215.5H152.345V212.982C152.064 213.757 151.565 214.397 150.849 214.901C150.145 215.394 149.294 215.641 148.296 215.641C147.404 215.641 146.606 215.441 145.902 215.042C145.209 214.631 144.663 214.056 144.264 213.317C143.877 212.566 143.683 211.697 143.683 210.711ZM152.345 210.711C152.345 209.878 152.169 209.144 151.817 208.51C151.477 207.865 151.007 207.372 150.409 207.032C149.81 206.679 149.141 206.503 148.402 206.503C147.627 206.503 146.946 206.674 146.359 207.014C145.773 207.343 145.315 207.824 144.986 208.458C144.658 209.091 144.493 209.843 144.493 210.711C144.493 211.58 144.658 212.331 144.986 212.965C145.315 213.599 145.773 214.086 146.359 214.426C146.958 214.766 147.639 214.937 148.402 214.937C149.141 214.937 149.81 214.766 150.409 214.426C151.019 214.074 151.495 213.581 151.835 212.947C152.175 212.302 152.345 211.556 152.345 210.711ZM174.882 210.077C174.882 210.5 174.871 210.817 174.847 211.028H166.59C166.613 211.885 166.801 212.607 167.153 213.194C167.505 213.78 167.969 214.221 168.544 214.514C169.119 214.808 169.747 214.954 170.428 214.954C171.367 214.954 172.153 214.725 172.787 214.268C173.421 213.798 173.82 213.164 173.984 212.366H174.812C174.624 213.34 174.143 214.133 173.368 214.743C172.594 215.342 171.613 215.641 170.428 215.641C169.536 215.641 168.738 215.441 168.034 215.042C167.329 214.643 166.778 214.074 166.379 213.334C165.98 212.583 165.78 211.709 165.78 210.711C165.78 209.714 165.974 208.845 166.361 208.106C166.76 207.366 167.312 206.803 168.016 206.415C168.72 206.016 169.524 205.817 170.428 205.817C171.344 205.817 172.136 206.016 172.805 206.415C173.486 206.803 174.002 207.325 174.354 207.982C174.706 208.628 174.882 209.326 174.882 210.077ZM174.09 210.377C174.125 209.532 173.973 208.816 173.632 208.229C173.304 207.642 172.852 207.208 172.277 206.926C171.702 206.633 171.079 206.486 170.41 206.486C169.741 206.486 169.119 206.633 168.544 206.926C167.981 207.208 167.517 207.642 167.153 208.229C166.801 208.816 166.613 209.532 166.59 210.377H174.09ZM183.104 215.641C182.036 215.641 181.162 215.406 180.481 214.937C179.812 214.467 179.436 213.798 179.354 212.93H180.164C180.223 213.552 180.504 214.045 181.009 214.408C181.526 214.772 182.224 214.954 183.104 214.954C183.832 214.954 184.407 214.772 184.83 214.408C185.264 214.033 185.481 213.575 185.481 213.035C185.481 212.66 185.364 212.354 185.129 212.12C184.906 211.873 184.624 211.685 184.284 211.556C183.943 211.427 183.48 211.286 182.893 211.134C182.189 210.946 181.619 210.764 181.185 210.588C180.751 210.4 180.381 210.124 180.076 209.76C179.771 209.397 179.618 208.91 179.618 208.299C179.618 207.853 179.753 207.442 180.023 207.067C180.293 206.679 180.669 206.374 181.15 206.151C181.631 205.928 182.177 205.817 182.787 205.817C183.785 205.817 184.589 206.069 185.199 206.574C185.821 207.067 186.156 207.753 186.203 208.634H185.411C185.375 208 185.129 207.483 184.671 207.084C184.213 206.685 183.58 206.486 182.77 206.486C182.089 206.486 181.526 206.662 181.08 207.014C180.634 207.366 180.411 207.795 180.411 208.299C180.411 208.745 180.534 209.109 180.78 209.391C181.038 209.661 181.35 209.872 181.713 210.025C182.089 210.165 182.582 210.318 183.192 210.482C183.861 210.658 184.395 210.834 184.794 211.011C185.205 211.175 185.551 211.421 185.833 211.75C186.115 212.067 186.256 212.495 186.256 213.035C186.256 213.528 186.121 213.974 185.851 214.373C185.581 214.772 185.205 215.083 184.724 215.306C184.243 215.529 183.703 215.641 183.104 215.641ZM194.496 215.641C193.428 215.641 192.554 215.406 191.873 214.937C191.204 214.467 190.829 213.798 190.746 212.93H191.556C191.615 213.552 191.897 214.045 192.401 214.408C192.918 214.772 193.616 214.954 194.496 214.954C195.224 214.954 195.799 214.772 196.222 214.408C196.656 214.033 196.873 213.575 196.873 213.035C196.873 212.66 196.756 212.354 196.521 212.12C196.298 211.873 196.016 211.685 195.676 211.556C195.336 211.427 194.872 211.286 194.285 211.134C193.581 210.946 193.012 210.764 192.577 210.588C192.143 210.4 191.773 210.124 191.468 209.76C191.163 209.397 191.01 208.91 191.01 208.299C191.01 207.853 191.145 207.442 191.415 207.067C191.685 206.679 192.061 206.374 192.542 206.151C193.023 205.928 193.569 205.817 194.18 205.817C195.177 205.817 195.981 206.069 196.592 206.574C197.214 207.067 197.548 207.753 197.595 208.634H196.803C196.768 208 196.521 207.483 196.063 207.084C195.606 206.685 194.972 206.486 194.162 206.486C193.481 206.486 192.918 206.662 192.472 207.014C192.026 207.366 191.803 207.795 191.803 208.299C191.803 208.745 191.926 209.109 192.172 209.391C192.431 209.661 192.742 209.872 193.106 210.025C193.481 210.165 193.974 210.318 194.584 210.482C195.254 210.658 195.788 210.834 196.187 211.011C196.597 211.175 196.944 211.421 197.225 211.75C197.507 212.067 197.648 212.495 197.648 213.035C197.648 213.528 197.513 213.974 197.243 214.373C196.973 214.772 196.597 215.083 196.116 215.306C195.635 215.529 195.095 215.641 194.496 215.641ZM211.311 210.077C211.311 210.5 211.3 210.817 211.276 211.028H203.019C203.042 211.885 203.23 212.607 203.582 213.194C203.934 213.78 204.398 214.221 204.973 214.514C205.548 214.808 206.176 214.954 206.857 214.954C207.796 214.954 208.582 214.725 209.216 214.268C209.85 213.798 210.249 213.164 210.413 212.366H211.241C211.053 213.34 210.572 214.133 209.797 214.743C209.023 215.342 208.042 215.641 206.857 215.641C205.965 215.641 205.167 215.441 204.463 215.042C203.758 214.643 203.207 214.074 202.808 213.334C202.409 212.583 202.209 211.709 202.209 210.711C202.209 209.714 202.403 208.845 202.79 208.106C203.189 207.366 203.741 206.803 204.445 206.415C205.149 206.016 205.953 205.817 206.857 205.817C207.772 205.817 208.565 206.016 209.234 206.415C209.915 206.803 210.431 207.325 210.783 207.982C211.135 208.628 211.311 209.326 211.311 210.077ZM210.519 210.377C210.554 209.532 210.402 208.816 210.061 208.229C209.733 207.642 209.281 207.208 208.706 206.926C208.13 206.633 207.508 206.486 206.839 206.486C206.17 206.486 205.548 206.633 204.973 206.926C204.41 207.208 203.946 207.642 203.582 208.229C203.23 208.816 203.042 209.532 203.019 210.377H210.519ZM206.769 203.282L204.498 204.725V204.056L206.769 202.613L209.023 204.056V204.725L206.769 203.282ZM220.66 205.746C221.798 205.746 222.726 206.098 223.442 206.803C224.158 207.495 224.516 208.528 224.516 209.901V215.5H223.741V209.954C223.741 208.816 223.453 207.947 222.878 207.348C222.303 206.738 221.523 206.433 220.537 206.433C219.504 206.433 218.676 206.762 218.054 207.419C217.444 208.076 217.139 209.05 217.139 210.341V215.5H216.347V205.94H217.139V207.965C217.409 207.249 217.855 206.703 218.477 206.327C219.111 205.94 219.838 205.746 220.66 205.746ZM229.464 210.711C229.464 209.714 229.657 208.845 230.045 208.106C230.444 207.366 230.99 206.803 231.682 206.415C232.386 206.016 233.19 205.817 234.094 205.817C235.291 205.817 236.271 206.116 237.034 206.715C237.809 207.313 238.29 208.117 238.478 209.127H237.65C237.498 208.305 237.099 207.66 236.453 207.19C235.819 206.721 235.033 206.486 234.094 206.486C233.39 206.486 232.75 206.644 232.175 206.961C231.6 207.266 231.136 207.742 230.784 208.387C230.444 209.021 230.274 209.796 230.274 210.711C230.274 211.638 230.444 212.419 230.784 213.053C231.136 213.687 231.6 214.162 232.175 214.479C232.75 214.796 233.39 214.954 234.094 214.954C235.033 214.954 235.819 214.719 236.453 214.25C237.099 213.78 237.498 213.135 237.65 212.313H238.478C238.29 213.311 237.809 214.115 237.034 214.725C236.26 215.336 235.28 215.641 234.094 215.641C233.19 215.641 232.386 215.441 231.682 215.042C230.99 214.643 230.444 214.074 230.045 213.334C229.657 212.583 229.464 211.709 229.464 210.711ZM243.937 203.81C243.75 203.81 243.591 203.751 243.462 203.634C243.333 203.505 243.268 203.334 243.268 203.123C243.268 202.924 243.333 202.759 243.462 202.63C243.591 202.501 243.75 202.436 243.937 202.436C244.125 202.436 244.284 202.501 244.413 202.63C244.542 202.759 244.606 202.924 244.606 203.123C244.606 203.334 244.542 203.505 244.413 203.634C244.284 203.751 244.125 203.81 243.937 203.81ZM244.325 205.94V215.5H243.532V205.94H244.325ZM249.377 210.711C249.377 209.725 249.571 208.863 249.958 208.123C250.357 207.384 250.903 206.814 251.595 206.415C252.299 206.016 253.098 205.817 253.99 205.817C254.999 205.817 255.856 206.063 256.56 206.556C257.264 207.049 257.757 207.677 258.039 208.44V205.94H258.831V215.5H258.039V212.982C257.757 213.757 257.258 214.397 256.542 214.901C255.838 215.394 254.987 215.641 253.99 215.641C253.098 215.641 252.299 215.441 251.595 215.042C250.903 214.631 250.357 214.056 249.958 213.317C249.571 212.566 249.377 211.697 249.377 210.711ZM258.039 210.711C258.039 209.878 257.863 209.144 257.511 208.51C257.17 207.865 256.701 207.372 256.102 207.032C255.504 206.679 254.835 206.503 254.095 206.503C253.321 206.503 252.64 206.674 252.053 207.014C251.466 207.343 251.008 207.824 250.68 208.458C250.351 209.091 250.187 209.843 250.187 210.711C250.187 211.58 250.351 212.331 250.68 212.965C251.008 213.599 251.466 214.086 252.053 214.426C252.652 214.766 253.332 214.937 254.095 214.937C254.835 214.937 255.504 214.766 256.102 214.426C256.713 214.074 257.188 213.581 257.528 212.947C257.869 212.302 258.039 211.556 258.039 210.711ZM71.3843 236.711C71.3843 235.725 71.5779 234.863 71.9653 234.123C72.3643 233.384 72.9101 232.814 73.6026 232.415C74.3068 232.016 75.105 231.817 75.997 231.817C76.9712 231.817 77.8163 232.063 78.5322 232.556C79.2482 233.037 79.7529 233.665 80.0463 234.44V228.472H80.8386V241.5H80.0463V238.965C79.7646 239.751 79.2717 240.397 78.5674 240.901C77.8632 241.394 77.0064 241.641 75.997 241.641C75.105 241.641 74.3068 241.441 73.6026 241.042C72.9101 240.631 72.3643 240.056 71.9653 239.317C71.5779 238.566 71.3843 237.697 71.3843 236.711ZM80.0463 236.711C80.0463 235.878 79.8703 235.144 79.5182 234.51C79.1778 233.865 78.7083 233.372 78.1097 233.032C77.5111 232.679 76.8421 232.503 76.1026 232.503C75.328 232.503 74.6472 232.674 74.0604 233.014C73.4735 233.343 73.0157 233.824 72.6871 234.458C72.3585 235.091 72.1941 235.843 72.1941 236.711C72.1941 237.58 72.3585 238.331 72.6871 238.965C73.0157 239.599 73.4735 240.086 74.0604 240.426C74.6589 240.766 75.3397 240.937 76.1026 240.937C76.8421 240.937 77.5111 240.766 78.1097 240.426C78.72 240.074 79.1954 239.581 79.5358 238.947C79.8761 238.302 80.0463 237.556 80.0463 236.711ZM85.8713 236.711C85.8713 235.725 86.0649 234.863 86.4522 234.123C86.8513 233.384 87.3971 232.814 88.0896 232.415C88.7938 232.016 89.592 231.817 90.484 231.817C91.4934 231.817 92.3502 232.063 93.0544 232.556C93.7587 233.049 94.2516 233.677 94.5333 234.44V231.94H95.3256V241.5H94.5333V238.982C94.2516 239.757 93.7528 240.397 93.0368 240.901C92.3326 241.394 91.4816 241.641 90.484 241.641C89.592 241.641 88.7938 241.441 88.0896 241.042C87.3971 240.631 86.8513 240.056 86.4522 239.317C86.0649 238.566 85.8713 237.697 85.8713 236.711ZM94.5333 236.711C94.5333 235.878 94.3573 235.144 94.0052 234.51C93.6648 233.865 93.1953 233.372 92.5967 233.032C91.9981 232.679 91.3291 232.503 90.5896 232.503C89.815 232.503 89.1342 232.674 88.5473 233.014C87.9605 233.343 87.5027 233.824 87.1741 234.458C86.8454 235.091 86.6811 235.843 86.6811 236.711C86.6811 237.58 86.8454 238.331 87.1741 238.965C87.5027 239.599 87.9605 240.086 88.5473 240.426C89.1459 240.766 89.8267 240.937 90.5896 240.937C91.3291 240.937 91.9981 240.766 92.5967 240.426C93.207 240.074 93.6824 239.581 94.0228 238.947C94.3631 238.302 94.5333 237.556 94.5333 236.711ZM107.968 235.338C107.968 234.117 108.22 233.032 108.725 232.081C109.241 231.118 109.946 230.367 110.838 229.827C111.741 229.287 112.751 229.017 113.866 229.017C115.274 229.017 116.46 229.346 117.422 230.003C118.385 230.661 119.089 231.582 119.535 232.768H118.619C118.267 231.829 117.681 231.089 116.859 230.549C116.049 229.998 115.051 229.722 113.866 229.722C112.915 229.722 112.053 229.951 111.278 230.408C110.503 230.854 109.893 231.506 109.447 232.363C109.001 233.208 108.778 234.199 108.778 235.338C108.778 236.465 109.001 237.451 109.447 238.296C109.893 239.129 110.503 239.775 111.278 240.232C112.053 240.69 112.915 240.919 113.866 240.919C115.051 240.919 116.049 240.649 116.859 240.109C117.681 239.557 118.267 238.812 118.619 237.873H119.535C119.089 239.059 118.385 239.98 117.422 240.637C116.46 241.295 115.274 241.623 113.866 241.623C112.751 241.623 111.741 241.359 110.838 240.831C109.946 240.291 109.241 239.546 108.725 238.595C108.22 237.633 107.968 236.547 107.968 235.338ZM124.157 236.711C124.157 235.725 124.351 234.863 124.738 234.123C125.137 233.384 125.683 232.814 126.375 232.415C127.08 232.016 127.878 231.817 128.77 231.817C129.779 231.817 130.636 232.063 131.34 232.556C132.044 233.049 132.537 233.677 132.819 234.44V231.94H133.611V241.5H132.819V238.982C132.537 239.757 132.039 240.397 131.323 240.901C130.618 241.394 129.767 241.641 128.77 241.641C127.878 241.641 127.08 241.441 126.375 241.042C125.683 240.631 125.137 240.056 124.738 239.317C124.351 238.566 124.157 237.697 124.157 236.711ZM132.819 236.711C132.819 235.878 132.643 235.144 132.291 234.51C131.951 233.865 131.481 233.372 130.883 233.032C130.284 232.679 129.615 232.503 128.875 232.503C128.101 232.503 127.42 232.674 126.833 233.014C126.246 233.343 125.789 233.824 125.46 234.458C125.131 235.091 124.967 235.843 124.967 236.711C124.967 237.58 125.131 238.331 125.46 238.965C125.789 239.599 126.246 240.086 126.833 240.426C127.432 240.766 128.113 240.937 128.875 240.937C129.615 240.937 130.284 240.766 130.883 240.426C131.493 240.074 131.968 239.581 132.309 238.947C132.649 238.302 132.819 237.556 132.819 236.711ZM142.324 241.641C141.256 241.641 140.381 241.406 139.7 240.937C139.031 240.467 138.656 239.798 138.574 238.93H139.384C139.442 239.552 139.724 240.045 140.229 240.408C140.745 240.772 141.443 240.954 142.324 240.954C143.051 240.954 143.627 240.772 144.049 240.408C144.483 240.033 144.7 239.575 144.7 239.035C144.7 238.66 144.583 238.354 144.348 238.12C144.125 237.873 143.844 237.685 143.503 237.556C143.163 237.427 142.699 237.286 142.112 237.134C141.408 236.946 140.839 236.764 140.405 236.588C139.97 236.4 139.601 236.124 139.295 235.76C138.99 235.397 138.838 234.91 138.838 234.299C138.838 233.853 138.973 233.442 139.243 233.067C139.513 232.679 139.888 232.374 140.369 232.151C140.851 231.928 141.396 231.817 142.007 231.817C143.004 231.817 143.808 232.069 144.419 232.574C145.041 233.067 145.375 233.753 145.422 234.634H144.63C144.595 234 144.348 233.483 143.891 233.084C143.433 232.685 142.799 232.486 141.989 232.486C141.308 232.486 140.745 232.662 140.299 233.014C139.853 233.366 139.63 233.795 139.63 234.299C139.63 234.745 139.753 235.109 140 235.391C140.258 235.661 140.569 235.872 140.933 236.025C141.308 236.165 141.801 236.318 142.412 236.482C143.081 236.658 143.615 236.834 144.014 237.011C144.425 237.175 144.771 237.421 145.053 237.75C145.334 238.067 145.475 238.495 145.475 239.035C145.475 239.528 145.34 239.974 145.07 240.373C144.8 240.772 144.425 241.083 143.943 241.306C143.462 241.529 142.922 241.641 142.324 241.641ZM150.036 236.711C150.036 235.725 150.23 234.863 150.617 234.123C151.016 233.384 151.562 232.814 152.255 232.415C152.959 232.016 153.757 231.817 154.649 231.817C155.658 231.817 156.515 232.063 157.219 232.556C157.924 233.049 158.417 233.677 158.698 234.44V231.94H159.491V241.5H158.698V238.982C158.417 239.757 157.918 240.397 157.202 240.901C156.498 241.394 155.647 241.641 154.649 241.641C153.757 241.641 152.959 241.441 152.255 241.042C151.562 240.631 151.016 240.056 150.617 239.317C150.23 238.566 150.036 237.697 150.036 236.711ZM158.698 236.711C158.698 235.878 158.522 235.144 158.17 234.51C157.83 233.865 157.36 233.372 156.762 233.032C156.163 232.679 155.494 232.503 154.755 232.503C153.98 232.503 153.299 232.674 152.712 233.014C152.126 233.343 151.668 233.824 151.339 234.458C151.01 235.091 150.846 235.843 150.846 236.711C150.846 237.58 151.01 238.331 151.339 238.965C151.668 239.599 152.126 240.086 152.712 240.426C153.311 240.766 153.992 240.937 154.755 240.937C155.494 240.937 156.163 240.766 156.762 240.426C157.372 240.074 157.847 239.581 158.188 238.947C158.528 238.302 158.698 237.556 158.698 236.711ZM177.961 235.109C178.677 235.238 179.275 235.59 179.756 236.165C180.249 236.741 180.496 237.415 180.496 238.19C180.496 238.824 180.343 239.393 180.038 239.898C179.745 240.391 179.299 240.784 178.7 241.077C178.113 241.359 177.397 241.5 176.552 241.5H172.626V229.141H176.482C177.714 229.141 178.641 229.428 179.263 230.003C179.897 230.567 180.214 231.3 180.214 232.204C180.214 232.991 180.003 233.63 179.58 234.123C179.158 234.604 178.618 234.933 177.961 235.109ZM173.418 234.757H176.517C177.444 234.757 178.154 234.54 178.647 234.106C179.152 233.66 179.404 233.049 179.404 232.275C179.404 231.523 179.158 230.931 178.665 230.496C178.172 230.062 177.426 229.845 176.429 229.845H173.418V234.757ZM176.499 240.813C177.497 240.813 178.277 240.579 178.841 240.109C179.416 239.628 179.704 238.971 179.704 238.137C179.704 237.316 179.41 236.664 178.823 236.183C178.248 235.69 177.456 235.444 176.446 235.444H173.418V240.813H176.499ZM186.255 228.472V241.5H185.462V228.472H186.255ZM191.307 236.711C191.307 235.725 191.501 234.863 191.888 234.123C192.287 233.384 192.833 232.814 193.525 232.415C194.229 232.016 195.028 231.817 195.92 231.817C196.929 231.817 197.786 232.063 198.49 232.556C199.194 233.049 199.687 233.677 199.969 234.44V231.94H200.761V241.5H199.969V238.982C199.687 239.757 199.188 240.397 198.472 240.901C197.768 241.394 196.917 241.641 195.92 241.641C195.028 241.641 194.229 241.441 193.525 241.042C192.833 240.631 192.287 240.056 191.888 239.317C191.501 238.566 191.307 237.697 191.307 236.711ZM199.969 236.711C199.969 235.878 199.793 235.144 199.441 234.51C199.1 233.865 198.631 233.372 198.032 233.032C197.434 232.679 196.765 232.503 196.025 232.503C195.251 232.503 194.57 232.674 193.983 233.014C193.396 233.343 192.938 233.824 192.61 234.458C192.281 235.091 192.117 235.843 192.117 236.711C192.117 237.58 192.281 238.331 192.61 238.965C192.938 239.599 193.396 240.086 193.983 240.426C194.582 240.766 195.262 240.937 196.025 240.937C196.765 240.937 197.434 240.766 198.032 240.426C198.643 240.074 199.118 239.581 199.458 238.947C199.799 238.302 199.969 237.556 199.969 236.711ZM210.6 231.746C211.739 231.746 212.666 232.098 213.382 232.803C214.098 233.495 214.456 234.528 214.456 235.901V241.5H213.681V235.954C213.681 234.816 213.394 233.947 212.819 233.348C212.243 232.738 211.463 232.433 210.477 232.433C209.444 232.433 208.617 232.762 207.995 233.419C207.384 234.076 207.079 235.05 207.079 236.341V241.5H206.287V231.94H207.079V233.965C207.349 233.249 207.795 232.703 208.417 232.327C209.051 231.94 209.779 231.746 210.6 231.746ZM219.404 236.711C219.404 235.714 219.598 234.845 219.985 234.106C220.384 233.366 220.93 232.803 221.622 232.415C222.327 232.016 223.131 231.817 224.034 231.817C225.232 231.817 226.212 232.116 226.975 232.715C227.749 233.313 228.23 234.117 228.418 235.127H227.591C227.438 234.305 227.039 233.66 226.394 233.19C225.76 232.721 224.973 232.486 224.034 232.486C223.33 232.486 222.69 232.644 222.115 232.961C221.54 233.266 221.077 233.742 220.724 234.387C220.384 235.021 220.214 235.796 220.214 236.711C220.214 237.638 220.384 238.419 220.724 239.053C221.077 239.687 221.54 240.162 222.115 240.479C222.69 240.796 223.33 240.954 224.034 240.954C224.973 240.954 225.76 240.719 226.394 240.25C227.039 239.78 227.438 239.135 227.591 238.313H228.418C228.23 239.311 227.749 240.115 226.975 240.725C226.2 241.336 225.22 241.641 224.034 241.641C223.131 241.641 222.327 241.441 221.622 241.042C220.93 240.643 220.384 240.074 219.985 239.334C219.598 238.583 219.404 237.709 219.404 236.711ZM232.98 236.711C232.98 235.725 233.173 234.863 233.561 234.123C233.96 233.384 234.506 232.814 235.198 232.415C235.902 232.016 236.7 231.817 237.592 231.817C238.602 231.817 239.459 232.063 240.163 232.556C240.867 233.049 241.36 233.677 241.642 234.44V231.94H242.434V241.5H241.642V238.982C241.36 239.757 240.861 240.397 240.145 240.901C239.441 241.394 238.59 241.641 237.592 241.641C236.7 241.641 235.902 241.441 235.198 241.042C234.506 240.631 233.96 240.056 233.561 239.317C233.173 238.566 232.98 237.697 232.98 236.711ZM241.642 236.711C241.642 235.878 241.466 235.144 241.114 234.51C240.773 233.865 240.304 233.372 239.705 233.032C239.107 232.679 238.438 232.503 237.698 232.503C236.923 232.503 236.243 232.674 235.656 233.014C235.069 233.343 234.611 233.824 234.283 234.458C233.954 235.091 233.79 235.843 233.79 236.711C233.79 237.58 233.954 238.331 234.283 238.965C234.611 239.599 235.069 240.086 235.656 240.426C236.254 240.766 236.935 240.937 237.698 240.937C238.438 240.937 239.107 240.766 239.705 240.426C240.316 240.074 240.791 239.581 241.131 238.947C241.472 238.302 241.642 237.556 241.642 236.711ZM252.291 231.746C253.418 231.746 254.339 232.098 255.055 232.803C255.771 233.495 256.129 234.528 256.129 235.901V241.5H255.354V235.954C255.354 234.816 255.067 233.947 254.491 233.348C253.916 232.738 253.136 232.433 252.15 232.433C251.117 232.433 250.29 232.762 249.667 233.419C249.057 234.076 248.752 235.05 248.752 236.341V241.5H247.96V228.472H248.752V233.965C249.022 233.249 249.474 232.703 250.108 232.327C250.741 231.94 251.469 231.746 252.291 231.746ZM261.447 241.553C261.247 241.553 261.083 241.488 260.954 241.359C260.825 241.23 260.76 241.066 260.76 240.866C260.76 240.667 260.825 240.502 260.954 240.373C261.083 240.244 261.247 240.18 261.447 240.18C261.634 240.18 261.793 240.244 261.922 240.373C262.051 240.502 262.116 240.667 262.116 240.866C262.116 241.066 262.051 241.23 261.922 241.359C261.793 241.488 261.634 241.553 261.447 241.553Z" fill="black"/>
</g>
<g filter="url(#filter2_d_241_211)">
<path d="M179.357 38.3683C176.931 27.826 167.921 20.5 157.525 20.5C145.05 20.5 135 30.8636 135 43.7288C135 55.8793 144.183 65.8856 155.792 66.779V75.7132C155.792 76.7853 156.485 77.5 157.525 77.5C158.565 77.5 159.258 76.7853 159.258 75.7132V50.1614L167.401 41.7633C168.094 41.0486 168.094 39.9765 167.401 39.2618C166.708 38.547 165.669 38.547 164.975 39.2618L159.258 45.337V39.9765L153.54 34.0799C152.847 33.3652 151.807 33.3652 151.114 34.0799C150.421 34.7947 150.421 35.8668 151.114 36.5815L155.792 41.406V52.4843L149.208 45.6944C148.515 44.9796 147.475 44.9796 146.782 45.6944C146.089 46.4091 146.089 47.4812 146.782 48.1959L155.792 57.4875V63.2053C146.089 62.3119 138.465 53.9138 138.465 43.7288C138.465 32.8292 146.956 24.0737 157.525 24.0737C168.094 24.0737 176.584 32.8292 176.584 43.7288C176.584 52.4843 170.867 60.1677 162.723 62.6693V66.4216C174.852 63.384 182.302 50.8762 179.357 38.3683Z" fill="black"/>
</g>
<path d="M87.9011 97.166V108.496C87.9011 109.757 87.5124 110.769 86.7351 111.532C85.9577 112.28 84.9311 112.654 83.6551 112.654C82.3644 112.654 81.3304 112.273 80.5531 111.51C79.7757 110.733 79.3871 109.677 79.3871 108.342H81.3891C81.4037 109.09 81.5944 109.699 81.9611 110.168C82.3424 110.637 82.9071 110.872 83.6551 110.872C84.4031 110.872 84.9604 110.652 85.3271 110.212C85.6937 109.757 85.8771 109.185 85.8771 108.496V97.166H87.9011ZM93.2971 106.428C93.2971 105.196 93.5464 104.118 94.0451 103.194C94.5437 102.255 95.2257 101.529 96.0911 101.016C96.9711 100.503 97.9464 100.246 99.0171 100.246C100.073 100.246 100.99 100.473 101.767 100.928C102.544 101.383 103.124 101.955 103.505 102.644V100.444H105.529V112.5H103.505V110.256C103.109 110.96 102.515 111.547 101.723 112.016C100.946 112.471 100.036 112.698 98.9951 112.698C97.9244 112.698 96.9564 112.434 96.0911 111.906C95.2257 111.378 94.5437 110.637 94.0451 109.684C93.5464 108.731 93.2971 107.645 93.2971 106.428ZM103.505 106.45C103.505 105.541 103.322 104.749 102.955 104.074C102.588 103.399 102.09 102.886 101.459 102.534C100.843 102.167 100.161 101.984 99.4131 101.984C98.6651 101.984 97.9831 102.16 97.3671 102.512C96.7511 102.864 96.2597 103.377 95.8931 104.052C95.5264 104.727 95.3431 105.519 95.3431 106.428C95.3431 107.352 95.5264 108.159 95.8931 108.848C96.2597 109.523 96.7511 110.043 97.3671 110.41C97.9831 110.762 98.6651 110.938 99.4131 110.938C100.161 110.938 100.843 110.762 101.459 110.41C102.09 110.043 102.588 109.523 102.955 108.848C103.322 108.159 103.505 107.359 103.505 106.45ZM113.114 102.402C113.466 101.713 113.965 101.177 114.61 100.796C115.27 100.415 116.07 100.224 117.008 100.224V102.292H116.48C114.236 102.292 113.114 103.509 113.114 105.944V112.5H111.112V100.444H113.114V102.402ZM120.771 106.428C120.771 105.196 121.021 104.118 121.519 103.194C122.018 102.255 122.7 101.529 123.565 101.016C124.445 100.503 125.428 100.246 126.513 100.246C127.452 100.246 128.325 100.466 129.131 100.906C129.938 101.331 130.554 101.896 130.979 102.6V96.22H133.003V112.5H130.979V110.234C130.583 110.953 129.997 111.547 129.219 112.016C128.442 112.471 127.533 112.698 126.491 112.698C125.421 112.698 124.445 112.434 123.565 111.906C122.7 111.378 122.018 110.637 121.519 109.684C121.021 108.731 120.771 107.645 120.771 106.428ZM130.979 106.45C130.979 105.541 130.796 104.749 130.429 104.074C130.063 103.399 129.564 102.886 128.933 102.534C128.317 102.167 127.635 101.984 126.887 101.984C126.139 101.984 125.457 102.16 124.841 102.512C124.225 102.864 123.734 103.377 123.367 104.052C123.001 104.727 122.817 105.519 122.817 106.428C122.817 107.352 123.001 108.159 123.367 108.848C123.734 109.523 124.225 110.043 124.841 110.41C125.457 110.762 126.139 110.938 126.887 110.938C127.635 110.938 128.317 110.762 128.933 110.41C129.564 110.043 130.063 109.523 130.429 108.848C130.796 108.159 130.979 107.359 130.979 106.45ZM139.62 98.486C139.239 98.486 138.916 98.354 138.652 98.09C138.388 97.826 138.256 97.5033 138.256 97.122C138.256 96.7407 138.388 96.418 138.652 96.154C138.916 95.89 139.239 95.758 139.62 95.758C139.987 95.758 140.295 95.89 140.544 96.154C140.808 96.418 140.94 96.7407 140.94 97.122C140.94 97.5033 140.808 97.826 140.544 98.09C140.295 98.354 139.987 98.486 139.62 98.486ZM140.588 100.444V112.5H138.586V100.444H140.588ZM160.699 100.224C161.637 100.224 162.473 100.422 163.207 100.818C163.94 101.199 164.519 101.779 164.945 102.556C165.37 103.333 165.583 104.279 165.583 105.394V112.5H163.603V105.68C163.603 104.477 163.302 103.561 162.701 102.93C162.114 102.285 161.315 101.962 160.303 101.962C159.261 101.962 158.433 102.299 157.817 102.974C157.201 103.634 156.893 104.595 156.893 105.856V112.5H154.913V105.68C154.913 104.477 154.612 103.561 154.011 102.93C153.424 102.285 152.625 101.962 151.613 101.962C150.571 101.962 149.743 102.299 149.127 102.974C148.511 103.634 148.203 104.595 148.203 105.856V112.5H146.201V100.444H148.203V102.182C148.599 101.551 149.127 101.067 149.787 100.73C150.461 100.393 151.202 100.224 152.009 100.224C153.021 100.224 153.915 100.451 154.693 100.906C155.47 101.361 156.049 102.028 156.431 102.908C156.768 102.057 157.325 101.397 158.103 100.928C158.88 100.459 159.745 100.224 160.699 100.224ZM181.134 98.794V103.92H186.722V105.57H181.134V110.85H187.382V112.5H179.132V97.144H187.382V98.794H181.134ZM198.903 112.5L196.043 108.012L193.293 112.5H191.203L195.097 106.516L191.203 100.444H193.469L196.329 104.91L199.057 100.444H201.147L197.275 106.406L201.169 112.5H198.903ZM207.78 102.094V109.2C207.78 109.787 207.905 110.205 208.154 110.454C208.404 110.689 208.836 110.806 209.452 110.806H210.926V112.5H209.122C208.008 112.5 207.172 112.243 206.614 111.73C206.057 111.217 205.778 110.373 205.778 109.2V102.094H204.216V100.444H205.778V97.408H207.78V100.444H210.926V102.094H207.78ZM226.552 106.01C226.552 106.391 226.53 106.795 226.486 107.22H216.85C216.923 108.408 217.327 109.339 218.06 110.014C218.808 110.674 219.71 111.004 220.766 111.004C221.631 111.004 222.35 110.806 222.922 110.41C223.509 109.999 223.919 109.457 224.154 108.782H226.31C225.987 109.941 225.342 110.887 224.374 111.62C223.406 112.339 222.203 112.698 220.766 112.698C219.622 112.698 218.595 112.441 217.686 111.928C216.791 111.415 216.087 110.689 215.574 109.75C215.061 108.797 214.804 107.697 214.804 106.45C214.804 105.203 215.053 104.111 215.552 103.172C216.051 102.233 216.747 101.515 217.642 101.016C218.551 100.503 219.593 100.246 220.766 100.246C221.91 100.246 222.922 100.495 223.802 100.994C224.682 101.493 225.357 102.182 225.826 103.062C226.31 103.927 226.552 104.91 226.552 106.01ZM224.484 105.592C224.484 104.829 224.315 104.177 223.978 103.634C223.641 103.077 223.179 102.659 222.592 102.38C222.02 102.087 221.382 101.94 220.678 101.94C219.666 101.94 218.801 102.263 218.082 102.908C217.378 103.553 216.975 104.448 216.872 105.592H224.484ZM233.397 102.402C233.749 101.713 234.247 101.177 234.893 100.796C235.553 100.415 236.352 100.224 237.291 100.224V102.292H236.763C234.519 102.292 233.397 103.509 233.397 105.944V112.5H231.395V100.444H233.397V102.402ZM247.676 100.224C249.142 100.224 250.33 100.671 251.24 101.566C252.149 102.446 252.604 103.722 252.604 105.394V112.5H250.624V105.68C250.624 104.477 250.323 103.561 249.722 102.93C249.12 102.285 248.299 101.962 247.258 101.962C246.202 101.962 245.358 102.292 244.728 102.952C244.112 103.612 243.804 104.573 243.804 105.834V112.5H241.802V100.444H243.804V102.16C244.2 101.544 244.735 101.067 245.41 100.73C246.099 100.393 246.854 100.224 247.676 100.224ZM263.332 112.698C262.203 112.698 261.176 112.441 260.252 111.928C259.343 111.415 258.624 110.689 258.096 109.75C257.583 108.797 257.326 107.697 257.326 106.45C257.326 105.218 257.59 104.133 258.118 103.194C258.661 102.241 259.394 101.515 260.318 101.016C261.242 100.503 262.276 100.246 263.42 100.246C264.564 100.246 265.598 100.503 266.522 101.016C267.446 101.515 268.172 102.233 268.7 103.172C269.243 104.111 269.514 105.203 269.514 106.45C269.514 107.697 269.235 108.797 268.678 109.75C268.135 110.689 267.395 111.415 266.456 111.928C265.517 112.441 264.476 112.698 263.332 112.698ZM263.332 110.938C264.051 110.938 264.725 110.769 265.356 110.432C265.987 110.095 266.493 109.589 266.874 108.914C267.27 108.239 267.468 107.418 267.468 106.45C267.468 105.482 267.277 104.661 266.896 103.986C266.515 103.311 266.016 102.813 265.4 102.49C264.784 102.153 264.117 101.984 263.398 101.984C262.665 101.984 261.99 102.153 261.374 102.49C260.773 102.813 260.289 103.311 259.922 103.986C259.555 104.661 259.372 105.482 259.372 106.45C259.372 107.433 259.548 108.261 259.9 108.936C260.267 109.611 260.751 110.117 261.352 110.454C261.953 110.777 262.613 110.938 263.332 110.938Z" fill="black"/>
<defs>
<filter id="filter0_d_241_211" x="0" y="0.5" width="326" height="282" filterUnits="userSpaceOnUse" color-interpolation-filters="sRGB">
<feFlood flood-opacity="0" result="BackgroundImageFix"/>
<feColorMatrix in="SourceAlpha" type="matrix" values="0 0 0 0 0 0 0 0 0 0 0 0 0 0 0 0 0 0 127 0" result="hardAlpha"/>
<feOffset dx="7" dy="4"/>
<feGaussianBlur stdDeviation="2"/>
<feComposite in2="hardAlpha" operator="out"/>
<feColorMatrix type="matrix" values="0 0 0 0 0 0 0 0 0 0 0 0 0 0 0 0 0 0 0.25 0"/>
<feBlend mode="normal" in2="BackgroundImageFix" result="effect1_dropShadow_241_211"/>
<feBlend mode="normal" in="SourceGraphic" in2="effect1_dropShadow_241_211" result="shape"/>
</filter>
<filter id="filter1_d_241_211" x="61.6927" y="151.141" width="204.335" height="98.3251" filterUnits="userSpaceOnUse" color-interpolation-filters="sRGB">
<feFlood flood-opacity="0" result="BackgroundImageFix"/>
<feColorMatrix in="SourceAlpha" type="matrix" values="0 0 0 0 0 0 0 0 0 0 0 0 0 0 0 0 0 0 127 0" result="hardAlpha"/>
<feOffset dy="3.91241"/>
<feGaussianBlur stdDeviation="1.9562"/>
<feComposite in2="hardAlpha" operator="out"/>
<feColorMatrix type="matrix" values="0 0 0 0 0 0 0 0 0 0 0 0 0 0 0 0 0 0 0.25 0"/>
<feBlend mode="normal" in2="BackgroundImageFix" result="effect1_dropShadow_241_211"/>
<feBlend mode="normal" in="SourceGraphic" in2="effect1_dropShadow_241_211" result="shape"/>
</filter>
<filter id="filter2_d_241_211" x="135" y="18.5" width="55" height="65" filterUnits="userSpaceOnUse" color-interpolation-filters="sRGB">
<feFlood flood-opacity="0" result="BackgroundImageFix"/>
<feColorMatrix in="SourceAlpha" type="matrix" values="0 0 0 0 0 0 0 0 0 0 0 0 0 0 0 0 0 0 127 0" result="hardAlpha"/>
<feOffset dx="6" dy="2"/>
<feGaussianBlur stdDeviation="2"/>
<feComposite in2="hardAlpha" operator="out"/>
<feColorMatrix type="matrix" values="0 0 0 0 0 0 0 0 0 0 0 0 0 0 0 0 0 0 0.25 0"/>
<feBlend mode="normal" in2="BackgroundImageFix" result="effect1_dropShadow_241_211"/>
<feBlend mode="normal" in="SourceGraphic" in2="effect1_dropShadow_241_211" result="shape"/>
</filter>
</defs>
</svg>
