<svg width="326" height="282" viewBox="0 0 326 282" fill="none" xmlns="http://www.w3.org/2000/svg">
<g filter="url(#filter0_d_241_210)">
<rect width="315" height="274" rx="5" fill="#D9D9D9" fill-opacity="0.75" shape-rendering="crispEdges"/>
</g>
<g clip-path="url(#clip0_241_210)" filter="url(#filter1_d_241_210)">
<path d="M179.819 57.935L158.986 35.435C158.726 35.1556 158.374 34.9988 158.007 34.9988C157.64 34.9988 157.288 35.1556 157.028 35.435L136.194 57.935C135.967 58.2219 135.848 58.591 135.862 58.9685C135.875 59.3461 136.02 59.7042 136.267 59.9713C136.515 60.2385 136.846 60.395 137.196 60.4095C137.545 60.4241 137.887 60.2957 138.153 60.05L158 38.615L177.847 60.065C178.113 60.3107 178.455 60.4391 178.804 60.4245C179.154 60.41 179.485 60.2535 179.733 59.9863C179.98 59.7192 180.125 59.3611 180.138 58.9835C180.152 58.606 180.033 58.2369 179.806 57.95L179.819 57.935Z" fill="black"/>
<path d="M171.889 79.9999H164.944V64.9999H151.056V79.9999H144.111V58.9999L141.333 61.9999V79.9999C141.333 80.7955 141.626 81.5586 142.147 82.1212C142.668 82.6838 143.374 82.9999 144.111 82.9999H153.833V67.9999H162.167V82.9999H171.889C172.626 82.9999 173.332 82.6838 173.853 82.1212C174.374 81.5586 174.667 80.7955 174.667 79.9999V61.6399L171.889 58.6399V79.9999Z" fill="black"/>
</g>
<path d="M107.084 107.21H101.612L100.604 110H98.8755L103.412 97.526H105.302L109.82 110H108.092L107.084 107.21ZM106.616 105.878L104.348 99.542L102.08 105.878H106.616ZM115.234 101.738C115.522 101.174 115.93 100.736 116.458 100.424C116.998 100.112 117.652 99.956 118.42 99.956V101.648H117.988C116.152 101.648 115.234 102.644 115.234 104.636V110H113.596V100.136H115.234V101.738ZM121.499 105.032C121.499 104.024 121.703 103.142 122.111 102.386C122.519 101.618 123.077 101.024 123.785 100.604C124.505 100.184 125.309 99.974 126.197 99.974C127.049 99.974 127.793 100.166 128.429 100.55C129.077 100.922 129.551 101.384 129.851 101.936V100.136H131.507V114.68H129.851V108.182C129.539 108.734 129.059 109.202 128.411 109.586C127.763 109.97 127.007 110.162 126.143 110.162C125.279 110.162 124.493 109.946 123.785 109.514C123.077 109.082 122.519 108.476 122.111 107.696C121.703 106.916 121.499 106.028 121.499 105.032ZM129.851 105.05C129.851 104.306 129.701 103.658 129.401 103.106C129.101 102.554 128.693 102.134 128.177 101.846C127.673 101.546 127.115 101.396 126.503 101.396C125.891 101.396 125.333 101.54 124.829 101.828C124.325 102.116 123.923 102.536 123.623 103.088C123.323 103.64 123.173 104.288 123.173 105.032C123.173 105.788 123.323 106.448 123.623 107.012C123.923 107.564 124.325 107.99 124.829 108.29C125.333 108.578 125.891 108.722 126.503 108.722C127.115 108.722 127.673 108.578 128.177 108.29C128.693 107.99 129.101 107.564 129.401 107.012C129.701 106.448 129.851 105.794 129.851 105.05ZM144.823 100.136V110H143.185V108.542C142.873 109.046 142.435 109.442 141.871 109.73C141.319 110.006 140.707 110.144 140.035 110.144C139.267 110.144 138.577 109.988 137.965 109.676C137.353 109.352 136.867 108.872 136.507 108.236C136.159 107.6 135.985 106.826 135.985 105.914V100.136H137.605V105.698C137.605 106.67 137.851 107.42 138.343 107.948C138.835 108.464 139.507 108.722 140.359 108.722C141.235 108.722 141.925 108.452 142.429 107.912C142.933 107.372 143.185 106.586 143.185 105.554V100.136H144.823ZM150.235 98.534C149.923 98.534 149.659 98.426 149.443 98.21C149.227 97.994 149.119 97.73 149.119 97.418C149.119 97.106 149.227 96.842 149.443 96.626C149.659 96.41 149.923 96.302 150.235 96.302C150.535 96.302 150.787 96.41 150.991 96.626C151.207 96.842 151.315 97.106 151.315 97.418C151.315 97.73 151.207 97.994 150.991 98.21C150.787 98.426 150.535 98.534 150.235 98.534ZM151.027 100.136V110H149.389V100.136H151.027ZM157.617 101.486V107.3C157.617 107.78 157.719 108.122 157.923 108.326C158.127 108.518 158.481 108.614 158.985 108.614H160.191V110H158.715C157.803 110 157.119 109.79 156.663 109.37C156.207 108.95 155.979 108.26 155.979 107.3V101.486H154.701V100.136H155.979V97.652H157.617V100.136H160.191V101.486H157.617ZM172.975 104.69C172.975 105.002 172.957 105.332 172.921 105.68H165.037C165.097 106.652 165.427 107.414 166.027 107.966C166.639 108.506 167.377 108.776 168.241 108.776C168.949 108.776 169.537 108.614 170.005 108.29C170.485 107.954 170.821 107.51 171.013 106.958H172.777C172.513 107.906 171.985 108.68 171.193 109.28C170.401 109.868 169.417 110.162 168.241 110.162C167.305 110.162 166.465 109.952 165.721 109.532C164.989 109.112 164.413 108.518 163.993 107.75C163.573 106.97 163.363 106.07 163.363 105.05C163.363 104.03 163.567 103.136 163.975 102.368C164.383 101.6 164.953 101.012 165.685 100.604C166.429 100.184 167.281 99.974 168.241 99.974C169.177 99.974 170.005 100.178 170.725 100.586C171.445 100.994 171.997 101.558 172.381 102.278C172.777 102.986 172.975 103.79 172.975 104.69ZM171.283 104.348C171.283 103.724 171.145 103.19 170.869 102.746C170.593 102.29 170.215 101.948 169.735 101.72C169.267 101.48 168.745 101.36 168.169 101.36C167.341 101.36 166.633 101.624 166.045 102.152C165.469 102.68 165.139 103.412 165.055 104.348H171.283ZM178.935 101.486V107.3C178.935 107.78 179.037 108.122 179.241 108.326C179.445 108.518 179.799 108.614 180.303 108.614H181.509V110H180.033C179.121 110 178.437 109.79 177.981 109.37C177.525 108.95 177.297 108.26 177.297 107.3V101.486H176.019V100.136H177.297V97.652H178.935V100.136H181.509V101.486H178.935ZM194.042 100.136V110H192.404V108.542C192.092 109.046 191.654 109.442 191.09 109.73C190.538 110.006 189.926 110.144 189.254 110.144C188.486 110.144 187.796 109.988 187.184 109.676C186.572 109.352 186.086 108.872 185.726 108.236C185.378 107.6 185.204 106.826 185.204 105.914V100.136H186.824V105.698C186.824 106.67 187.07 107.42 187.562 107.948C188.054 108.464 188.726 108.722 189.578 108.722C190.454 108.722 191.144 108.452 191.648 107.912C192.152 107.372 192.404 106.586 192.404 105.554V100.136H194.042ZM200.246 101.738C200.534 101.174 200.942 100.736 201.47 100.424C202.01 100.112 202.664 99.956 203.432 99.956V101.648H203C201.164 101.648 200.246 102.644 200.246 104.636V110H198.608V100.136H200.246V101.738ZM206.511 105.032C206.511 104.024 206.715 103.142 207.123 102.386C207.531 101.618 208.089 101.024 208.797 100.604C209.517 100.184 210.315 99.974 211.191 99.974C212.055 99.974 212.805 100.16 213.441 100.532C214.077 100.904 214.551 101.372 214.863 101.936V100.136H216.519V110H214.863V108.164C214.539 108.74 214.053 109.22 213.405 109.604C212.769 109.976 212.025 110.162 211.173 110.162C210.297 110.162 209.505 109.946 208.797 109.514C208.089 109.082 207.531 108.476 207.123 107.696C206.715 106.916 206.511 106.028 206.511 105.032ZM214.863 105.05C214.863 104.306 214.713 103.658 214.413 103.106C214.113 102.554 213.705 102.134 213.189 101.846C212.685 101.546 212.127 101.396 211.515 101.396C210.903 101.396 210.345 101.54 209.841 101.828C209.337 102.116 208.935 102.536 208.635 103.088C208.335 103.64 208.185 104.288 208.185 105.032C208.185 105.788 208.335 106.448 208.635 107.012C208.935 107.564 209.337 107.99 209.841 108.29C210.345 108.578 210.903 108.722 211.515 108.722C212.127 108.722 212.685 108.578 213.189 108.29C213.705 107.99 214.113 107.564 214.413 107.012C214.713 106.448 214.863 105.794 214.863 105.05ZM79.2591 130.718C79.2591 129.494 79.5351 128.396 80.0871 127.424C80.6391 126.44 81.3891 125.672 82.3371 125.12C83.2971 124.568 84.3591 124.292 85.5231 124.292C86.8911 124.292 88.0851 124.622 89.1051 125.282C90.1251 125.942 90.8691 126.878 91.3371 128.09H89.3751C89.0271 127.334 88.5231 126.752 87.8631 126.344C87.2151 125.936 86.4351 125.732 85.5231 125.732C84.6471 125.732 83.8611 125.936 83.1651 126.344C82.4691 126.752 81.9231 127.334 81.5271 128.09C81.1311 128.834 80.9331 129.71 80.9331 130.718C80.9331 131.714 81.1311 132.59 81.5271 133.346C81.9231 134.09 82.4691 134.666 83.1651 135.074C83.8611 135.482 84.6471 135.686 85.5231 135.686C86.4351 135.686 87.2151 135.488 87.8631 135.092C88.5231 134.684 89.0271 134.102 89.3751 133.346H91.3371C90.8691 134.546 90.1251 135.476 89.1051 136.136C88.0851 136.784 86.8911 137.108 85.5231 137.108C84.3591 137.108 83.2971 136.838 82.3371 136.298C81.3891 135.746 80.6391 134.984 80.0871 134.012C79.5351 133.04 79.2591 131.942 79.2591 130.718ZM99.8774 137.162C98.9534 137.162 98.1134 136.952 97.3574 136.532C96.6134 136.112 96.0254 135.518 95.5934 134.75C95.1734 133.97 94.9634 133.07 94.9634 132.05C94.9634 131.042 95.1794 130.154 95.6114 129.386C96.0554 128.606 96.6554 128.012 97.4114 127.604C98.1674 127.184 99.0134 126.974 99.9494 126.974C100.885 126.974 101.731 127.184 102.487 127.604C103.243 128.012 103.837 128.6 104.269 129.368C104.713 130.136 104.935 131.03 104.935 132.05C104.935 133.07 104.707 133.97 104.251 134.75C103.807 135.518 103.201 136.112 102.433 136.532C101.665 136.952 100.813 137.162 99.8774 137.162ZM99.8774 135.722C100.465 135.722 101.017 135.584 101.533 135.308C102.049 135.032 102.463 134.618 102.775 134.066C103.099 133.514 103.261 132.842 103.261 132.05C103.261 131.258 103.105 130.586 102.793 130.034C102.481 129.482 102.073 129.074 101.569 128.81C101.065 128.534 100.519 128.396 99.9314 128.396C99.3314 128.396 98.7794 128.534 98.2754 128.81C97.7834 129.074 97.3874 129.482 97.0874 130.034C96.7874 130.586 96.6374 131.258 96.6374 132.05C96.6374 132.854 96.7814 133.532 97.0694 134.084C97.3694 134.636 97.7654 135.05 98.2574 135.326C98.7494 135.59 99.2894 135.722 99.8774 135.722ZM113.695 126.956C114.895 126.956 115.867 127.322 116.611 128.054C117.355 128.774 117.727 129.818 117.727 131.186V137H116.107V131.42C116.107 130.436 115.861 129.686 115.369 129.17C114.877 128.642 114.205 128.378 113.353 128.378C112.489 128.378 111.799 128.648 111.283 129.188C110.779 129.728 110.527 130.514 110.527 131.546V137H108.889V127.136H110.527V128.54C110.851 128.036 111.289 127.646 111.841 127.37C112.405 127.094 113.023 126.956 113.695 126.956ZM124.201 128.486V134.3C124.201 134.78 124.303 135.122 124.507 135.326C124.711 135.518 125.065 135.614 125.569 135.614H126.775V137H125.299C124.387 137 123.703 136.79 123.247 136.37C122.791 135.95 122.563 135.26 122.563 134.3V128.486H121.285V127.136H122.563V124.652H124.201V127.136H126.775V128.486H124.201ZM139.559 131.69C139.559 132.002 139.541 132.332 139.505 132.68H131.621C131.681 133.652 132.011 134.414 132.611 134.966C133.223 135.506 133.961 135.776 134.825 135.776C135.533 135.776 136.121 135.614 136.589 135.29C137.069 134.954 137.405 134.51 137.597 133.958H139.361C139.097 134.906 138.569 135.68 137.777 136.28C136.985 136.868 136.001 137.162 134.825 137.162C133.889 137.162 133.049 136.952 132.305 136.532C131.573 136.112 130.997 135.518 130.577 134.75C130.157 133.97 129.947 133.07 129.947 132.05C129.947 131.03 130.151 130.136 130.559 129.368C130.967 128.6 131.537 128.012 132.269 127.604C133.013 127.184 133.865 126.974 134.825 126.974C135.761 126.974 136.589 127.178 137.309 127.586C138.029 127.994 138.581 128.558 138.965 129.278C139.361 129.986 139.559 130.79 139.559 131.69ZM137.867 131.348C137.867 130.724 137.729 130.19 137.453 129.746C137.177 129.29 136.799 128.948 136.319 128.72C135.851 128.48 135.329 128.36 134.753 128.36C133.925 128.36 133.217 128.624 132.629 129.152C132.053 129.68 131.723 130.412 131.639 131.348H137.867ZM155.383 126.956C156.151 126.956 156.835 127.118 157.435 127.442C158.035 127.754 158.509 128.228 158.857 128.864C159.205 129.5 159.379 130.274 159.379 131.186V137H157.759V131.42C157.759 130.436 157.513 129.686 157.021 129.17C156.541 128.642 155.887 128.378 155.059 128.378C154.207 128.378 153.529 128.654 153.025 129.206C152.521 129.746 152.269 130.532 152.269 131.564V137H150.649V131.42C150.649 130.436 150.403 129.686 149.911 129.17C149.431 128.642 148.777 128.378 147.949 128.378C147.097 128.378 146.419 128.654 145.915 129.206C145.411 129.746 145.159 130.532 145.159 131.564V137H143.521V127.136H145.159V128.558C145.483 128.042 145.915 127.646 146.455 127.37C147.007 127.094 147.613 126.956 148.273 126.956C149.101 126.956 149.833 127.142 150.469 127.514C151.105 127.886 151.579 128.432 151.891 129.152C152.167 128.456 152.623 127.916 153.259 127.532C153.895 127.148 154.603 126.956 155.383 126.956ZM165.504 128.954C165.828 128.39 166.308 127.922 166.944 127.55C167.592 127.166 168.342 126.974 169.194 126.974C170.07 126.974 170.862 127.184 171.57 127.604C172.29 128.024 172.854 128.618 173.262 129.386C173.67 130.142 173.874 131.024 173.874 132.032C173.874 133.028 173.67 133.916 173.262 134.696C172.854 135.476 172.29 136.082 171.57 136.514C170.862 136.946 170.07 137.162 169.194 137.162C168.354 137.162 167.61 136.976 166.962 136.604C166.326 136.22 165.84 135.746 165.504 135.182V141.68H163.866V127.136H165.504V128.954ZM172.2 132.032C172.2 131.288 172.05 130.64 171.75 130.088C171.45 129.536 171.042 129.116 170.526 128.828C170.022 128.54 169.464 128.396 168.852 128.396C168.252 128.396 167.694 128.546 167.178 128.846C166.674 129.134 166.266 129.56 165.954 130.124C165.654 130.676 165.504 131.318 165.504 132.05C165.504 132.794 165.654 133.448 165.954 134.012C166.266 134.564 166.674 134.99 167.178 135.29C167.694 135.578 168.252 135.722 168.852 135.722C169.464 135.722 170.022 135.578 170.526 135.29C171.042 134.99 171.45 134.564 171.75 134.012C172.05 133.448 172.2 132.788 172.2 132.032ZM182.132 137.162C181.208 137.162 180.368 136.952 179.612 136.532C178.868 136.112 178.28 135.518 177.848 134.75C177.428 133.97 177.218 133.07 177.218 132.05C177.218 131.042 177.434 130.154 177.866 129.386C178.31 128.606 178.91 128.012 179.666 127.604C180.422 127.184 181.268 126.974 182.204 126.974C183.14 126.974 183.986 127.184 184.742 127.604C185.498 128.012 186.092 128.6 186.524 129.368C186.968 130.136 187.19 131.03 187.19 132.05C187.19 133.07 186.962 133.97 186.506 134.75C186.062 135.518 185.456 136.112 184.688 136.532C183.92 136.952 183.068 137.162 182.132 137.162ZM182.132 135.722C182.72 135.722 183.272 135.584 183.788 135.308C184.304 135.032 184.718 134.618 185.03 134.066C185.354 133.514 185.516 132.842 185.516 132.05C185.516 131.258 185.36 130.586 185.048 130.034C184.736 129.482 184.328 129.074 183.824 128.81C183.32 128.534 182.774 128.396 182.186 128.396C181.586 128.396 181.034 128.534 180.53 128.81C180.038 129.074 179.642 129.482 179.342 130.034C179.042 130.586 178.892 131.258 178.892 132.05C178.892 132.854 179.036 133.532 179.324 134.084C179.624 134.636 180.02 135.05 180.512 135.326C181.004 135.59 181.544 135.722 182.132 135.722ZM192.782 128.738C193.07 128.174 193.478 127.736 194.006 127.424C194.546 127.112 195.2 126.956 195.968 126.956V128.648H195.536C193.7 128.648 192.782 129.644 192.782 131.636V137H191.144V127.136H192.782V128.738ZM199.047 132.032C199.047 131.024 199.251 130.142 199.659 129.386C200.067 128.618 200.625 128.024 201.333 127.604C202.053 127.184 202.851 126.974 203.727 126.974C204.591 126.974 205.341 127.16 205.977 127.532C206.613 127.904 207.087 128.372 207.399 128.936V127.136H209.055V137H207.399V135.164C207.075 135.74 206.589 136.22 205.941 136.604C205.305 136.976 204.561 137.162 203.709 137.162C202.833 137.162 202.041 136.946 201.333 136.514C200.625 136.082 200.067 135.476 199.659 134.696C199.251 133.916 199.047 133.028 199.047 132.032ZM207.399 132.05C207.399 131.306 207.249 130.658 206.949 130.106C206.649 129.554 206.241 129.134 205.725 128.846C205.221 128.546 204.663 128.396 204.051 128.396C203.439 128.396 202.881 128.54 202.377 128.828C201.873 129.116 201.471 129.536 201.171 130.088C200.871 130.64 200.721 131.288 200.721 132.032C200.721 132.788 200.871 133.448 201.171 134.012C201.471 134.564 201.873 134.99 202.377 135.29C202.881 135.578 203.439 135.722 204.051 135.722C204.663 135.722 205.221 135.578 205.725 135.29C206.241 134.99 206.649 134.564 206.949 134.012C207.249 133.448 207.399 132.794 207.399 132.05ZM204.375 124.724L201.873 126.254V124.958L204.375 123.464L206.859 124.958V126.254L204.375 124.724ZM218.429 126.956C219.629 126.956 220.601 127.322 221.345 128.054C222.089 128.774 222.461 129.818 222.461 131.186V137H220.841V131.42C220.841 130.436 220.595 129.686 220.103 129.17C219.611 128.642 218.939 128.378 218.087 128.378C217.223 128.378 216.533 128.648 216.017 129.188C215.513 129.728 215.261 130.514 215.261 131.546V137H213.623V127.136H215.261V128.54C215.585 128.036 216.023 127.646 216.575 127.37C217.139 127.094 217.757 126.956 218.429 126.956ZM235.937 131.69C235.937 132.002 235.919 132.332 235.883 132.68H227.999C228.059 133.652 228.389 134.414 228.989 134.966C229.601 135.506 230.339 135.776 231.203 135.776C231.911 135.776 232.499 135.614 232.967 135.29C233.447 134.954 233.783 134.51 233.975 133.958H235.739C235.475 134.906 234.947 135.68 234.155 136.28C233.363 136.868 232.379 137.162 231.203 137.162C230.267 137.162 229.427 136.952 228.683 136.532C227.951 136.112 227.375 135.518 226.955 134.75C226.535 133.97 226.325 133.07 226.325 132.05C226.325 131.03 226.529 130.136 226.937 129.368C227.345 128.6 227.915 128.012 228.647 127.604C229.391 127.184 230.243 126.974 231.203 126.974C232.139 126.974 232.967 127.178 233.687 127.586C234.407 127.994 234.959 128.558 235.343 129.278C235.739 129.986 235.937 130.79 235.937 131.69ZM234.245 131.348C234.245 130.724 234.107 130.19 233.831 129.746C233.555 129.29 233.177 128.948 232.697 128.72C232.229 128.48 231.707 128.36 231.131 128.36C230.303 128.36 229.595 128.624 229.007 129.152C228.431 129.68 228.101 130.412 228.017 131.348H234.245ZM239.287 132.032C239.287 131.024 239.491 130.142 239.899 129.386C240.307 128.618 240.865 128.024 241.573 127.604C242.293 127.184 243.091 126.974 243.967 126.974C244.831 126.974 245.581 127.16 246.217 127.532C246.853 127.904 247.327 128.372 247.639 128.936V127.136H249.295V137H247.639V135.164C247.315 135.74 246.829 136.22 246.181 136.604C245.545 136.976 244.801 137.162 243.949 137.162C243.073 137.162 242.281 136.946 241.573 136.514C240.865 136.082 240.307 135.476 239.899 134.696C239.491 133.916 239.287 133.028 239.287 132.032ZM247.639 132.05C247.639 131.306 247.489 130.658 247.189 130.106C246.889 129.554 246.481 129.134 245.965 128.846C245.461 128.546 244.903 128.396 244.291 128.396C243.679 128.396 243.121 128.54 242.617 128.828C242.113 129.116 241.711 129.536 241.411 130.088C241.111 130.64 240.961 131.288 240.961 132.032C240.961 132.788 241.111 133.448 241.411 134.012C241.711 134.564 242.113 134.99 242.617 135.29C243.121 135.578 243.679 135.722 244.291 135.722C244.903 135.722 245.461 135.578 245.965 135.29C246.481 134.99 246.889 134.564 247.189 134.012C247.489 133.448 247.639 132.794 247.639 132.05Z" fill="black"/>
<path d="M73.7661 166.364V174.266C73.7661 175.694 74.0901 176.744 74.7381 177.416C75.3861 178.076 76.2681 178.406 77.3841 178.406C78.4881 178.406 79.3581 178.076 79.9941 177.416C80.6301 176.756 80.9481 175.706 80.9481 174.266V166.364H81.7581V174.248C81.7581 175.892 81.3621 177.116 80.5701 177.92C79.7781 178.724 78.7161 179.126 77.3841 179.126C76.0521 179.126 74.9781 178.724 74.1621 177.92C73.3581 177.104 72.9561 175.88 72.9561 174.248V166.364H73.7661ZM98.8857 169.028C100.002 169.028 100.914 169.388 101.622 170.108C102.33 170.816 102.684 171.872 102.684 173.276V179H101.892V173.33C101.892 172.166 101.61 171.278 101.046 170.666C100.494 170.042 99.7317 169.73 98.7597 169.73C97.7517 169.73 96.9417 170.078 96.3297 170.774C95.7177 171.47 95.4117 172.478 95.4117 173.798V179H94.6197V173.33C94.6197 172.166 94.3377 171.278 93.7737 170.666C93.2217 170.042 92.4597 169.73 91.4877 169.73C90.4797 169.73 89.6697 170.078 89.0577 170.774C88.4457 171.47 88.1397 172.478 88.1397 173.798V179H87.3297V169.226H88.1397V171.35C88.4157 170.582 88.8597 170.006 89.4717 169.622C90.0957 169.226 90.8097 169.028 91.6137 169.028C92.5017 169.028 93.2637 169.262 93.8997 169.73C94.5477 170.186 94.9917 170.864 95.2317 171.764C95.4597 170.864 95.9037 170.186 96.5637 169.73C97.2237 169.262 97.9977 169.028 98.8857 169.028ZM107.754 174.104C107.754 173.096 107.952 172.214 108.348 171.458C108.756 170.702 109.314 170.12 110.022 169.712C110.742 169.304 111.558 169.1 112.47 169.1C113.502 169.1 114.378 169.352 115.098 169.856C115.818 170.36 116.322 171.002 116.61 171.782V169.226H117.42V179H116.61V176.426C116.322 177.218 115.812 177.872 115.08 178.388C114.36 178.892 113.49 179.144 112.47 179.144C111.558 179.144 110.742 178.94 110.022 178.532C109.314 178.112 108.756 177.524 108.348 176.768C107.952 176 107.754 175.112 107.754 174.104ZM116.61 174.104C116.61 173.252 116.43 172.502 116.07 171.854C115.722 171.194 115.242 170.69 114.63 170.342C114.018 169.982 113.334 169.802 112.578 169.802C111.786 169.802 111.09 169.976 110.49 170.324C109.89 170.66 109.422 171.152 109.086 171.8C108.75 172.448 108.582 173.216 108.582 174.104C108.582 174.992 108.75 175.76 109.086 176.408C109.422 177.056 109.89 177.554 110.49 177.902C111.102 178.25 111.798 178.424 112.578 178.424C113.334 178.424 114.018 178.25 114.63 177.902C115.254 177.542 115.74 177.038 116.088 176.39C116.436 175.73 116.61 174.968 116.61 174.104ZM130.346 174.104C130.346 173.096 130.544 172.214 130.94 171.458C131.348 170.702 131.906 170.12 132.614 169.712C133.334 169.304 134.15 169.1 135.062 169.1C136.094 169.1 136.97 169.352 137.69 169.856C138.41 170.36 138.914 171.002 139.202 171.782V169.226H140.012V179H139.202V176.426C138.914 177.218 138.404 177.872 137.672 178.388C136.952 178.892 136.082 179.144 135.062 179.144C134.15 179.144 133.334 178.94 132.614 178.532C131.906 178.112 131.348 177.524 130.94 176.768C130.544 176 130.346 175.112 130.346 174.104ZM139.202 174.104C139.202 173.252 139.022 172.502 138.662 171.854C138.314 171.194 137.834 170.69 137.222 170.342C136.61 169.982 135.926 169.802 135.17 169.802C134.378 169.802 133.682 169.976 133.082 170.324C132.482 170.66 132.014 171.152 131.678 171.8C131.342 172.448 131.174 173.216 131.174 174.104C131.174 174.992 131.342 175.76 131.678 176.408C132.014 177.056 132.482 177.554 133.082 177.902C133.694 178.25 134.39 178.424 135.17 178.424C135.926 178.424 136.61 178.25 137.222 177.902C137.846 177.542 138.332 177.038 138.68 176.39C139.028 175.73 139.202 174.968 139.202 174.104ZM146.471 171.242C146.711 170.522 147.137 169.976 147.749 169.604C148.361 169.22 149.141 169.028 150.089 169.028V169.874H149.819C148.859 169.874 148.061 170.15 147.425 170.702C146.789 171.242 146.471 172.13 146.471 173.366V179H145.661V169.226H146.471V171.242ZM154.15 174.104C154.15 173.096 154.348 172.214 154.744 171.458C155.152 170.702 155.71 170.12 156.418 169.712C157.138 169.304 157.954 169.1 158.866 169.1C159.898 169.1 160.774 169.352 161.494 169.856C162.226 170.36 162.73 171.002 163.006 171.782V169.226H163.816V183.608H163.006V176.444C162.73 177.224 162.226 177.872 161.494 178.388C160.762 178.892 159.88 179.144 158.848 179.144C157.948 179.144 157.138 178.94 156.418 178.532C155.71 178.112 155.152 177.524 154.744 176.768C154.348 176 154.15 175.112 154.15 174.104ZM163.006 174.104C163.006 173.252 162.826 172.502 162.466 171.854C162.118 171.194 161.638 170.69 161.026 170.342C160.414 169.982 159.73 169.802 158.974 169.802C158.182 169.802 157.486 169.976 156.886 170.324C156.286 170.66 155.818 171.152 155.482 171.8C155.146 172.448 154.978 173.216 154.978 174.104C154.978 174.992 155.146 175.76 155.482 176.408C155.818 177.056 156.286 177.554 156.886 177.902C157.498 178.25 158.194 178.424 158.974 178.424C159.73 178.424 160.414 178.25 161.026 177.902C161.65 177.542 162.136 177.038 162.484 176.39C162.832 175.73 163.006 174.968 163.006 174.104ZM177.727 169.226V179H176.917V176.876C176.641 177.62 176.179 178.19 175.531 178.586C174.895 178.97 174.163 179.162 173.335 179.162C172.171 179.162 171.217 178.808 170.473 178.1C169.741 177.38 169.375 176.318 169.375 174.914V169.226H170.167V174.86C170.167 176.024 170.461 176.918 171.049 177.542C171.637 178.154 172.435 178.46 173.443 178.46C174.499 178.46 175.339 178.124 175.963 177.452C176.599 176.78 176.917 175.784 176.917 174.464V169.226H177.727ZM183.794 167.048C183.602 167.048 183.44 166.988 183.308 166.868C183.176 166.736 183.11 166.562 183.11 166.346C183.11 166.142 183.176 165.974 183.308 165.842C183.44 165.71 183.602 165.644 183.794 165.644C183.986 165.644 184.148 165.71 184.28 165.842C184.412 165.974 184.478 166.142 184.478 166.346C184.478 166.562 184.412 166.736 184.28 166.868C184.148 166.988 183.986 167.048 183.794 167.048ZM184.19 169.226V179H183.38V169.226H184.19ZM191.065 169.928V176.39C191.065 177.11 191.197 177.608 191.461 177.884C191.725 178.148 192.193 178.28 192.865 178.28H193.963V179H192.739C191.887 179 191.257 178.802 190.849 178.406C190.453 177.998 190.255 177.326 190.255 176.39V169.928H188.779V169.226H190.255V166.742H191.065V169.226H193.963V169.928H191.065ZM207.602 173.456C207.602 173.888 207.59 174.212 207.566 174.428H199.124C199.148 175.304 199.34 176.042 199.7 176.642C200.06 177.242 200.534 177.692 201.122 177.992C201.71 178.292 202.352 178.442 203.048 178.442C204.008 178.442 204.812 178.208 205.46 177.74C206.108 177.26 206.516 176.612 206.684 175.796H207.53C207.338 176.792 206.846 177.602 206.054 178.226C205.262 178.838 204.26 179.144 203.048 179.144C202.136 179.144 201.32 178.94 200.6 178.532C199.88 178.124 199.316 177.542 198.908 176.786C198.5 176.018 198.296 175.124 198.296 174.104C198.296 173.084 198.494 172.196 198.89 171.44C199.298 170.684 199.862 170.108 200.582 169.712C201.302 169.304 202.124 169.1 203.048 169.1C203.984 169.1 204.794 169.304 205.478 169.712C206.174 170.108 206.702 170.642 207.062 171.314C207.422 171.974 207.602 172.688 207.602 173.456ZM206.792 173.762C206.828 172.898 206.672 172.166 206.324 171.566C205.988 170.966 205.526 170.522 204.938 170.234C204.35 169.934 203.714 169.784 203.03 169.784C202.346 169.784 201.71 169.934 201.122 170.234C200.546 170.522 200.072 170.966 199.7 171.566C199.34 172.166 199.148 172.898 199.124 173.762H206.792ZM213.956 169.928V176.39C213.956 177.11 214.088 177.608 214.352 177.884C214.616 178.148 215.084 178.28 215.756 178.28H216.854V179H215.63C214.778 179 214.148 178.802 213.74 178.406C213.344 177.998 213.146 177.326 213.146 176.39V169.928H211.67V169.226H213.146V166.742H213.956V169.226H216.854V169.928H213.956ZM229.952 169.226V179H229.142V176.876C228.866 177.62 228.404 178.19 227.756 178.586C227.12 178.97 226.388 179.162 225.56 179.162C224.396 179.162 223.442 178.808 222.698 178.1C221.966 177.38 221.6 176.318 221.6 174.914V169.226H222.392V174.86C222.392 176.024 222.686 176.918 223.274 177.542C223.862 178.154 224.66 178.46 225.668 178.46C226.724 178.46 227.564 178.124 228.188 177.452C228.824 176.78 229.142 175.784 229.142 174.464V169.226H229.952ZM236.415 171.242C236.655 170.522 237.081 169.976 237.693 169.604C238.305 169.22 239.085 169.028 240.033 169.028V169.874H239.763C238.803 169.874 238.005 170.15 237.369 170.702C236.733 171.242 236.415 172.13 236.415 173.366V179H235.605V169.226H236.415V171.242ZM244.094 174.104C244.094 173.096 244.292 172.214 244.688 171.458C245.096 170.702 245.654 170.12 246.362 169.712C247.082 169.304 247.898 169.1 248.81 169.1C249.842 169.1 250.718 169.352 251.438 169.856C252.158 170.36 252.662 171.002 252.95 171.782V169.226H253.76V179H252.95V176.426C252.662 177.218 252.152 177.872 251.42 178.388C250.7 178.892 249.83 179.144 248.81 179.144C247.898 179.144 247.082 178.94 246.362 178.532C245.654 178.112 245.096 177.524 244.688 176.768C244.292 176 244.094 175.112 244.094 174.104ZM252.95 174.104C252.95 173.252 252.77 172.502 252.41 171.854C252.062 171.194 251.582 170.69 250.97 170.342C250.358 169.982 249.674 169.802 248.918 169.802C248.126 169.802 247.43 169.976 246.83 170.324C246.23 170.66 245.762 171.152 245.426 171.8C245.09 172.448 244.922 173.216 244.922 174.104C244.922 174.992 245.09 175.76 245.426 176.408C245.762 177.056 246.23 177.554 246.83 177.902C247.442 178.25 248.138 178.424 248.918 178.424C249.674 178.424 250.358 178.25 250.97 177.902C251.594 177.542 252.08 177.038 252.428 176.39C252.776 175.73 252.95 174.968 252.95 174.104ZM31.1259 196.028C32.2419 196.028 33.1539 196.388 33.8619 197.108C34.5699 197.816 34.9239 198.872 34.9239 200.276V206H34.1319V200.33C34.1319 199.166 33.8499 198.278 33.2859 197.666C32.7339 197.042 31.9719 196.73 30.9999 196.73C29.9919 196.73 29.1819 197.078 28.5699 197.774C27.9579 198.47 27.6519 199.478 27.6519 200.798V206H26.8599V200.33C26.8599 199.166 26.5779 198.278 26.0139 197.666C25.4619 197.042 24.6999 196.73 23.7279 196.73C22.7199 196.73 21.9099 197.078 21.2979 197.774C20.6859 198.47 20.3799 199.478 20.3799 200.798V206H19.5699V196.226H20.3799V198.35C20.6559 197.582 21.0999 197.006 21.7119 196.622C22.3359 196.226 23.0499 196.028 23.8539 196.028C24.7419 196.028 25.5039 196.262 26.1399 196.73C26.7879 197.186 27.2319 197.864 27.4719 198.764C27.6999 197.864 28.1439 197.186 28.8039 196.73C29.4639 196.262 30.2379 196.028 31.1259 196.028ZM44.8005 206.144C43.8885 206.144 43.0665 205.94 42.3345 205.532C41.6025 205.124 41.0265 204.542 40.6065 203.786C40.1985 203.018 39.9945 202.124 39.9945 201.104C39.9945 200.096 40.2045 199.214 40.6245 198.458C41.0445 197.69 41.6205 197.108 42.3525 196.712C43.0965 196.304 43.9245 196.1 44.8365 196.1C45.7485 196.1 46.5705 196.304 47.3025 196.712C48.0345 197.108 48.6045 197.684 49.0125 198.44C49.4325 199.196 49.6425 200.084 49.6425 201.104C49.6425 202.124 49.4325 203.018 49.0125 203.786C48.5925 204.542 48.0105 205.124 47.2665 205.532C46.5345 205.94 45.7125 206.144 44.8005 206.144ZM44.8005 205.424C45.5085 205.424 46.1685 205.268 46.7805 204.956C47.4045 204.632 47.9025 204.146 48.2745 203.498C48.6465 202.85 48.8325 202.052 48.8325 201.104C48.8325 200.168 48.6465 199.376 48.2745 198.728C47.9025 198.08 47.4105 197.6 46.7985 197.288C46.1865 196.964 45.5265 196.802 44.8185 196.802C44.1105 196.802 43.4505 196.964 42.8385 197.288C42.2385 197.6 41.7525 198.08 41.3805 198.728C41.0085 199.376 40.8225 200.168 40.8225 201.104C40.8225 202.052 41.0025 202.85 41.3625 203.498C41.7345 204.146 42.2205 204.632 42.8205 204.956C43.4325 205.268 44.0925 205.424 44.8005 205.424ZM54.296 201.104C54.296 200.096 54.494 199.214 54.89 198.458C55.298 197.702 55.856 197.12 56.564 196.712C57.284 196.304 58.1 196.1 59.012 196.1C60.008 196.1 60.872 196.352 61.604 196.856C62.336 197.348 62.852 197.99 63.152 198.782V192.68H63.962V206H63.152V203.408C62.864 204.212 62.36 204.872 61.64 205.388C60.92 205.892 60.044 206.144 59.012 206.144C58.1 206.144 57.284 205.94 56.564 205.532C55.856 205.112 55.298 204.524 54.89 203.768C54.494 203 54.296 202.112 54.296 201.104ZM63.152 201.104C63.152 200.252 62.972 199.502 62.612 198.854C62.264 198.194 61.784 197.69 61.172 197.342C60.56 196.982 59.876 196.802 59.12 196.802C58.328 196.802 57.632 196.976 57.032 197.324C56.432 197.66 55.964 198.152 55.628 198.8C55.292 199.448 55.124 200.216 55.124 201.104C55.124 201.992 55.292 202.76 55.628 203.408C55.964 204.056 56.432 204.554 57.032 204.902C57.644 205.25 58.34 205.424 59.12 205.424C59.876 205.424 60.56 205.25 61.172 204.902C61.796 204.542 62.282 204.038 62.63 203.39C62.978 202.73 63.152 201.968 63.152 201.104ZM78.4134 200.456C78.4134 200.888 78.4014 201.212 78.3774 201.428H69.9354C69.9594 202.304 70.1514 203.042 70.5114 203.642C70.8714 204.242 71.3454 204.692 71.9334 204.992C72.5214 205.292 73.1634 205.442 73.8594 205.442C74.8194 205.442 75.6234 205.208 76.2714 204.74C76.9194 204.26 77.3274 203.612 77.4954 202.796H78.3414C78.1494 203.792 77.6574 204.602 76.8654 205.226C76.0734 205.838 75.0714 206.144 73.8594 206.144C72.9474 206.144 72.1314 205.94 71.4114 205.532C70.6914 205.124 70.1274 204.542 69.7194 203.786C69.3114 203.018 69.1074 202.124 69.1074 201.104C69.1074 200.084 69.3054 199.196 69.7014 198.44C70.1094 197.684 70.6734 197.108 71.3934 196.712C72.1134 196.304 72.9354 196.1 73.8594 196.1C74.7954 196.1 75.6054 196.304 76.2894 196.712C76.9854 197.108 77.5134 197.642 77.8734 198.314C78.2334 198.974 78.4134 199.688 78.4134 200.456ZM77.6034 200.762C77.6394 199.898 77.4834 199.166 77.1354 198.566C76.7994 197.966 76.3374 197.522 75.7494 197.234C75.1614 196.934 74.5254 196.784 73.8414 196.784C73.1574 196.784 72.5214 196.934 71.9334 197.234C71.3574 197.522 70.8834 197.966 70.5114 198.566C70.1514 199.166 69.9594 199.898 69.9354 200.762H77.6034ZM84.3714 198.242C84.6114 197.522 85.0374 196.976 85.6494 196.604C86.2614 196.22 87.0414 196.028 87.9894 196.028V196.874H87.7194C86.7594 196.874 85.9614 197.15 85.3254 197.702C84.6894 198.242 84.3714 199.13 84.3714 200.366V206H83.5614V196.226H84.3714V198.242ZM96.9643 196.028C98.1283 196.028 99.0763 196.388 99.8083 197.108C100.54 197.816 100.906 198.872 100.906 200.276V206H100.114V200.33C100.114 199.166 99.8203 198.278 99.2323 197.666C98.6443 197.042 97.8463 196.73 96.8383 196.73C95.7823 196.73 94.9363 197.066 94.3003 197.738C93.6763 198.41 93.3643 199.406 93.3643 200.726V206H92.5543V196.226H93.3643V198.296C93.6403 197.564 94.0963 197.006 94.7323 196.622C95.3803 196.226 96.1243 196.028 96.9643 196.028ZM105.965 201.104C105.965 200.096 106.163 199.214 106.559 198.458C106.967 197.702 107.525 197.12 108.233 196.712C108.953 196.304 109.769 196.1 110.681 196.1C111.713 196.1 112.589 196.352 113.309 196.856C114.029 197.36 114.533 198.002 114.821 198.782V196.226H115.631V206H114.821V203.426C114.533 204.218 114.023 204.872 113.291 205.388C112.571 205.892 111.701 206.144 110.681 206.144C109.769 206.144 108.953 205.94 108.233 205.532C107.525 205.112 106.967 204.524 106.559 203.768C106.163 203 105.965 202.112 105.965 201.104ZM114.821 201.104C114.821 200.252 114.641 199.502 114.281 198.854C113.933 198.194 113.453 197.69 112.841 197.342C112.229 196.982 111.545 196.802 110.789 196.802C109.997 196.802 109.301 196.976 108.701 197.324C108.101 197.66 107.633 198.152 107.297 198.8C106.961 199.448 106.793 200.216 106.793 201.104C106.793 201.992 106.961 202.76 107.297 203.408C107.633 204.056 108.101 204.554 108.701 204.902C109.313 205.25 110.009 205.424 110.789 205.424C111.545 205.424 112.229 205.25 112.841 204.902C113.465 204.542 113.951 204.038 114.299 203.39C114.647 202.73 114.821 201.968 114.821 201.104ZM137.863 200.456C137.863 200.888 137.851 201.212 137.827 201.428H129.385C129.409 202.304 129.601 203.042 129.961 203.642C130.321 204.242 130.795 204.692 131.383 204.992C131.971 205.292 132.613 205.442 133.309 205.442C134.269 205.442 135.073 205.208 135.721 204.74C136.369 204.26 136.777 203.612 136.945 202.796H137.791C137.599 203.792 137.107 204.602 136.315 205.226C135.523 205.838 134.521 206.144 133.309 206.144C132.397 206.144 131.581 205.94 130.861 205.532C130.141 205.124 129.577 204.542 129.169 203.786C128.761 203.018 128.557 202.124 128.557 201.104C128.557 200.084 128.755 199.196 129.151 198.44C129.559 197.684 130.123 197.108 130.843 196.712C131.563 196.304 132.385 196.1 133.309 196.1C134.245 196.1 135.055 196.304 135.739 196.712C136.435 197.108 136.963 197.642 137.323 198.314C137.683 198.974 137.863 199.688 137.863 200.456ZM137.053 200.762C137.089 199.898 136.933 199.166 136.585 198.566C136.249 197.966 135.787 197.522 135.199 197.234C134.611 196.934 133.975 196.784 133.291 196.784C132.607 196.784 131.971 196.934 131.383 197.234C130.807 197.522 130.333 197.966 129.961 198.566C129.601 199.166 129.409 199.898 129.385 200.762H137.053ZM150.287 201.104C150.287 200.096 150.485 199.214 150.881 198.458C151.289 197.702 151.847 197.12 152.555 196.712C153.275 196.304 154.091 196.1 155.003 196.1C156.035 196.1 156.911 196.352 157.631 196.856C158.351 197.36 158.855 198.002 159.143 198.782V196.226H159.953V206H159.143V203.426C158.855 204.218 158.345 204.872 157.613 205.388C156.893 205.892 156.023 206.144 155.003 206.144C154.091 206.144 153.275 205.94 152.555 205.532C151.847 205.112 151.289 204.524 150.881 203.768C150.485 203 150.287 202.112 150.287 201.104ZM159.143 201.104C159.143 200.252 158.963 199.502 158.603 198.854C158.255 198.194 157.775 197.69 157.163 197.342C156.551 196.982 155.867 196.802 155.111 196.802C154.319 196.802 153.623 196.976 153.023 197.324C152.423 197.66 151.955 198.152 151.619 198.8C151.283 199.448 151.115 200.216 151.115 201.104C151.115 201.992 151.283 202.76 151.619 203.408C151.955 204.056 152.423 204.554 153.023 204.902C153.635 205.25 154.331 205.424 155.111 205.424C155.867 205.424 156.551 205.25 157.163 204.902C157.787 204.542 158.273 204.038 158.621 203.39C158.969 202.73 159.143 201.968 159.143 201.104ZM166.412 198.242C166.652 197.522 167.078 196.976 167.69 196.604C168.302 196.22 169.082 196.028 170.03 196.028V196.874H169.76C168.8 196.874 168.002 197.15 167.366 197.702C166.73 198.242 166.412 199.13 166.412 200.366V206H165.602V196.226H166.412V198.242ZM175.405 198.242C175.645 197.522 176.071 196.976 176.683 196.604C177.295 196.22 178.075 196.028 179.023 196.028V196.874H178.753C177.793 196.874 176.995 197.15 176.359 197.702C175.723 198.242 175.405 199.13 175.405 200.366V206H174.595V196.226H175.405V198.242ZM187.89 206.144C186.978 206.144 186.156 205.94 185.424 205.532C184.692 205.124 184.116 204.542 183.696 203.786C183.288 203.018 183.084 202.124 183.084 201.104C183.084 200.096 183.294 199.214 183.714 198.458C184.134 197.69 184.71 197.108 185.442 196.712C186.186 196.304 187.014 196.1 187.926 196.1C188.838 196.1 189.66 196.304 190.392 196.712C191.124 197.108 191.694 197.684 192.102 198.44C192.522 199.196 192.732 200.084 192.732 201.104C192.732 202.124 192.522 203.018 192.102 203.786C191.682 204.542 191.1 205.124 190.356 205.532C189.624 205.94 188.802 206.144 187.89 206.144ZM187.89 205.424C188.598 205.424 189.258 205.268 189.87 204.956C190.494 204.632 190.992 204.146 191.364 203.498C191.736 202.85 191.922 202.052 191.922 201.104C191.922 200.168 191.736 199.376 191.364 198.728C190.992 198.08 190.5 197.6 189.888 197.288C189.276 196.964 188.616 196.802 187.908 196.802C187.2 196.802 186.54 196.964 185.928 197.288C185.328 197.6 184.842 198.08 184.47 198.728C184.098 199.376 183.912 200.168 183.912 201.104C183.912 202.052 184.092 202.85 184.452 203.498C184.824 204.146 185.31 204.632 185.91 204.956C186.522 205.268 187.182 205.424 187.89 205.424ZM198.429 194.048C198.237 194.048 198.075 193.988 197.943 193.868C197.811 193.736 197.745 193.562 197.745 193.346C197.745 193.142 197.811 192.974 197.943 192.842C198.075 192.71 198.237 192.644 198.429 192.644C198.621 192.644 198.783 192.71 198.915 192.842C199.059 192.974 199.131 193.142 199.131 193.346C199.131 193.55 199.059 193.718 198.915 193.85C198.783 193.982 198.621 194.048 198.429 194.048ZM198.843 208.52C198.843 209.216 198.669 209.738 198.321 210.086C197.985 210.434 197.445 210.608 196.701 210.608H195.945V209.888H196.611C197.115 209.888 197.475 209.78 197.691 209.564C197.919 209.36 198.033 208.988 198.033 208.448V196.226H198.843V208.52ZM203.988 201.104C203.988 200.096 204.186 199.214 204.582 198.458C204.99 197.702 205.548 197.12 206.256 196.712C206.976 196.304 207.792 196.1 208.704 196.1C209.736 196.1 210.612 196.352 211.332 196.856C212.052 197.36 212.556 198.002 212.844 198.782V196.226H213.654V206H212.844V203.426C212.556 204.218 212.046 204.872 211.314 205.388C210.594 205.892 209.724 206.144 208.704 206.144C207.792 206.144 206.976 205.94 206.256 205.532C205.548 205.112 204.99 204.524 204.582 203.768C204.186 203 203.988 202.112 203.988 201.104ZM212.844 201.104C212.844 200.252 212.664 199.502 212.304 198.854C211.956 198.194 211.476 197.69 210.864 197.342C210.252 196.982 209.568 196.802 208.812 196.802C208.02 196.802 207.324 196.976 206.724 197.324C206.124 197.66 205.656 198.152 205.32 198.8C204.984 199.448 204.816 200.216 204.816 201.104C204.816 201.992 204.984 202.76 205.32 203.408C205.656 204.056 206.124 204.554 206.724 204.902C207.336 205.25 208.032 205.424 208.812 205.424C209.568 205.424 210.252 205.25 210.864 204.902C211.488 204.542 211.974 204.038 212.322 203.39C212.67 202.73 212.844 201.968 212.844 201.104ZM218.799 201.104C218.799 200.096 218.997 199.214 219.393 198.458C219.801 197.702 220.359 197.12 221.067 196.712C221.787 196.304 222.603 196.1 223.515 196.1C224.511 196.1 225.375 196.352 226.107 196.856C226.839 197.348 227.355 197.99 227.655 198.782V192.68H228.465V206H227.655V203.408C227.367 204.212 226.863 204.872 226.143 205.388C225.423 205.892 224.547 206.144 223.515 206.144C222.603 206.144 221.787 205.94 221.067 205.532C220.359 205.112 219.801 204.524 219.393 203.768C218.997 203 218.799 202.112 218.799 201.104ZM227.655 201.104C227.655 200.252 227.475 199.502 227.115 198.854C226.767 198.194 226.287 197.69 225.675 197.342C225.063 196.982 224.379 196.802 223.623 196.802C222.831 196.802 222.135 196.976 221.535 197.324C220.935 197.66 220.467 198.152 220.131 198.8C219.795 199.448 219.627 200.216 219.627 201.104C219.627 201.992 219.795 202.76 220.131 203.408C220.467 204.056 220.935 204.554 221.535 204.902C222.147 205.25 222.843 205.424 223.623 205.424C224.379 205.424 225.063 205.25 225.675 204.902C226.299 204.542 226.785 204.038 227.133 203.39C227.481 202.73 227.655 201.968 227.655 201.104ZM233.61 201.104C233.61 200.096 233.808 199.214 234.204 198.458C234.612 197.702 235.17 197.12 235.878 196.712C236.598 196.304 237.414 196.1 238.326 196.1C239.358 196.1 240.234 196.352 240.954 196.856C241.674 197.36 242.178 198.002 242.466 198.782V196.226H243.276V206H242.466V203.426C242.178 204.218 241.668 204.872 240.936 205.388C240.216 205.892 239.346 206.144 238.326 206.144C237.414 206.144 236.598 205.94 235.878 205.532C235.17 205.112 234.612 204.524 234.204 203.768C233.808 203 233.61 202.112 233.61 201.104ZM242.466 201.104C242.466 200.252 242.286 199.502 241.926 198.854C241.578 198.194 241.098 197.69 240.486 197.342C239.874 196.982 239.19 196.802 238.434 196.802C237.642 196.802 236.946 196.976 236.346 197.324C235.746 197.66 235.278 198.152 234.942 198.8C234.606 199.448 234.438 200.216 234.438 201.104C234.438 201.992 234.606 202.76 234.942 203.408C235.278 204.056 235.746 204.554 236.346 204.902C236.958 205.25 237.654 205.424 238.434 205.424C239.19 205.424 239.874 205.25 240.486 204.902C241.11 204.542 241.596 204.038 241.944 203.39C242.292 202.73 242.466 201.968 242.466 201.104ZM256.202 201.104C256.202 200.096 256.4 199.214 256.796 198.458C257.204 197.702 257.762 197.12 258.47 196.712C259.19 196.304 260.006 196.1 260.918 196.1C261.95 196.1 262.826 196.352 263.546 196.856C264.278 197.36 264.782 198.002 265.058 198.782V196.226H265.868V210.608H265.058V203.444C264.782 204.224 264.278 204.872 263.546 205.388C262.814 205.892 261.932 206.144 260.9 206.144C260 206.144 259.19 205.94 258.47 205.532C257.762 205.112 257.204 204.524 256.796 203.768C256.4 203 256.202 202.112 256.202 201.104ZM265.058 201.104C265.058 200.252 264.878 199.502 264.518 198.854C264.17 198.194 263.69 197.69 263.078 197.342C262.466 196.982 261.782 196.802 261.026 196.802C260.234 196.802 259.538 196.976 258.938 197.324C258.338 197.66 257.87 198.152 257.534 198.8C257.198 199.448 257.03 200.216 257.03 201.104C257.03 201.992 257.198 202.76 257.534 203.408C257.87 204.056 258.338 204.554 258.938 204.902C259.55 205.25 260.246 205.424 261.026 205.424C261.782 205.424 262.466 205.25 263.078 204.902C263.702 204.542 264.188 204.038 264.536 203.39C264.884 202.73 265.058 201.968 265.058 201.104ZM279.779 196.226V206H278.969V203.876C278.693 204.62 278.231 205.19 277.583 205.586C276.947 205.97 276.215 206.162 275.387 206.162C274.223 206.162 273.269 205.808 272.525 205.1C271.793 204.38 271.427 203.318 271.427 201.914V196.226H272.219V201.86C272.219 203.024 272.513 203.918 273.101 204.542C273.689 205.154 274.487 205.46 275.495 205.46C276.551 205.46 277.391 205.124 278.015 204.452C278.651 203.78 278.969 202.784 278.969 201.464V196.226H279.779ZM294.234 200.456C294.234 200.888 294.222 201.212 294.198 201.428H285.756C285.78 202.304 285.972 203.042 286.332 203.642C286.692 204.242 287.166 204.692 287.754 204.992C288.342 205.292 288.984 205.442 289.68 205.442C290.64 205.442 291.444 205.208 292.092 204.74C292.74 204.26 293.148 203.612 293.316 202.796H294.162C293.97 203.792 293.478 204.602 292.686 205.226C291.894 205.838 290.892 206.144 289.68 206.144C288.768 206.144 287.952 205.94 287.232 205.532C286.512 205.124 285.948 204.542 285.54 203.786C285.132 203.018 284.928 202.124 284.928 201.104C284.928 200.084 285.126 199.196 285.522 198.44C285.93 197.684 286.494 197.108 287.214 196.712C287.934 196.304 288.756 196.1 289.68 196.1C290.616 196.1 291.426 196.304 292.11 196.712C292.806 197.108 293.334 197.642 293.694 198.314C294.054 198.974 294.234 199.688 294.234 200.456ZM293.424 200.762C293.46 199.898 293.304 199.166 292.956 198.566C292.62 197.966 292.158 197.522 291.57 197.234C290.982 196.934 290.346 196.784 289.662 196.784C288.978 196.784 288.342 196.934 287.754 197.234C287.178 197.522 286.704 197.966 286.332 198.566C285.972 199.166 285.78 199.898 285.756 200.762H293.424ZM119.822 227.456C119.822 227.888 119.81 228.212 119.786 228.428H111.344C111.368 229.304 111.56 230.042 111.92 230.642C112.28 231.242 112.754 231.692 113.342 231.992C113.93 232.292 114.572 232.442 115.268 232.442C116.228 232.442 117.032 232.208 117.68 231.74C118.328 231.26 118.736 230.612 118.904 229.796H119.75C119.558 230.792 119.066 231.602 118.274 232.226C117.482 232.838 116.48 233.144 115.268 233.144C114.356 233.144 113.54 232.94 112.82 232.532C112.1 232.124 111.536 231.542 111.128 230.786C110.72 230.018 110.516 229.124 110.516 228.104C110.516 227.084 110.714 226.196 111.11 225.44C111.518 224.684 112.082 224.108 112.802 223.712C113.522 223.304 114.344 223.1 115.268 223.1C116.204 223.1 117.014 223.304 117.698 223.712C118.394 224.108 118.922 224.642 119.282 225.314C119.642 225.974 119.822 226.688 119.822 227.456ZM119.012 227.762C119.048 226.898 118.892 226.166 118.544 225.566C118.208 224.966 117.746 224.522 117.158 224.234C116.57 223.934 115.934 223.784 115.25 223.784C114.566 223.784 113.93 223.934 113.342 224.234C112.766 224.522 112.292 224.966 111.92 225.566C111.56 226.166 111.368 226.898 111.344 227.762H119.012ZM129.38 223.028C130.544 223.028 131.492 223.388 132.224 224.108C132.956 224.816 133.322 225.872 133.322 227.276V233H132.53V227.33C132.53 226.166 132.236 225.278 131.648 224.666C131.06 224.042 130.262 223.73 129.254 223.73C128.198 223.73 127.352 224.066 126.716 224.738C126.092 225.41 125.78 226.406 125.78 227.726V233H124.97V223.226H125.78V225.296C126.056 224.564 126.512 224.006 127.148 223.622C127.796 223.226 128.54 223.028 129.38 223.028ZM138.381 228.104C138.381 227.084 138.579 226.196 138.975 225.44C139.383 224.684 139.941 224.108 140.649 223.712C141.369 223.304 142.191 223.1 143.115 223.1C144.339 223.1 145.341 223.406 146.121 224.018C146.913 224.63 147.405 225.452 147.597 226.484H146.751C146.595 225.644 146.187 224.984 145.527 224.504C144.879 224.024 144.075 223.784 143.115 223.784C142.395 223.784 141.741 223.946 141.153 224.27C140.565 224.582 140.091 225.068 139.731 225.728C139.383 226.376 139.209 227.168 139.209 228.104C139.209 229.052 139.383 229.85 139.731 230.498C140.091 231.146 140.565 231.632 141.153 231.956C141.741 232.28 142.395 232.442 143.115 232.442C144.075 232.442 144.879 232.202 145.527 231.722C146.187 231.242 146.595 230.582 146.751 229.742H147.597C147.405 230.762 146.913 231.584 146.121 232.208C145.329 232.832 144.327 233.144 143.115 233.144C142.191 233.144 141.369 232.94 140.649 232.532C139.941 232.124 139.383 231.542 138.975 230.786C138.579 230.018 138.381 229.124 138.381 228.104ZM152.261 228.104C152.261 227.096 152.459 226.214 152.855 225.458C153.263 224.702 153.821 224.12 154.529 223.712C155.249 223.304 156.065 223.1 156.977 223.1C158.009 223.1 158.885 223.352 159.605 223.856C160.325 224.36 160.829 225.002 161.117 225.782V223.226H161.927V233H161.117V230.426C160.829 231.218 160.319 231.872 159.587 232.388C158.867 232.892 157.997 233.144 156.977 233.144C156.065 233.144 155.249 232.94 154.529 232.532C153.821 232.112 153.263 231.524 152.855 230.768C152.459 230 152.261 229.112 152.261 228.104ZM161.117 228.104C161.117 227.252 160.937 226.502 160.577 225.854C160.229 225.194 159.749 224.69 159.137 224.342C158.525 223.982 157.841 223.802 157.085 223.802C156.293 223.802 155.597 223.976 154.997 224.324C154.397 224.66 153.929 225.152 153.593 225.8C153.257 226.448 153.089 227.216 153.089 228.104C153.089 228.992 153.257 229.76 153.593 230.408C153.929 231.056 154.397 231.554 154.997 231.902C155.609 232.25 156.305 232.424 157.085 232.424C157.841 232.424 158.525 232.25 159.137 231.902C159.761 231.542 160.247 231.038 160.595 230.39C160.943 229.73 161.117 228.968 161.117 228.104ZM171.986 223.028C173.15 223.028 174.098 223.388 174.83 224.108C175.562 224.816 175.928 225.872 175.928 227.276V233H175.136V227.33C175.136 226.166 174.842 225.278 174.254 224.666C173.666 224.042 172.868 223.73 171.86 223.73C170.804 223.73 169.958 224.066 169.322 224.738C168.698 225.41 168.386 226.406 168.386 227.726V233H167.576V223.226H168.386V225.296C168.662 224.564 169.118 224.006 169.754 223.622C170.402 223.226 171.146 223.028 171.986 223.028ZM182.697 223.928V230.39C182.697 231.11 182.829 231.608 183.093 231.884C183.357 232.148 183.825 232.28 184.497 232.28H185.595V233H184.371C183.519 233 182.889 232.802 182.481 232.406C182.085 231.998 181.887 231.326 181.887 230.39V223.928H180.411V223.226H181.887V220.742H182.697V223.226H185.595V223.928H182.697ZM189.927 228.104C189.927 227.096 190.125 226.214 190.521 225.458C190.929 224.702 191.487 224.12 192.195 223.712C192.915 223.304 193.731 223.1 194.643 223.1C195.675 223.1 196.551 223.352 197.271 223.856C197.991 224.36 198.495 225.002 198.783 225.782V223.226H199.593V233H198.783V230.426C198.495 231.218 197.985 231.872 197.253 232.388C196.533 232.892 195.663 233.144 194.643 233.144C193.731 233.144 192.915 232.94 192.195 232.532C191.487 232.112 190.929 231.524 190.521 230.768C190.125 230 189.927 229.112 189.927 228.104ZM198.783 228.104C198.783 227.252 198.603 226.502 198.243 225.854C197.895 225.194 197.415 224.69 196.803 224.342C196.191 223.982 195.507 223.802 194.751 223.802C193.959 223.802 193.263 223.976 192.663 224.324C192.063 224.66 191.595 225.152 191.259 225.8C190.923 226.448 190.755 227.216 190.755 228.104C190.755 228.992 190.923 229.76 191.259 230.408C191.595 231.056 192.063 231.554 192.663 231.902C193.275 232.25 193.971 232.424 194.751 232.424C195.507 232.424 196.191 232.25 196.803 231.902C197.427 231.542 197.913 231.038 198.261 230.39C198.609 229.73 198.783 228.968 198.783 228.104ZM205.116 233.054C204.912 233.054 204.744 232.988 204.612 232.856C204.48 232.724 204.414 232.556 204.414 232.352C204.414 232.148 204.48 231.98 204.612 231.848C204.744 231.716 204.912 231.65 205.116 231.65C205.308 231.65 205.47 231.716 205.602 231.848C205.734 231.98 205.8 232.148 205.8 232.352C205.8 232.556 205.734 232.724 205.602 232.856C205.47 232.988 205.308 233.054 205.116 233.054Z" fill="black"/>
<defs>
<filter id="filter0_d_241_210" x="0" y="0" width="326" height="282" filterUnits="userSpaceOnUse" color-interpolation-filters="sRGB">
<feFlood flood-opacity="0" result="BackgroundImageFix"/>
<feColorMatrix in="SourceAlpha" type="matrix" values="0 0 0 0 0 0 0 0 0 0 0 0 0 0 0 0 0 0 127 0" result="hardAlpha"/>
<feOffset dx="7" dy="4"/>
<feGaussianBlur stdDeviation="2"/>
<feComposite in2="hardAlpha" operator="out"/>
<feColorMatrix type="matrix" values="0 0 0 0 0 0 0 0 0 0 0 0 0 0 0 0 0 0 0.25 0"/>
<feBlend mode="normal" in2="BackgroundImageFix" result="effect1_dropShadow_241_210"/>
<feBlend mode="normal" in="SourceGraphic" in2="effect1_dropShadow_241_210" result="shape"/>
</filter>
<filter id="filter1_d_241_210" x="133" y="30" width="60" height="62" filterUnits="userSpaceOnUse" color-interpolation-filters="sRGB">
<feFlood flood-opacity="0" result="BackgroundImageFix"/>
<feColorMatrix in="SourceAlpha" type="matrix" values="0 0 0 0 0 0 0 0 0 0 0 0 0 0 0 0 0 0 127 0" result="hardAlpha"/>
<feOffset dx="6" dy="2"/>
<feGaussianBlur stdDeviation="2"/>
<feComposite in2="hardAlpha" operator="out"/>
<feColorMatrix type="matrix" values="0 0 0 0 0 0 0 0 0 0 0 0 0 0 0 0 0 0 0.25 0"/>
<feBlend mode="normal" in2="BackgroundImageFix" result="effect1_dropShadow_241_210"/>
<feBlend mode="normal" in="SourceGraphic" in2="effect1_dropShadow_241_210" result="shape"/>
</filter>
<clipPath id="clip0_241_210">
<rect width="50" height="54" fill="white" transform="translate(133 32)"/>
</clipPath>
</defs>
</svg>
