<svg width="326" height="261" viewBox="0 0 326 261" fill="none" xmlns="http://www.w3.org/2000/svg">
<g filter="url(#filter0_d_654_12)">
<rect width="315" height="253" rx="5" fill="#D9D9D9" fill-opacity="0.75" shape-rendering="crispEdges"/>
</g>
<g filter="url(#filter1_d_654_12)">
<path d="M135.4 67.4001V63.8001C135.4 61.8905 136.159 60.0592 137.509 58.7089C138.859 57.3587 140.69 56.6001 142.6 56.6001H171.4C173.31 56.6001 175.141 57.3587 176.491 58.7089C177.841 60.0592 178.6 61.8905 178.6 63.8001V67.4001C178.6 69.3097 177.841 71.141 176.491 72.4913C175.141 73.8415 173.31 74.6001 171.4 74.6001H142.6C140.69 74.6001 138.859 73.8415 137.509 72.4913C136.159 71.141 135.4 69.3097 135.4 67.4001V67.4001ZM142.6 71.0001H171.4C172.355 71.0001 173.27 70.6208 173.946 69.9457C174.621 69.2706 175 68.3549 175 67.4001V63.8001C175 62.8453 174.621 61.9296 173.946 61.2545C173.27 60.5794 172.355 60.2001 171.4 60.2001H142.6C141.645 60.2001 140.73 60.5794 140.054 61.2545C139.379 61.9296 139 62.8453 139 63.8001V67.4001C139 68.3549 139.379 69.2706 140.054 69.9457C140.73 70.6208 141.645 71.0001 142.6 71.0001ZM135.4 42.2001C135.4 44.1097 136.159 45.941 137.509 47.2913C138.859 48.6415 140.69 49.4001 142.6 49.4001H171.4C173.31 49.4001 175.141 48.6415 176.491 47.2913C177.841 45.941 178.6 44.1097 178.6 42.2001V38.6001C178.6 36.6905 177.841 34.8592 176.491 33.5089C175.141 32.1587 173.31 31.4001 171.4 31.4001H142.6C140.69 31.4001 138.859 32.1587 137.509 33.5089C136.159 34.8592 135.4 36.6905 135.4 38.6001V42.2001ZM142.6 45.8001C141.645 45.8001 140.73 45.4208 140.054 44.7457C139.379 44.0705 139 43.1549 139 42.2001V38.6001C139 37.6453 139.379 36.7296 140.054 36.0545C140.73 35.3794 141.645 35.0001 142.6 35.0001H171.4C172.355 35.0001 173.27 35.3794 173.946 36.0545C174.621 36.7296 175 37.6453 175 38.6001V42.2001C175 43.1549 174.621 44.0705 173.946 44.7457C173.27 45.4208 172.355 45.8001 171.4 45.8001H142.6Z" fill="black"/>
</g>
<path d="M64.2827 98.571V104.437H70.2386V105.741H64.2827V111.696H70.9129V113H62.7094V97.2674H70.9129V98.571H64.2827ZM81.4971 113.18C80.0886 113.18 78.9349 112.858 78.0359 112.213C77.1519 111.554 76.6574 110.663 76.5525 109.539H78.1707C78.2457 110.228 78.5678 110.79 79.1372 111.224C79.7215 111.644 80.5007 111.854 81.4746 111.854C82.3286 111.854 82.9954 111.651 83.4749 111.247C83.9693 110.842 84.2165 110.34 84.2165 109.741C84.2165 109.322 84.0817 108.977 83.812 108.707C83.5423 108.438 83.1977 108.228 82.7781 108.078C82.3736 107.913 81.8192 107.741 81.115 107.561C80.201 107.321 79.4593 107.082 78.8899 106.842C78.3206 106.602 77.8336 106.25 77.4291 105.785C77.0395 105.306 76.8447 104.669 76.8447 103.875C76.8447 103.276 77.0245 102.721 77.3841 102.212C77.7437 101.703 78.2532 101.298 78.9124 100.998C79.5717 100.699 80.3209 100.549 81.1599 100.549C82.4785 100.549 83.5423 100.886 84.3514 101.56C85.1605 102.219 85.595 103.133 85.655 104.302H84.0817C84.0367 103.583 83.7521 103.006 83.2276 102.572C82.7182 102.122 82.014 101.897 81.115 101.897C80.3209 101.897 79.6766 102.085 79.1821 102.459C78.6877 102.834 78.4404 103.298 78.4404 103.853C78.4404 104.332 78.5828 104.729 78.8675 105.044C79.1671 105.343 79.5342 105.583 79.9688 105.763C80.4033 105.928 80.9876 106.115 81.7218 106.325C82.6058 106.565 83.3101 106.797 83.8345 107.022C84.3589 107.246 84.8084 107.576 85.183 108.011C85.5576 108.445 85.7523 109.022 85.7673 109.741C85.7673 110.4 85.5875 110.992 85.2279 111.517C84.8683 112.026 84.3664 112.431 83.7221 112.73C83.0778 113.03 82.3361 113.18 81.4971 113.18ZM93.5385 103.426C93.928 102.602 94.5423 101.92 95.3814 101.38C96.2355 100.826 97.2468 100.549 98.4155 100.549C99.5243 100.549 100.521 100.811 101.405 101.335C102.304 101.845 103 102.579 103.495 103.538C104.004 104.482 104.259 105.583 104.259 106.842C104.259 108.1 104.004 109.209 103.495 110.168C103 111.127 102.304 111.869 101.405 112.393C100.521 112.918 99.5243 113.18 98.4155 113.18C97.2618 113.18 96.2579 112.91 95.4039 112.371C94.5498 111.816 93.928 111.127 93.5385 110.303V118.799H91.9877V100.729H93.5385V103.426ZM102.663 106.842C102.663 105.823 102.461 104.946 102.057 104.212C101.667 103.463 101.128 102.894 100.438 102.504C99.7491 102.115 98.9699 101.92 98.1009 101.92C97.2618 101.92 96.4902 102.122 95.786 102.527C95.0967 102.931 94.5498 103.508 94.1453 104.257C93.7407 105.006 93.5385 105.875 93.5385 106.864C93.5385 107.853 93.7407 108.722 94.1453 109.471C94.5498 110.221 95.0967 110.797 95.786 111.202C96.4902 111.607 97.2618 111.809 98.1009 111.809C98.9699 111.809 99.7491 111.614 100.438 111.224C101.128 110.82 101.667 110.243 102.057 109.494C102.461 108.73 102.663 107.846 102.663 106.842ZM109.694 106.842C109.694 105.583 109.941 104.482 110.435 103.538C110.945 102.579 111.642 101.845 112.526 101.335C113.425 100.811 114.436 100.549 115.56 100.549C116.728 100.549 117.732 100.818 118.571 101.358C119.425 101.897 120.04 102.587 120.414 103.426V100.729H121.988V113H120.414V110.281C120.025 111.12 119.403 111.816 118.549 112.371C117.71 112.91 116.706 113.18 115.537 113.18C114.428 113.18 113.425 112.918 112.526 112.393C111.642 111.869 110.945 111.127 110.435 110.168C109.941 109.209 109.694 108.1 109.694 106.842ZM120.414 106.864C120.414 105.875 120.212 105.006 119.807 104.257C119.403 103.508 118.849 102.931 118.144 102.527C117.455 102.122 116.691 101.92 115.852 101.92C114.983 101.92 114.204 102.115 113.514 102.504C112.825 102.894 112.278 103.463 111.874 104.212C111.484 104.946 111.289 105.823 111.289 106.842C111.289 107.846 111.484 108.73 111.874 109.494C112.278 110.243 112.825 110.82 113.514 111.224C114.204 111.614 114.983 111.809 115.852 111.809C116.691 111.809 117.455 111.607 118.144 111.202C118.849 110.797 119.403 110.221 119.807 109.471C120.212 108.722 120.414 107.853 120.414 106.864ZM134.075 111.854C135.109 111.854 135.97 111.607 136.659 111.112C137.364 110.603 137.821 109.898 138.03 108.999H139.716C139.446 110.183 138.862 111.15 137.963 111.899C137.079 112.648 135.955 113.067 134.592 113.157V114.506C135.476 114.476 136.172 114.641 136.682 115C137.206 115.375 137.469 115.907 137.469 116.596C137.469 117.27 137.229 117.802 136.749 118.192C136.27 118.596 135.633 118.799 134.839 118.799H132.591V117.742H134.524C135.079 117.742 135.483 117.645 135.738 117.45C136.008 117.27 136.142 116.986 136.142 116.596C136.142 115.877 135.603 115.517 134.524 115.517H133.49V113.157C132.442 113.067 131.513 112.76 130.703 112.236C129.894 111.696 129.258 110.97 128.793 110.056C128.344 109.127 128.119 108.063 128.119 106.864C128.119 105.591 128.374 104.482 128.883 103.538C129.392 102.579 130.097 101.845 130.996 101.335C131.895 100.811 132.921 100.549 134.075 100.549C135.588 100.549 136.832 100.923 137.806 101.673C138.795 102.422 139.431 103.441 139.716 104.729H138.03C137.821 103.845 137.364 103.156 136.659 102.661C135.97 102.152 135.109 101.897 134.075 101.897C133.251 101.897 132.509 102.085 131.85 102.459C131.19 102.834 130.666 103.396 130.276 104.145C129.902 104.879 129.715 105.785 129.715 106.864C129.715 107.943 129.902 108.857 130.276 109.606C130.666 110.355 131.19 110.917 131.85 111.292C132.509 111.666 133.251 111.854 134.075 111.854ZM151.252 113.18C150.098 113.18 149.057 112.925 148.128 112.416C147.214 111.891 146.487 111.157 145.948 110.213C145.424 109.254 145.161 108.138 145.161 106.864C145.161 105.591 145.431 104.482 145.97 103.538C146.51 102.579 147.244 101.845 148.173 101.335C149.102 100.811 150.143 100.549 151.297 100.549C152.451 100.549 153.492 100.811 154.421 101.335C155.365 101.845 156.099 102.579 156.624 103.538C157.163 104.482 157.433 105.591 157.433 106.864C157.433 108.123 157.163 109.232 156.624 110.191C156.084 111.15 155.343 111.891 154.399 112.416C153.455 112.925 152.406 113.18 151.252 113.18ZM151.252 111.809C152.061 111.809 152.81 111.629 153.5 111.269C154.189 110.895 154.743 110.34 155.163 109.606C155.597 108.857 155.815 107.943 155.815 106.864C155.815 105.785 155.605 104.879 155.185 104.145C154.766 103.396 154.211 102.841 153.522 102.482C152.833 102.107 152.084 101.92 151.275 101.92C150.465 101.92 149.716 102.107 149.027 102.482C148.338 102.841 147.783 103.396 147.364 104.145C146.959 104.879 146.757 105.785 146.757 106.864C146.757 107.943 146.959 108.857 147.364 109.606C147.783 110.34 148.33 110.895 149.005 111.269C149.694 111.629 150.443 111.809 151.252 111.809ZM181.481 97.2899V98.5935H174.559V104.459H180.403V105.763H174.559V113H172.986V97.2899H181.481ZM188.902 96.3684V113H187.329V96.3684H188.902ZM206.826 106.235C206.826 106.774 206.811 107.186 206.781 107.471H196.6C196.645 108.4 196.87 109.194 197.274 109.853C197.679 110.513 198.211 111.015 198.87 111.359C199.529 111.689 200.248 111.854 201.028 111.854C202.046 111.854 202.901 111.607 203.59 111.112C204.294 110.618 204.758 109.951 204.983 109.112H206.646C206.347 110.31 205.702 111.292 204.713 112.056C203.74 112.805 202.511 113.18 201.028 113.18C199.874 113.18 198.84 112.925 197.926 112.416C197.012 111.891 196.293 111.157 195.768 110.213C195.259 109.254 195.004 108.138 195.004 106.864C195.004 105.591 195.259 104.474 195.768 103.516C196.278 102.557 196.99 101.822 197.904 101.313C198.818 100.804 199.859 100.549 201.028 100.549C202.196 100.549 203.215 100.804 204.084 101.313C204.968 101.822 205.642 102.512 206.107 103.381C206.586 104.235 206.826 105.186 206.826 106.235ZM205.23 106.19C205.245 105.276 205.058 104.497 204.669 103.853C204.294 103.208 203.777 102.721 203.118 102.392C202.458 102.062 201.739 101.897 200.96 101.897C199.791 101.897 198.795 102.272 197.971 103.021C197.147 103.77 196.69 104.827 196.6 106.19H205.23ZM219.391 113L216.222 108.055L213.166 113H211.503L215.458 106.864L211.548 100.729H213.323L216.447 105.606L219.481 100.729H221.122L217.211 106.797L221.167 113H219.391ZM228.133 100.729V113H226.56V100.729H228.133ZM229.414 97.1101L224.807 99.7846V98.571L229.414 95.6942V97.1101ZM239.315 111.472L243.45 100.729H245.114L240.192 113H238.416L233.494 100.729H235.18L239.315 111.472ZM261.607 106.235C261.607 106.774 261.592 107.186 261.563 107.471H251.381C251.426 108.4 251.651 109.194 252.056 109.853C252.46 110.513 252.992 111.015 253.651 111.359C254.311 111.689 255.03 111.854 255.809 111.854C256.828 111.854 257.682 111.607 258.371 111.112C259.075 110.618 259.54 109.951 259.765 109.112H261.428C261.128 110.31 260.484 111.292 259.495 112.056C258.521 112.805 257.292 113.18 255.809 113.18C254.655 113.18 253.621 112.925 252.707 112.416C251.793 111.891 251.074 111.157 250.55 110.213C250.04 109.254 249.786 108.138 249.786 106.864C249.786 105.591 250.04 104.474 250.55 103.516C251.059 102.557 251.771 101.822 252.685 101.313C253.599 100.804 254.64 100.549 255.809 100.549C256.978 100.549 257.996 100.804 258.866 101.313C259.75 101.822 260.424 102.512 260.888 103.381C261.368 104.235 261.607 105.186 261.607 106.235ZM260.012 106.19C260.027 105.276 259.839 104.497 259.45 103.853C259.075 103.208 258.558 102.721 257.899 102.392C257.24 102.062 256.521 101.897 255.741 101.897C254.573 101.897 253.576 102.272 252.752 103.021C251.928 103.77 251.471 104.827 251.381 106.19H260.012ZM269.318 96.3684V113H267.745V96.3684H269.318Z" fill="black"/>
<path d="M57.8869 154.602H51.6002L50.3353 158H49.4102L54.281 145.049H55.2249L60.0769 158H59.1518L57.8869 154.602ZM57.6226 153.884L54.753 146.163L51.8645 153.884H57.6226ZM73.4655 157.075L77.2414 147.749H78.1475L73.8998 158H73.0124L68.7646 147.749H69.6897L73.4655 157.075ZM90.4803 152.185C90.4803 152.638 90.4677 152.978 90.4426 153.205H81.5883C81.6134 154.123 81.8148 154.898 82.1924 155.527C82.57 156.156 83.0671 156.628 83.6838 156.943C84.3006 157.257 84.9739 157.415 85.7039 157.415C86.7108 157.415 87.5541 157.169 88.2337 156.678C88.9134 156.175 89.3413 155.495 89.5175 154.64H90.4048C90.2034 155.684 89.6874 156.534 88.8567 157.188C88.026 157.83 86.9751 158.151 85.7039 158.151C84.7474 158.151 83.8915 157.937 83.1364 157.509C82.3812 157.081 81.7896 156.471 81.3617 155.678C80.9338 154.872 80.7198 153.935 80.7198 152.865C80.7198 151.795 80.9275 150.864 81.3428 150.071C81.7708 149.278 82.3623 148.674 83.1175 148.258C83.8726 147.83 84.7348 147.617 85.7039 147.617C86.6856 147.617 87.5352 147.83 88.2526 148.258C88.9826 148.674 89.5364 149.234 89.9139 149.939C90.2915 150.631 90.4803 151.38 90.4803 152.185ZM89.6308 152.506C89.6685 151.6 89.5049 150.832 89.1399 150.203C88.7875 149.574 88.3029 149.108 87.6862 148.806C87.0695 148.491 86.4024 148.334 85.685 148.334C84.9676 148.334 84.3006 148.491 83.6838 148.806C83.0797 149.108 82.5826 149.574 82.1924 150.203C81.8148 150.832 81.6134 151.6 81.5883 152.506H89.6308ZM95.1246 149.863C95.3763 149.108 95.8231 148.535 96.465 148.145C97.1069 147.742 97.925 147.541 98.9193 147.541V148.428H98.6361C97.6292 148.428 96.7922 148.718 96.1252 149.297C95.4581 149.863 95.1246 150.794 95.1246 152.091V158H94.275V147.749H95.1246V149.863ZM105.52 158.151C104.374 158.151 103.437 157.899 102.707 157.396C101.989 156.892 101.586 156.175 101.498 155.244H102.367C102.43 155.911 102.732 156.439 103.273 156.829C103.827 157.22 104.576 157.415 105.52 157.415C106.3 157.415 106.917 157.22 107.37 156.829C107.835 156.427 108.068 155.936 108.068 155.357C108.068 154.954 107.942 154.627 107.691 154.375C107.452 154.111 107.149 153.91 106.784 153.771C106.419 153.633 105.922 153.482 105.293 153.318C104.538 153.117 103.927 152.922 103.462 152.733C102.996 152.531 102.6 152.236 102.272 151.845C101.945 151.455 101.782 150.933 101.782 150.278C101.782 149.8 101.926 149.36 102.216 148.957C102.505 148.542 102.908 148.214 103.424 147.975C103.94 147.736 104.525 147.617 105.18 147.617C106.25 147.617 107.112 147.887 107.766 148.428C108.433 148.957 108.792 149.693 108.842 150.637H107.993C107.955 149.958 107.691 149.404 107.2 148.976C106.709 148.548 106.029 148.334 105.161 148.334C104.431 148.334 103.827 148.523 103.348 148.9C102.87 149.278 102.631 149.737 102.631 150.278C102.631 150.757 102.763 151.147 103.028 151.449C103.304 151.738 103.638 151.965 104.028 152.129C104.431 152.28 104.959 152.443 105.614 152.619C106.331 152.808 106.904 152.997 107.332 153.186C107.772 153.362 108.144 153.626 108.446 153.979C108.748 154.319 108.899 154.778 108.899 155.357C108.899 155.886 108.754 156.364 108.465 156.792C108.175 157.22 107.772 157.553 107.256 157.792C106.74 158.031 106.161 158.151 105.52 158.151ZM112.185 152.865C112.185 151.808 112.393 150.883 112.808 150.09C113.236 149.297 113.821 148.686 114.564 148.258C115.319 147.83 116.175 147.617 117.132 147.617C118.214 147.617 119.133 147.881 119.888 148.409C120.643 148.938 121.172 149.611 121.474 150.429V147.749H122.323V158H121.474V155.3C121.172 156.131 120.637 156.817 119.869 157.358C119.114 157.887 118.201 158.151 117.132 158.151C116.175 158.151 115.319 157.937 114.564 157.509C113.821 157.069 113.236 156.452 112.808 155.659C112.393 154.853 112.185 153.922 112.185 152.865ZM121.474 152.865C121.474 151.971 121.285 151.185 120.907 150.505C120.542 149.813 120.039 149.284 119.397 148.919C118.755 148.542 118.038 148.353 117.245 148.353C116.414 148.353 115.684 148.535 115.055 148.9C114.426 149.253 113.935 149.769 113.582 150.448C113.23 151.128 113.054 151.934 113.054 152.865C113.054 153.796 113.23 154.602 113.582 155.281C113.935 155.961 114.426 156.483 115.055 156.848C115.697 157.213 116.427 157.396 117.245 157.396C118.038 157.396 118.755 157.213 119.397 156.848C120.052 156.471 120.561 155.942 120.926 155.263C121.291 154.57 121.474 153.771 121.474 152.865ZM127.909 148.485V155.263C127.909 156.018 128.047 156.54 128.324 156.829C128.601 157.106 129.092 157.245 129.797 157.245H130.948V158H129.664C128.771 158 128.11 157.792 127.682 157.377C127.267 156.949 127.059 156.244 127.059 155.263V148.485H125.511V147.749H127.059V145.143H127.909V147.749H130.948V148.485H127.909ZM134.85 145.464C134.649 145.464 134.479 145.401 134.34 145.275C134.202 145.137 134.133 144.955 134.133 144.728C134.133 144.514 134.202 144.338 134.34 144.199C134.479 144.061 134.649 143.992 134.85 143.992C135.052 143.992 135.221 144.061 135.36 144.199C135.498 144.338 135.568 144.514 135.568 144.728C135.568 144.955 135.498 145.137 135.36 145.275C135.221 145.401 135.052 145.464 134.85 145.464ZM135.265 147.749V158H134.416V147.749H135.265ZM140.457 144.029V158H139.607V144.029H140.457ZM145.232 145.464C145.031 145.464 144.861 145.401 144.722 145.275C144.584 145.137 144.515 144.955 144.515 144.728C144.515 144.514 144.584 144.338 144.722 144.199C144.861 144.061 145.031 143.992 145.232 143.992C145.434 143.992 145.603 144.061 145.742 144.199C145.88 144.338 145.95 144.514 145.95 144.728C145.95 144.955 145.88 145.137 145.742 145.275C145.603 145.401 145.434 145.464 145.232 145.464ZM145.648 147.749V158H144.798V147.749H145.648ZM149.46 152.865C149.46 151.808 149.668 150.883 150.083 150.09C150.511 149.297 151.097 148.686 151.839 148.258C152.594 147.83 153.45 147.617 154.407 147.617C155.451 147.617 156.358 147.881 157.125 148.409C157.893 148.925 158.434 149.599 158.749 150.429V144.029H159.598V158H158.749V155.281C158.447 156.125 157.918 156.817 157.163 157.358C156.408 157.887 155.489 158.151 154.407 158.151C153.45 158.151 152.594 157.937 151.839 157.509C151.097 157.069 150.511 156.452 150.083 155.659C149.668 154.853 149.46 153.922 149.46 152.865ZM158.749 152.865C158.749 151.971 158.56 151.185 158.182 150.505C157.818 149.813 157.314 149.284 156.672 148.919C156.03 148.542 155.313 148.353 154.52 148.353C153.689 148.353 152.959 148.535 152.33 148.9C151.701 149.253 151.21 149.769 150.857 150.448C150.505 151.128 150.329 151.934 150.329 152.865C150.329 153.796 150.505 154.602 150.857 155.281C151.21 155.961 151.701 156.483 152.33 156.848C152.972 157.213 153.702 157.396 154.52 157.396C155.313 157.396 156.03 157.213 156.672 156.848C157.327 156.471 157.836 155.942 158.201 155.263C158.566 154.57 158.749 153.771 158.749 152.865ZM163.39 152.865C163.39 151.808 163.598 150.883 164.013 150.09C164.441 149.297 165.027 148.686 165.769 148.258C166.524 147.83 167.38 147.617 168.337 147.617C169.419 147.617 170.338 147.881 171.093 148.409C171.848 148.938 172.377 149.611 172.679 150.429V147.749H173.528V158H172.679V155.3C172.377 156.131 171.842 156.817 171.074 157.358C170.319 157.887 169.406 158.151 168.337 158.151C167.38 158.151 166.524 157.937 165.769 157.509C165.027 157.069 164.441 156.452 164.013 155.659C163.598 154.853 163.39 153.922 163.39 152.865ZM172.679 152.865C172.679 151.971 172.49 151.185 172.112 150.505C171.747 149.813 171.244 149.284 170.602 148.919C169.96 148.542 169.243 148.353 168.45 148.353C167.619 148.353 166.889 148.535 166.26 148.9C165.631 149.253 165.14 149.769 164.787 150.448C164.435 151.128 164.259 151.934 164.259 152.865C164.259 153.796 164.435 154.602 164.787 155.281C165.14 155.961 165.631 156.483 166.26 156.848C166.902 157.213 167.632 157.396 168.45 157.396C169.243 157.396 169.96 157.213 170.602 156.848C171.257 156.471 171.766 155.942 172.131 155.263C172.496 154.57 172.679 153.771 172.679 152.865ZM177.32 152.865C177.32 151.808 177.528 150.883 177.943 150.09C178.371 149.297 178.956 148.686 179.699 148.258C180.454 147.83 181.31 147.617 182.267 147.617C183.311 147.617 184.217 147.881 184.985 148.409C185.753 148.925 186.294 149.599 186.609 150.429V144.029H187.458V158H186.609V155.281C186.307 156.125 185.778 156.817 185.023 157.358C184.268 157.887 183.349 158.151 182.267 158.151C181.31 158.151 180.454 157.937 179.699 157.509C178.956 157.069 178.371 156.452 177.943 155.659C177.528 154.853 177.32 153.922 177.32 152.865ZM186.609 152.865C186.609 151.971 186.42 151.185 186.042 150.505C185.677 149.813 185.174 149.284 184.532 148.919C183.89 148.542 183.173 148.353 182.38 148.353C181.549 148.353 180.819 148.535 180.19 148.9C179.561 149.253 179.07 149.769 178.717 150.448C178.365 151.128 178.189 151.934 178.189 152.865C178.189 153.796 178.365 154.602 178.717 155.281C179.07 155.961 179.561 156.483 180.19 156.848C180.832 157.213 181.562 157.396 182.38 157.396C183.173 157.396 183.89 157.213 184.532 156.848C185.187 156.471 185.696 155.942 186.061 155.263C186.426 154.57 186.609 153.771 186.609 152.865ZM201.011 152.185C201.011 152.638 200.998 152.978 200.973 153.205H192.119C192.144 154.123 192.345 154.898 192.723 155.527C193.1 156.156 193.598 156.628 194.214 156.943C194.831 157.257 195.504 157.415 196.234 157.415C197.241 157.415 198.084 157.169 198.764 156.678C199.444 156.175 199.872 155.495 200.048 154.64H200.935C200.734 155.684 200.218 156.534 199.387 157.188C198.556 157.83 197.506 158.151 196.234 158.151C195.278 158.151 194.422 157.937 193.667 157.509C192.912 157.081 192.32 156.471 191.892 155.678C191.464 154.872 191.25 153.935 191.25 152.865C191.25 151.795 191.458 150.864 191.873 150.071C192.301 149.278 192.893 148.674 193.648 148.258C194.403 147.83 195.265 147.617 196.234 147.617C197.216 147.617 198.066 147.83 198.783 148.258C199.513 148.674 200.067 149.234 200.444 149.939C200.822 150.631 201.011 151.38 201.011 152.185ZM200.161 152.506C200.199 151.6 200.035 150.832 199.67 150.203C199.318 149.574 198.833 149.108 198.217 148.806C197.6 148.491 196.933 148.334 196.215 148.334C195.498 148.334 194.831 148.491 194.214 148.806C193.61 149.108 193.113 149.574 192.723 150.203C192.345 150.832 192.144 151.6 192.119 152.506H200.161ZM220.593 152.185C220.593 152.638 220.58 152.978 220.555 153.205H211.701C211.726 154.123 211.927 154.898 212.305 155.527C212.682 156.156 213.179 156.628 213.796 156.943C214.413 157.257 215.086 157.415 215.816 157.415C216.823 157.415 217.666 157.169 218.346 156.678C219.026 156.175 219.454 155.495 219.63 154.64H220.517C220.316 155.684 219.8 156.534 218.969 157.188C218.138 157.83 217.087 158.151 215.816 158.151C214.86 158.151 214.004 157.937 213.249 157.509C212.494 157.081 211.902 156.471 211.474 155.678C211.046 154.872 210.832 153.935 210.832 152.865C210.832 151.795 211.04 150.864 211.455 150.071C211.883 149.278 212.475 148.674 213.23 148.258C213.985 147.83 214.847 147.617 215.816 147.617C216.798 147.617 217.648 147.83 218.365 148.258C219.095 148.674 219.649 149.234 220.026 149.939C220.404 150.631 220.593 151.38 220.593 152.185ZM219.743 152.506C219.781 151.6 219.617 150.832 219.252 150.203C218.9 149.574 218.415 149.108 217.799 148.806C217.182 148.491 216.515 148.334 215.797 148.334C215.08 148.334 214.413 148.491 213.796 148.806C213.192 149.108 212.695 149.574 212.305 150.203C211.927 150.832 211.726 151.6 211.701 152.506H219.743ZM217.345 144.577L213.645 146.918V146.219L217.345 143.746V144.577ZM239.608 147.749V158H238.759V155.772C238.469 156.553 237.985 157.15 237.305 157.566C236.638 157.969 235.87 158.17 235.002 158.17C233.781 158.17 232.78 157.799 232 157.056C231.232 156.301 230.848 155.187 230.848 153.714V147.749H231.679V153.658C231.679 154.879 231.987 155.816 232.604 156.471C233.221 157.113 234.058 157.434 235.115 157.434C236.222 157.434 237.104 157.081 237.758 156.376C238.425 155.672 238.759 154.627 238.759 153.242V147.749H239.608ZM256.053 147.541C257.223 147.541 258.18 147.919 258.922 148.674C259.665 149.416 260.036 150.524 260.036 151.996V158H259.206V152.053C259.206 150.832 258.91 149.901 258.318 149.259C257.739 148.605 256.94 148.277 255.921 148.277C254.863 148.277 254.014 148.642 253.372 149.372C252.73 150.102 252.409 151.159 252.409 152.544V158H251.578V152.053C251.578 150.832 251.283 149.901 250.691 149.259C250.112 148.605 249.313 148.277 248.293 148.277C247.236 148.277 246.387 148.642 245.745 149.372C245.103 150.102 244.782 151.159 244.782 152.544V158H243.932V147.749H244.782V149.976C245.071 149.171 245.537 148.567 246.179 148.164C246.833 147.749 247.582 147.541 248.426 147.541C249.357 147.541 250.156 147.786 250.823 148.277C251.503 148.756 251.969 149.467 252.22 150.411C252.459 149.467 252.925 148.756 253.617 148.277C254.31 147.786 255.121 147.541 256.053 147.541ZM263.75 152.865C263.75 151.808 263.957 150.883 264.373 150.09C264.801 149.297 265.386 148.686 266.128 148.258C266.884 147.83 267.739 147.617 268.696 147.617C269.778 147.617 270.697 147.881 271.452 148.409C272.207 148.938 272.736 149.611 273.038 150.429V147.749H273.888V158H273.038V155.3C272.736 156.131 272.201 156.817 271.433 157.358C270.678 157.887 269.766 158.151 268.696 158.151C267.739 158.151 266.884 157.937 266.128 157.509C265.386 157.069 264.801 156.452 264.373 155.659C263.957 154.853 263.75 153.922 263.75 152.865ZM273.038 152.865C273.038 151.971 272.849 151.185 272.472 150.505C272.107 149.813 271.603 149.284 270.961 148.919C270.32 148.542 269.602 148.353 268.809 148.353C267.979 148.353 267.249 148.535 266.619 148.9C265.99 149.253 265.499 149.769 265.147 150.448C264.794 151.128 264.618 151.934 264.618 152.865C264.618 153.796 264.794 154.602 265.147 155.281C265.499 155.961 265.99 156.483 266.619 156.848C267.261 157.213 267.991 157.396 268.809 157.396C269.602 157.396 270.32 157.213 270.961 156.848C271.616 156.471 272.126 155.942 272.491 155.263C272.856 154.57 273.038 153.771 273.038 152.865ZM83.634 180.865C83.634 179.808 83.8417 178.883 84.257 178.09C84.685 177.297 85.2702 176.686 86.0128 176.258C86.7679 175.83 87.6238 175.617 88.5803 175.617C89.625 175.617 90.5312 175.881 91.2989 176.409C92.0667 176.925 92.6079 177.599 92.9225 178.429V172.029H93.7721V186H92.9225V183.281C92.6205 184.125 92.0919 184.817 91.3367 185.358C90.5815 185.887 89.6627 186.151 88.5803 186.151C87.6238 186.151 86.7679 185.937 86.0128 185.509C85.2702 185.069 84.685 184.452 84.257 183.659C83.8417 182.853 83.634 181.922 83.634 180.865ZM92.9225 180.865C92.9225 179.971 92.7337 179.185 92.3562 178.505C91.9912 177.813 91.4877 177.284 90.8458 176.919C90.2039 176.542 89.4865 176.353 88.6936 176.353C87.8629 176.353 87.1329 176.535 86.5036 176.9C85.8743 177.253 85.3835 177.769 85.0311 178.448C84.6787 179.128 84.5025 179.934 84.5025 180.865C84.5025 181.796 84.6787 182.602 85.0311 183.281C85.3835 183.961 85.8743 184.483 86.5036 184.848C87.1455 185.213 87.8755 185.396 88.6936 185.396C89.4865 185.396 90.2039 185.213 90.8458 184.848C91.5003 184.471 92.01 183.942 92.375 183.263C92.74 182.57 92.9225 181.771 92.9225 180.865ZM97.564 180.865C97.564 179.808 97.7717 178.883 98.187 178.09C98.6149 177.297 99.2002 176.686 99.9427 176.258C100.698 175.83 101.554 175.617 102.51 175.617C103.593 175.617 104.511 175.881 105.267 176.409C106.022 176.938 106.55 177.611 106.852 178.429V175.749H107.702V186H106.852V183.3C106.55 184.131 106.016 184.817 105.248 185.358C104.493 185.887 103.58 186.151 102.51 186.151C101.554 186.151 100.698 185.937 99.9427 185.509C99.2002 185.069 98.6149 184.452 98.187 183.659C97.7717 182.853 97.564 181.922 97.564 180.865ZM106.852 180.865C106.852 179.971 106.664 179.185 106.286 178.505C105.921 177.813 105.418 177.284 104.776 176.919C104.134 176.542 103.416 176.353 102.624 176.353C101.793 176.353 101.063 176.535 100.434 176.9C99.8043 177.253 99.3134 177.769 98.961 178.448C98.6086 179.128 98.4324 179.934 98.4324 180.865C98.4324 181.796 98.6086 182.602 98.961 183.281C99.3134 183.961 99.8043 184.483 100.434 184.848C101.075 185.213 101.805 185.396 102.624 185.396C103.416 185.396 104.134 185.213 104.776 184.848C105.43 184.471 105.94 183.942 106.305 183.263C106.67 182.57 106.852 181.771 106.852 180.865ZM115.44 186.151C114.294 186.151 113.357 185.899 112.627 185.396C111.909 184.892 111.507 184.175 111.418 183.244H112.287C112.35 183.911 112.652 184.439 113.193 184.829C113.747 185.22 114.496 185.415 115.44 185.415C116.22 185.415 116.837 185.22 117.29 184.829C117.756 184.427 117.988 183.936 117.988 183.357C117.988 182.954 117.862 182.627 117.611 182.375C117.372 182.111 117.07 181.91 116.705 181.771C116.34 181.633 115.842 181.482 115.213 181.318C114.458 181.117 113.848 180.922 113.382 180.733C112.916 180.531 112.52 180.236 112.192 179.845C111.865 179.455 111.702 178.933 111.702 178.278C111.702 177.8 111.846 177.36 112.136 176.957C112.425 176.542 112.828 176.214 113.344 175.975C113.86 175.736 114.445 175.617 115.1 175.617C116.17 175.617 117.032 175.887 117.686 176.428C118.353 176.957 118.712 177.693 118.762 178.637H117.913C117.875 177.958 117.611 177.404 117.12 176.976C116.629 176.548 115.949 176.334 115.081 176.334C114.351 176.334 113.747 176.523 113.269 176.9C112.79 177.278 112.551 177.737 112.551 178.278C112.551 178.757 112.683 179.147 112.948 179.449C113.225 179.738 113.558 179.965 113.948 180.129C114.351 180.28 114.88 180.443 115.534 180.619C116.251 180.808 116.824 180.997 117.252 181.186C117.693 181.362 118.064 181.626 118.366 181.979C118.668 182.319 118.819 182.778 118.819 183.357C118.819 183.886 118.674 184.364 118.385 184.792C118.095 185.22 117.693 185.553 117.177 185.792C116.661 186.031 116.082 186.151 115.44 186.151ZM130.039 178.448C130.328 177.618 130.851 176.938 131.606 176.409C132.374 175.881 133.299 175.617 134.381 175.617C135.338 175.617 136.187 175.83 136.93 176.258C137.685 176.686 138.27 177.297 138.685 178.09C139.113 178.883 139.327 179.808 139.327 180.865C139.327 181.922 139.113 182.853 138.685 183.659C138.27 184.452 137.685 185.069 136.93 185.509C136.187 185.937 135.338 186.151 134.381 186.151C133.311 186.151 132.392 185.887 131.625 185.358C130.869 184.817 130.341 184.137 130.039 183.319V190.833H129.189V175.749H130.039V178.448ZM138.459 180.865C138.459 179.934 138.283 179.128 137.93 178.448C137.578 177.769 137.081 177.253 136.439 176.9C135.81 176.535 135.08 176.353 134.249 176.353C133.456 176.353 132.739 176.542 132.097 176.919C131.455 177.284 130.951 177.813 130.586 178.505C130.221 179.185 130.039 179.971 130.039 180.865C130.039 181.771 130.221 182.57 130.586 183.263C130.951 183.942 131.455 184.471 132.097 184.848C132.739 185.213 133.456 185.396 134.249 185.396C135.08 185.396 135.81 185.213 136.439 184.848C137.081 184.483 137.578 183.961 137.93 183.281C138.283 182.602 138.459 181.796 138.459 180.865ZM143.969 177.863C144.221 177.108 144.667 176.535 145.309 176.145C145.951 175.742 146.769 175.541 147.763 175.541V176.428H147.48C146.473 176.428 145.636 176.718 144.969 177.297C144.302 177.863 143.969 178.794 143.969 180.091V186H143.119V175.749H143.969V177.863ZM151.381 173.464C151.18 173.464 151.01 173.401 150.871 173.275C150.733 173.137 150.663 172.955 150.663 172.728C150.663 172.514 150.733 172.338 150.871 172.199C151.01 172.061 151.18 171.992 151.381 171.992C151.582 171.992 151.752 172.061 151.891 172.199C152.029 172.338 152.098 172.514 152.098 172.728C152.098 172.955 152.029 173.137 151.891 173.275C151.752 173.401 151.582 173.464 151.381 173.464ZM151.796 175.749V186H150.947V175.749H151.796ZM160.763 175.541C161.984 175.541 162.978 175.919 163.746 176.674C164.514 177.416 164.898 178.524 164.898 179.996V186H164.067V180.053C164.067 178.832 163.759 177.901 163.142 177.259C162.525 176.605 161.688 176.277 160.631 176.277C159.523 176.277 158.636 176.63 157.969 177.334C157.314 178.039 156.987 179.084 156.987 180.468V186H156.138V175.749H156.987V177.92C157.277 177.152 157.755 176.567 158.422 176.164C159.102 175.749 159.882 175.541 160.763 175.541ZM168.599 180.865C168.599 179.795 168.806 178.864 169.222 178.071C169.65 177.278 170.235 176.674 170.978 176.258C171.733 175.83 172.595 175.617 173.564 175.617C174.848 175.617 175.899 175.937 176.717 176.579C177.547 177.221 178.063 178.083 178.265 179.166H177.378C177.214 178.285 176.786 177.593 176.094 177.089C175.414 176.586 174.571 176.334 173.564 176.334C172.809 176.334 172.123 176.504 171.506 176.844C170.889 177.171 170.392 177.681 170.015 178.373C169.65 179.052 169.467 179.883 169.467 180.865C169.467 181.859 169.65 182.696 170.015 183.376C170.392 184.055 170.889 184.565 171.506 184.905C172.123 185.245 172.809 185.415 173.564 185.415C174.571 185.415 175.414 185.163 176.094 184.66C176.786 184.156 177.214 183.464 177.378 182.583H178.265C178.063 183.653 177.547 184.515 176.717 185.169C175.886 185.824 174.835 186.151 173.564 186.151C172.595 186.151 171.733 185.937 170.978 185.509C170.235 185.081 169.65 184.471 169.222 183.678C168.806 182.872 168.599 181.935 168.599 180.865ZM182.514 173.464C182.313 173.464 182.143 173.401 182.005 173.275C181.866 173.137 181.797 172.955 181.797 172.728C181.797 172.514 181.866 172.338 182.005 172.199C182.143 172.061 182.313 171.992 182.514 171.992C182.716 171.992 182.886 172.061 183.024 172.199C183.163 172.338 183.232 172.514 183.232 172.728C183.232 172.955 183.163 173.137 183.024 173.275C182.886 173.401 182.716 173.464 182.514 173.464ZM182.93 175.749V186H182.08V175.749H182.93ZM188.121 178.448C188.41 177.618 188.933 176.938 189.688 176.409C190.456 175.881 191.381 175.617 192.463 175.617C193.42 175.617 194.269 175.83 195.012 176.258C195.767 176.686 196.352 177.297 196.767 178.09C197.195 178.883 197.409 179.808 197.409 180.865C197.409 181.922 197.195 182.853 196.767 183.659C196.352 184.452 195.767 185.069 195.012 185.509C194.269 185.937 193.42 186.151 192.463 186.151C191.393 186.151 190.474 185.887 189.707 185.358C188.951 184.817 188.423 184.137 188.121 183.319V190.833H187.271V175.749H188.121V178.448ZM196.541 180.865C196.541 179.934 196.365 179.128 196.012 178.448C195.66 177.769 195.163 177.253 194.521 176.9C193.891 176.535 193.162 176.353 192.331 176.353C191.538 176.353 190.82 176.542 190.179 176.919C189.537 177.284 189.033 177.813 188.668 178.505C188.303 179.185 188.121 179.971 188.121 180.865C188.121 181.771 188.303 182.57 188.668 183.263C189.033 183.942 189.537 184.471 190.179 184.848C190.82 185.213 191.538 185.396 192.331 185.396C193.162 185.396 193.891 185.213 194.521 184.848C195.163 184.483 195.66 183.961 196.012 183.281C196.365 182.602 196.541 181.796 196.541 180.865ZM200.673 180.865C200.673 179.808 200.88 178.883 201.296 178.09C201.724 177.297 202.309 176.686 203.051 176.258C203.807 175.83 204.662 175.617 205.619 175.617C206.701 175.617 207.62 175.881 208.375 176.409C209.13 176.938 209.659 177.611 209.961 178.429V175.749H210.811V186H209.961V183.3C209.659 184.131 209.124 184.817 208.356 185.358C207.601 185.887 206.689 186.151 205.619 186.151C204.662 186.151 203.807 185.937 203.051 185.509C202.309 185.069 201.724 184.452 201.296 183.659C200.88 182.853 200.673 181.922 200.673 180.865ZM209.961 180.865C209.961 179.971 209.772 179.185 209.395 178.505C209.03 177.813 208.526 177.284 207.884 176.919C207.243 176.542 206.525 176.353 205.732 176.353C204.901 176.353 204.172 176.535 203.542 176.9C202.913 177.253 202.422 177.769 202.07 178.448C201.717 179.128 201.541 179.934 201.541 180.865C201.541 181.796 201.717 182.602 202.07 183.281C202.422 183.961 202.913 184.483 203.542 184.848C204.184 185.213 204.914 185.396 205.732 185.396C206.525 185.396 207.243 185.213 207.884 184.848C208.539 184.471 209.049 183.942 209.414 183.263C209.779 182.57 209.961 181.771 209.961 180.865ZM215.565 173.464C215.364 173.464 215.194 173.401 215.056 173.275C214.917 173.137 214.848 172.955 214.848 172.728C214.848 172.514 214.917 172.338 215.056 172.199C215.194 172.061 215.364 171.992 215.565 171.992C215.767 171.992 215.937 172.061 216.075 172.199C216.214 172.338 216.283 172.514 216.283 172.728C216.283 172.955 216.214 173.137 216.075 173.275C215.937 173.401 215.767 173.464 215.565 173.464ZM215.981 175.749V186H215.131V175.749H215.981ZM223.739 186.151C222.594 186.151 221.656 185.899 220.926 185.396C220.209 184.892 219.806 184.175 219.718 183.244H220.586C220.649 183.911 220.951 184.439 221.493 184.829C222.046 185.22 222.795 185.415 223.739 185.415C224.52 185.415 225.136 185.22 225.589 184.829C226.055 184.427 226.288 183.936 226.288 183.357C226.288 182.954 226.162 182.627 225.91 182.375C225.671 182.111 225.369 181.91 225.004 181.771C224.639 181.633 224.142 181.482 223.513 181.318C222.758 181.117 222.147 180.922 221.681 180.733C221.216 180.531 220.819 180.236 220.492 179.845C220.165 179.455 220.001 178.933 220.001 178.278C220.001 177.8 220.146 177.36 220.435 176.957C220.725 176.542 221.128 176.214 221.644 175.975C222.16 175.736 222.745 175.617 223.399 175.617C224.469 175.617 225.331 175.887 225.986 176.428C226.653 176.957 227.012 177.693 227.062 178.637H226.212C226.175 177.958 225.91 177.404 225.42 176.976C224.929 176.548 224.249 176.334 223.381 176.334C222.651 176.334 222.046 176.523 221.568 176.9C221.09 177.278 220.851 177.737 220.851 178.278C220.851 178.757 220.983 179.147 221.247 179.449C221.524 179.738 221.858 179.965 222.248 180.129C222.651 180.28 223.179 180.443 223.834 180.619C224.551 180.808 225.124 180.997 225.552 181.186C225.992 181.362 226.363 181.626 226.666 181.979C226.968 182.319 227.119 182.778 227.119 183.357C227.119 183.886 226.974 184.364 226.684 184.792C226.395 185.22 225.992 185.553 225.476 185.792C224.96 186.031 224.381 186.151 223.739 186.151ZM77.3696 208.865C77.3696 207.795 77.5773 206.864 77.9926 206.071C78.4206 205.278 79.0058 204.674 79.7484 204.258C80.5036 203.83 81.3657 203.617 82.3348 203.617C83.6186 203.617 84.6695 203.937 85.4876 204.579C86.3183 205.221 86.8343 206.083 87.0357 207.166H86.1484C85.9848 206.285 85.5569 205.593 84.8646 205.089C84.185 204.586 83.3417 204.334 82.3348 204.334C81.5797 204.334 80.8937 204.504 80.277 204.844C79.6603 205.171 79.1631 205.681 78.7856 206.373C78.4206 207.052 78.2381 207.883 78.2381 208.865C78.2381 209.859 78.4206 210.696 78.7856 211.376C79.1631 212.055 79.6603 212.565 80.277 212.905C80.8937 213.245 81.5797 213.415 82.3348 213.415C83.3417 213.415 84.185 213.163 84.8646 212.66C85.5569 212.156 85.9848 211.464 86.1484 210.583H87.0357C86.8343 211.653 86.3183 212.515 85.4876 213.169C84.657 213.824 83.606 214.151 82.3348 214.151C81.3657 214.151 80.5036 213.937 79.7484 213.509C79.0058 213.081 78.4206 212.471 77.9926 211.678C77.5773 210.872 77.3696 209.935 77.3696 208.865ZM90.3225 208.865C90.3225 207.808 90.5301 206.883 90.9455 206.09C91.3734 205.297 91.9586 204.686 92.7012 204.258C93.4564 203.83 94.3122 203.617 95.2688 203.617C96.3512 203.617 97.27 203.881 98.0251 204.409C98.7803 204.938 99.3089 205.611 99.611 206.429V203.749H100.461V214H99.611V211.3C99.3089 212.131 98.774 212.817 98.0062 213.358C97.2511 213.887 96.3386 214.151 95.2688 214.151C94.3122 214.151 93.4564 213.937 92.7012 213.509C91.9586 213.069 91.3734 212.452 90.9455 211.659C90.5301 210.853 90.3225 209.922 90.3225 208.865ZM99.611 208.865C99.611 207.971 99.4222 207.185 99.0446 206.505C98.6796 205.813 98.1762 205.284 97.5343 204.919C96.8924 204.542 96.175 204.353 95.3821 204.353C94.5514 204.353 93.8214 204.535 93.1921 204.9C92.5628 205.253 92.0719 205.769 91.7195 206.448C91.3671 207.128 91.1909 207.934 91.1909 208.865C91.1909 209.796 91.3671 210.602 91.7195 211.281C92.0719 211.961 92.5628 212.483 93.1921 212.848C93.834 213.213 94.564 213.396 95.3821 213.396C96.175 213.396 96.8924 213.213 97.5343 212.848C98.1887 212.471 98.6985 211.942 99.0635 211.263C99.4285 210.57 99.611 209.771 99.611 208.865ZM105.631 205.863C105.882 205.108 106.329 204.535 106.971 204.145C107.613 203.742 108.431 203.541 109.425 203.541V204.428H109.142C108.135 204.428 107.298 204.718 106.631 205.297C105.964 205.863 105.631 206.794 105.631 208.091V214H104.781V203.749H105.631V205.863ZM112.08 208.865C112.08 207.808 112.288 206.883 112.703 206.09C113.131 205.297 113.716 204.686 114.459 204.258C115.214 203.83 116.07 203.617 117.026 203.617C118.109 203.617 119.027 203.881 119.783 204.409C120.538 204.938 121.066 205.611 121.368 206.429V203.749H122.218V214H121.368V211.3C121.066 212.131 120.531 212.817 119.764 213.358C119.008 213.887 118.096 214.151 117.026 214.151C116.07 214.151 115.214 213.937 114.459 213.509C113.716 213.069 113.131 212.452 112.703 211.659C112.288 210.853 112.08 209.922 112.08 208.865ZM121.368 208.865C121.368 207.971 121.18 207.185 120.802 206.505C120.437 205.813 119.934 205.284 119.292 204.919C118.65 204.542 117.932 204.353 117.139 204.353C116.309 204.353 115.579 204.535 114.949 204.9C114.32 205.253 113.829 205.769 113.477 206.448C113.125 207.128 112.948 207.934 112.948 208.865C112.948 209.796 113.125 210.602 113.477 211.281C113.829 211.961 114.32 212.483 114.949 212.848C115.591 213.213 116.321 213.396 117.139 213.396C117.932 213.396 118.65 213.213 119.292 212.848C119.946 212.471 120.456 211.942 120.821 211.263C121.186 210.57 121.368 209.771 121.368 208.865ZM126.01 208.865C126.01 207.795 126.217 206.864 126.633 206.071C127.061 205.278 127.646 204.674 128.389 204.258C129.144 203.83 130.006 203.617 130.975 203.617C132.259 203.617 133.31 203.937 134.128 204.579C134.959 205.221 135.475 206.083 135.676 207.166H134.789C134.625 206.285 134.197 205.593 133.505 205.089C132.825 204.586 131.982 204.334 130.975 204.334C130.22 204.334 129.534 204.504 128.917 204.844C128.3 205.171 127.803 205.681 127.426 206.373C127.061 207.052 126.878 207.883 126.878 208.865C126.878 209.859 127.061 210.696 127.426 211.376C127.803 212.055 128.3 212.565 128.917 212.905C129.534 213.245 130.22 213.415 130.975 213.415C131.982 213.415 132.825 213.163 133.505 212.66C134.197 212.156 134.625 211.464 134.789 210.583H135.676C135.475 211.653 134.959 212.515 134.128 213.169C133.297 213.824 132.246 214.151 130.975 214.151C130.006 214.151 129.144 213.937 128.389 213.509C127.646 213.081 127.061 212.471 126.633 211.678C126.217 210.872 126.01 209.935 126.01 208.865ZM140.756 204.485V211.263C140.756 212.018 140.895 212.54 141.172 212.829C141.448 213.106 141.939 213.245 142.644 213.245H143.796V214H142.512C141.618 214 140.958 213.792 140.53 213.377C140.114 212.949 139.907 212.244 139.907 211.263V204.485H138.359V203.749H139.907V201.143H140.756V203.749H143.796V204.485H140.756ZM156.495 208.185C156.495 208.638 156.483 208.978 156.458 209.205H147.603C147.628 210.123 147.83 210.898 148.207 211.527C148.585 212.156 149.082 212.628 149.699 212.943C150.316 213.257 150.989 213.415 151.719 213.415C152.726 213.415 153.569 213.169 154.249 212.678C154.928 212.175 155.356 211.495 155.532 210.64H156.42C156.218 211.684 155.702 212.534 154.872 213.188C154.041 213.83 152.99 214.151 151.719 214.151C150.762 214.151 149.906 213.937 149.151 213.509C148.396 213.081 147.805 212.471 147.377 211.678C146.949 210.872 146.735 209.935 146.735 208.865C146.735 207.795 146.942 206.864 147.358 206.071C147.786 205.278 148.377 204.674 149.132 204.258C149.888 203.83 150.75 203.617 151.719 203.617C152.701 203.617 153.55 203.83 154.268 204.258C154.998 204.674 155.551 205.234 155.929 205.939C156.307 206.631 156.495 207.38 156.495 208.185ZM155.646 208.506C155.683 207.6 155.52 206.832 155.155 206.203C154.802 205.574 154.318 205.108 153.701 204.806C153.084 204.491 152.417 204.334 151.7 204.334C150.983 204.334 150.316 204.491 149.699 204.806C149.095 205.108 148.598 205.574 148.207 206.203C147.83 206.832 147.628 207.6 147.603 208.506H155.646ZM161.14 205.863C161.391 205.108 161.838 204.535 162.48 204.145C163.122 203.742 163.94 203.541 164.934 203.541V204.428H164.651C163.644 204.428 162.807 204.718 162.14 205.297C161.473 205.863 161.14 206.794 161.14 208.091V214H160.29V203.749H161.14V205.863ZM168.967 203.749V214H168.117V203.749H168.967ZM170.175 200.577L166.475 202.918V202.219L170.175 199.746V200.577ZM176.726 214.151C175.58 214.151 174.643 213.899 173.913 213.396C173.195 212.892 172.792 212.175 172.704 211.244H173.573C173.636 211.911 173.938 212.439 174.479 212.829C175.033 213.22 175.782 213.415 176.726 213.415C177.506 213.415 178.123 213.22 178.576 212.829C179.041 212.427 179.274 211.936 179.274 211.357C179.274 210.954 179.148 210.627 178.897 210.375C178.658 210.111 178.355 209.91 177.99 209.771C177.625 209.633 177.128 209.482 176.499 209.318C175.744 209.117 175.133 208.922 174.668 208.733C174.202 208.531 173.806 208.236 173.478 207.845C173.151 207.455 172.987 206.933 172.987 206.278C172.987 205.8 173.132 205.36 173.422 204.957C173.711 204.542 174.114 204.214 174.63 203.975C175.146 203.736 175.731 203.617 176.386 203.617C177.456 203.617 178.318 203.887 178.972 204.428C179.639 204.957 179.998 205.693 180.048 206.637H179.199C179.161 205.958 178.897 205.404 178.406 204.976C177.915 204.548 177.235 204.334 176.367 204.334C175.637 204.334 175.033 204.523 174.554 204.9C174.076 205.278 173.837 205.737 173.837 206.278C173.837 206.757 173.969 207.147 174.234 207.449C174.51 207.738 174.844 207.965 175.234 208.129C175.637 208.28 176.165 208.443 176.82 208.619C177.537 208.808 178.11 208.997 178.538 209.186C178.978 209.362 179.35 209.626 179.652 209.979C179.954 210.319 180.105 210.778 180.105 211.357C180.105 211.886 179.96 212.364 179.671 212.792C179.381 213.22 178.978 213.553 178.462 213.792C177.946 214.031 177.367 214.151 176.726 214.151ZM185.185 204.485V211.263C185.185 212.018 185.323 212.54 185.6 212.829C185.877 213.106 186.368 213.245 187.073 213.245H188.224V214H186.94C186.047 214 185.386 213.792 184.958 213.377C184.543 212.949 184.335 212.244 184.335 211.263V204.485H182.787V203.749H184.335V201.143H185.185V203.749H188.224V204.485H185.185ZM192.126 201.464C191.925 201.464 191.755 201.401 191.616 201.275C191.478 201.137 191.409 200.955 191.409 200.728C191.409 200.514 191.478 200.338 191.616 200.199C191.755 200.061 191.925 199.992 192.126 199.992C192.328 199.992 192.497 200.061 192.636 200.199C192.774 200.338 192.844 200.514 192.844 200.728C192.844 200.955 192.774 201.137 192.636 201.275C192.497 201.401 192.328 201.464 192.126 201.464ZM192.542 203.749V214H191.692V203.749H192.542ZM196.354 208.865C196.354 207.795 196.562 206.864 196.977 206.071C197.405 205.278 197.991 204.674 198.733 204.258C199.488 203.83 200.35 203.617 201.32 203.617C202.603 203.617 203.654 203.937 204.472 204.579C205.303 205.221 205.819 206.083 206.02 207.166H205.133C204.969 206.285 204.542 205.593 203.849 205.089C203.17 204.586 202.326 204.334 201.32 204.334C200.564 204.334 199.878 204.504 199.262 204.844C198.645 205.171 198.148 205.681 197.77 206.373C197.405 207.052 197.223 207.883 197.223 208.865C197.223 209.859 197.405 210.696 197.77 211.376C198.148 212.055 198.645 212.565 199.262 212.905C199.878 213.245 200.564 213.415 201.32 213.415C202.326 213.415 203.17 213.163 203.849 212.66C204.542 212.156 204.969 211.464 205.133 210.583H206.02C205.819 211.653 205.303 212.515 204.472 213.169C203.642 213.824 202.591 214.151 201.32 214.151C200.35 214.151 199.488 213.937 198.733 213.509C197.991 213.081 197.405 212.471 196.977 211.678C196.562 210.872 196.354 209.935 196.354 208.865ZM209.307 208.865C209.307 207.808 209.515 206.883 209.93 206.09C210.358 205.297 210.943 204.686 211.686 204.258C212.441 203.83 213.297 203.617 214.253 203.617C215.336 203.617 216.255 203.881 217.01 204.409C217.765 204.938 218.294 205.611 218.596 206.429V203.749H219.445V214H218.596V211.3C218.294 212.131 217.759 212.817 216.991 213.358C216.236 213.887 215.323 214.151 214.253 214.151C213.297 214.151 212.441 213.937 211.686 213.509C210.943 213.069 210.358 212.452 209.93 211.659C209.515 210.853 209.307 209.922 209.307 208.865ZM218.596 208.865C218.596 207.971 218.407 207.185 218.029 206.505C217.664 205.813 217.161 205.284 216.519 204.919C215.877 204.542 215.16 204.353 214.367 204.353C213.536 204.353 212.806 204.535 212.177 204.9C211.547 205.253 211.057 205.769 210.704 206.448C210.352 207.128 210.176 207.934 210.176 208.865C210.176 209.796 210.352 210.602 210.704 211.281C211.057 211.961 211.547 212.483 212.177 212.848C212.819 213.213 213.549 213.396 214.367 213.396C215.16 213.396 215.877 213.213 216.519 212.848C217.173 212.471 217.683 211.942 218.048 211.263C218.413 210.57 218.596 209.771 218.596 208.865ZM227.183 214.151C226.038 214.151 225.1 213.899 224.37 213.396C223.652 212.892 223.25 212.175 223.162 211.244H224.03C224.093 211.911 224.395 212.439 224.936 212.829C225.49 213.22 226.239 213.415 227.183 213.415C227.963 213.415 228.58 213.22 229.033 212.829C229.499 212.427 229.732 211.936 229.732 211.357C229.732 210.954 229.606 210.627 229.354 210.375C229.115 210.111 228.813 209.91 228.448 209.771C228.083 209.633 227.586 209.482 226.956 209.318C226.201 209.117 225.591 208.922 225.125 208.733C224.659 208.531 224.263 208.236 223.936 207.845C223.608 207.455 223.445 206.933 223.445 206.278C223.445 205.8 223.59 205.36 223.879 204.957C224.169 204.542 224.571 204.214 225.087 203.975C225.603 203.736 226.189 203.617 226.843 203.617C227.913 203.617 228.775 203.887 229.429 204.428C230.097 204.957 230.455 205.693 230.506 206.637H229.656C229.618 205.958 229.354 205.404 228.863 204.976C228.372 204.548 227.693 204.334 226.824 204.334C226.094 204.334 225.49 204.523 225.012 204.9C224.534 205.278 224.294 205.737 224.294 206.278C224.294 206.757 224.427 207.147 224.691 207.449C224.968 207.738 225.301 207.965 225.691 208.129C226.094 208.28 226.623 208.443 227.277 208.619C227.995 208.808 228.567 208.997 228.995 209.186C229.436 209.362 229.807 209.626 230.109 209.979C230.411 210.319 230.562 210.778 230.562 211.357C230.562 211.886 230.417 212.364 230.128 212.792C229.839 213.22 229.436 213.553 228.92 213.792C228.404 214.031 227.825 214.151 227.183 214.151ZM234.245 214.057C234.031 214.057 233.855 213.987 233.716 213.849C233.578 213.711 233.509 213.534 233.509 213.32C233.509 213.106 233.578 212.93 233.716 212.792C233.855 212.653 234.031 212.584 234.245 212.584C234.446 212.584 234.616 212.653 234.755 212.792C234.893 212.93 234.962 213.106 234.962 213.32C234.962 213.534 234.893 213.711 234.755 213.849C234.616 213.987 234.446 214.057 234.245 214.057Z" fill="black"/>
<defs>
<filter id="filter0_d_654_12" x="0" y="0" width="326" height="261" filterUnits="userSpaceOnUse" color-interpolation-filters="sRGB">
<feFlood flood-opacity="0" result="BackgroundImageFix"/>
<feColorMatrix in="SourceAlpha" type="matrix" values="0 0 0 0 0 0 0 0 0 0 0 0 0 0 0 0 0 0 127 0" result="hardAlpha"/>
<feOffset dx="7" dy="4"/>
<feGaussianBlur stdDeviation="2"/>
<feComposite in2="hardAlpha" operator="out"/>
<feColorMatrix type="matrix" values="0 0 0 0 0 0 0 0 0 0 0 0 0 0 0 0 0 0 0.25 0"/>
<feBlend mode="normal" in2="BackgroundImageFix" result="effect1_dropShadow_654_12"/>
<feBlend mode="normal" in="SourceGraphic" in2="effect1_dropShadow_654_12" result="shape"/>
</filter>
<filter id="filter1_d_654_12" x="117" y="17" width="80" height="80" filterUnits="userSpaceOnUse" color-interpolation-filters="sRGB">
<feFlood flood-opacity="0" result="BackgroundImageFix"/>
<feColorMatrix in="SourceAlpha" type="matrix" values="0 0 0 0 0 0 0 0 0 0 0 0 0 0 0 0 0 0 127 0" result="hardAlpha"/>
<feOffset dy="4"/>
<feGaussianBlur stdDeviation="2"/>
<feComposite in2="hardAlpha" operator="out"/>
<feColorMatrix type="matrix" values="0 0 0 0 0 0 0 0 0 0 0 0 0 0 0 0 0 0 0.25 0"/>
<feBlend mode="normal" in2="BackgroundImageFix" result="effect1_dropShadow_654_12"/>
<feBlend mode="normal" in="SourceGraphic" in2="effect1_dropShadow_654_12" result="shape"/>
</filter>
</defs>
</svg>
