<svg width="276" height="70" viewBox="0 0 276 70" fill="none" xmlns="http://www.w3.org/2000/svg">
<rect x="0.970459" y="0.496826" width="274.77" height="69.0062" rx="5" fill="black" fill-opacity="0.31"/>
<g filter="url(#filter0_d_659_54)">
<path d="M37.4709 24.4783V41.8533H34.6209V29.9533L29.3209 41.8533H27.3459L22.0209 29.9533V41.8533H19.1709V24.4783H22.2459L28.3459 38.1033L34.4209 24.4783H37.4709ZM51.6918 38.3033H44.4168L43.1668 41.8533H40.1918L46.4168 24.4533H49.7168L55.9418 41.8533H52.9418L51.6918 38.3033ZM50.8918 35.9783L48.0668 27.9033L45.2168 35.9783H50.8918ZM61.4984 24.4783V41.8533H58.6484V24.4783H61.4984ZM70.9652 42.0283C69.7986 42.0283 68.7486 41.8283 67.8152 41.4283C66.8819 41.0116 66.1486 40.4283 65.6152 39.6783C65.0819 38.9283 64.8152 38.0533 64.8152 37.0533H67.8652C67.9319 37.8033 68.2236 38.4199 68.7402 38.9033C69.2736 39.3866 70.0152 39.6283 70.9652 39.6283C71.9486 39.6283 72.7152 39.3949 73.2652 38.9283C73.8152 38.4449 74.0902 37.8283 74.0902 37.0783C74.0902 36.4949 73.9152 36.0199 73.5652 35.6533C73.2319 35.2866 72.8069 35.0033 72.2902 34.8033C71.7902 34.6033 71.0902 34.3866 70.1902 34.1533C69.0569 33.8533 68.1319 33.5533 67.4152 33.2533C66.7152 32.9366 66.1152 32.4533 65.6152 31.8033C65.1152 31.1533 64.8652 30.2866 64.8652 29.2033C64.8652 28.2033 65.1152 27.3283 65.6152 26.5783C66.1152 25.8283 66.8152 25.2533 67.7152 24.8533C68.6152 24.4533 69.6569 24.2533 70.8402 24.2533C72.5236 24.2533 73.8986 24.6783 74.9652 25.5283C76.0486 26.3616 76.6486 27.5116 76.7652 28.9783H73.6152C73.5652 28.3449 73.2652 27.8033 72.7152 27.3533C72.1652 26.9033 71.4402 26.6783 70.5402 26.6783C69.7236 26.6783 69.0569 26.8866 68.5402 27.3033C68.0236 27.7199 67.7652 28.3199 67.7652 29.1033C67.7652 29.6366 67.9236 30.0783 68.2402 30.4283C68.5736 30.7616 68.9902 31.0283 69.4902 31.2283C69.9902 31.4283 70.6736 31.6449 71.5402 31.8783C72.6902 32.1949 73.6236 32.5116 74.3402 32.8283C75.0736 33.1449 75.6902 33.6366 76.1902 34.3033C76.7069 34.9533 76.9652 35.8283 76.9652 36.9283C76.9652 37.8116 76.7236 38.6449 76.2402 39.4283C75.7736 40.2116 75.0819 40.8449 74.1652 41.3283C73.2652 41.7949 72.1986 42.0283 70.9652 42.0283ZM89.6723 24.4783V41.8533H86.8223V24.4783H89.6723ZM107.689 41.8533H104.839L96.2641 28.8783V41.8533H93.4141V24.4533H96.2641L104.839 37.4033V24.4533H107.689V41.8533ZM121.657 24.4783V26.8033H114.282V31.9283H120.032V34.2533H114.282V41.8533H111.432V24.4783H121.657ZM132.223 42.0283C130.606 42.0283 129.115 41.6533 127.748 40.9033C126.398 40.1366 125.323 39.0783 124.523 37.7283C123.74 36.3616 123.348 34.8283 123.348 33.1283C123.348 31.4283 123.74 29.9033 124.523 28.5533C125.323 27.2033 126.398 26.1533 127.748 25.4033C129.115 24.6366 130.606 24.2533 132.223 24.2533C133.856 24.2533 135.348 24.6366 136.698 25.4033C138.065 26.1533 139.14 27.2033 139.923 28.5533C140.706 29.9033 141.098 31.4283 141.098 33.1283C141.098 34.8283 140.706 36.3616 139.923 37.7283C139.14 39.0783 138.065 40.1366 136.698 40.9033C135.348 41.6533 133.856 42.0283 132.223 42.0283ZM132.223 39.5533C133.373 39.5533 134.398 39.2949 135.298 38.7783C136.198 38.2449 136.898 37.4949 137.398 36.5283C137.915 35.5449 138.173 34.4116 138.173 33.1283C138.173 31.8449 137.915 30.7199 137.398 29.7533C136.898 28.7866 136.198 28.0449 135.298 27.5283C134.398 27.0116 133.373 26.7533 132.223 26.7533C131.073 26.7533 130.048 27.0116 129.148 27.5283C128.248 28.0449 127.54 28.7866 127.023 29.7533C126.523 30.7199 126.273 31.8449 126.273 33.1283C126.273 34.4116 126.523 35.5449 127.023 36.5283C127.54 37.4949 128.248 38.2449 129.148 38.7783C130.048 39.2949 131.073 39.5533 132.223 39.5533ZM152.927 41.8533L148.927 34.9033H146.752V41.8533H143.902V24.4783H149.902C151.236 24.4783 152.361 24.7116 153.277 25.1783C154.211 25.6449 154.902 26.2699 155.352 27.0533C155.819 27.8366 156.052 28.7116 156.052 29.6783C156.052 30.8116 155.719 31.8449 155.052 32.7783C154.402 33.6949 153.394 34.3199 152.027 34.6533L156.327 41.8533H152.927ZM146.752 32.6283H149.902C150.969 32.6283 151.769 32.3616 152.302 31.8283C152.852 31.2949 153.127 30.5783 153.127 29.6783C153.127 28.7783 152.861 28.0783 152.327 27.5783C151.794 27.0616 150.986 26.8033 149.902 26.8033H146.752V32.6283ZM177.998 24.4783V41.8533H175.148V29.9533L169.848 41.8533H167.873L162.548 29.9533V41.8533H159.698V24.4783H162.773L168.873 38.1033L174.948 24.4783H177.998ZM192.219 38.3033H184.944L183.694 41.8533H180.719L186.944 24.4533H190.244L196.469 41.8533H193.469L192.219 38.3033ZM191.419 35.9783L188.594 27.9033L185.744 35.9783H191.419ZM207.101 39.5283C208.151 39.5283 209.076 39.3033 209.876 38.8533C210.676 38.4033 211.301 37.7199 211.751 36.8033H215.176C214.576 38.3366 213.642 39.5533 212.376 40.4533C211.109 41.3366 209.642 41.8449 207.976 41.9783V43.0533C208.942 43.0533 209.726 43.2783 210.326 43.7283C210.926 44.1949 211.226 44.8449 211.226 45.6783C211.226 46.5116 210.926 47.1699 210.326 47.6533C209.726 48.1533 208.967 48.4033 208.051 48.4033H204.751V46.6033H207.476C207.942 46.6033 208.292 46.5366 208.526 46.4033C208.759 46.2699 208.876 46.0283 208.876 45.6783C208.876 45.3283 208.759 45.0866 208.526 44.9533C208.292 44.8199 207.942 44.7533 207.476 44.7533H206.101V41.9533C204.634 41.8033 203.301 41.3366 202.101 40.5533C200.901 39.7699 199.951 38.7366 199.251 37.4533C198.567 36.1533 198.226 34.7116 198.226 33.1283C198.226 31.4283 198.617 29.9033 199.401 28.5533C200.201 27.2033 201.276 26.1533 202.626 25.4033C203.992 24.6366 205.484 24.2533 207.101 24.2533C208.951 24.2533 210.592 24.7116 212.026 25.6283C213.476 26.5283 214.526 27.8116 215.176 29.4783H211.751C211.301 28.5616 210.676 27.8783 209.876 27.4283C209.076 26.9783 208.151 26.7533 207.101 26.7533C205.951 26.7533 204.926 27.0116 204.026 27.5283C203.126 28.0449 202.417 28.7866 201.901 29.7533C201.401 30.7199 201.151 31.8449 201.151 33.1283C201.151 34.4116 201.401 35.5366 201.901 36.5033C202.417 37.4699 203.126 38.2199 204.026 38.7533C204.926 39.2699 205.951 39.5283 207.101 39.5283ZM226.437 42.0283C224.82 42.0283 223.328 41.6533 221.962 40.9033C220.612 40.1366 219.537 39.0783 218.737 37.7283C217.953 36.3616 217.562 34.8283 217.562 33.1283C217.562 31.4283 217.953 29.9033 218.737 28.5533C219.537 27.2033 220.612 26.1533 221.962 25.4033C223.328 24.6366 224.82 24.2533 226.437 24.2533C228.07 24.2533 229.562 24.6366 230.912 25.4033C232.278 26.1533 233.353 27.2033 234.137 28.5533C234.92 29.9033 235.312 31.4283 235.312 33.1283C235.312 34.8283 234.92 36.3616 234.137 37.7283C233.353 39.0783 232.278 40.1366 230.912 40.9033C229.562 41.6533 228.07 42.0283 226.437 42.0283ZM226.437 39.5533C227.587 39.5533 228.612 39.2949 229.512 38.7783C230.412 38.2449 231.112 37.4949 231.612 36.5283C232.128 35.5449 232.387 34.4116 232.387 33.1283C232.387 31.8449 232.128 30.7199 231.612 29.7533C231.112 28.7866 230.412 28.0449 229.512 27.5283C228.612 27.0116 227.587 26.7533 226.437 26.7533C225.287 26.7533 224.262 27.0116 223.362 27.5283C222.462 28.0449 221.753 28.7866 221.237 29.7533C220.737 30.7199 220.487 31.8449 220.487 33.1283C220.487 34.4116 220.737 35.5449 221.237 36.5283C221.753 37.4949 222.462 38.2449 223.362 38.7783C224.262 39.2949 225.287 39.5533 226.437 39.5533ZM222.362 23.0283C222.495 22.0616 222.812 21.3366 223.312 20.8533C223.812 20.3533 224.437 20.1033 225.187 20.1033C225.503 20.1033 225.778 20.1533 226.012 20.2533C226.245 20.3533 226.528 20.5033 226.862 20.7033C227.112 20.8699 227.32 20.9949 227.487 21.0783C227.67 21.1616 227.87 21.2033 228.087 21.2033C228.37 21.2033 228.603 21.1199 228.787 20.9533C228.987 20.7699 229.112 20.5033 229.162 20.1533H230.762C230.628 21.1199 230.312 21.8533 229.812 22.3533C229.312 22.8366 228.687 23.0783 227.937 23.0783C227.62 23.0783 227.337 23.0283 227.087 22.9283C226.837 22.8116 226.562 22.6533 226.262 22.4533C225.962 22.2699 225.728 22.1449 225.562 22.0783C225.412 21.9949 225.237 21.9533 225.037 21.9533C224.753 21.9533 224.512 22.0449 224.312 22.2283C224.128 22.4116 224.012 22.6783 223.962 23.0283H222.362ZM240.966 26.7783V31.8783H246.966V34.2033H240.966V39.5283H247.716V41.8533H238.116V24.4533H247.716V26.7783H240.966ZM256.952 42.0283C255.785 42.0283 254.735 41.8283 253.802 41.4283C252.868 41.0116 252.135 40.4283 251.602 39.6783C251.068 38.9283 250.802 38.0533 250.802 37.0533H253.852C253.918 37.8033 254.21 38.4199 254.727 38.9033C255.26 39.3866 256.002 39.6283 256.952 39.6283C257.935 39.6283 258.702 39.3949 259.252 38.9283C259.802 38.4449 260.077 37.8283 260.077 37.0783C260.077 36.4949 259.902 36.0199 259.552 35.6533C259.218 35.2866 258.793 35.0033 258.277 34.8033C257.777 34.6033 257.077 34.3866 256.177 34.1533C255.043 33.8533 254.118 33.5533 253.402 33.2533C252.702 32.9366 252.102 32.4533 251.602 31.8033C251.102 31.1533 250.852 30.2866 250.852 29.2033C250.852 28.2033 251.102 27.3283 251.602 26.5783C252.102 25.8283 252.802 25.2533 253.702 24.8533C254.602 24.4533 255.643 24.2533 256.827 24.2533C258.51 24.2533 259.885 24.6783 260.952 25.5283C262.035 26.3616 262.635 27.5116 262.752 28.9783H259.602C259.552 28.3449 259.252 27.8033 258.702 27.3533C258.152 26.9033 257.427 26.6783 256.527 26.6783C255.71 26.6783 255.043 26.8866 254.527 27.3033C254.01 27.7199 253.752 28.3199 253.752 29.1033C253.752 29.6366 253.91 30.0783 254.227 30.4283C254.56 30.7616 254.977 31.0283 255.477 31.2283C255.977 31.4283 256.66 31.6449 257.527 31.8783C258.677 32.1949 259.61 32.5116 260.327 32.8283C261.06 33.1449 261.677 33.6366 262.177 34.3033C262.693 34.9533 262.952 35.8283 262.952 36.9283C262.952 37.8116 262.71 38.6449 262.227 39.4283C261.76 40.2116 261.068 40.8449 260.152 41.3283C259.252 41.7949 258.185 42.0283 256.952 42.0283Z" fill="white"/>
</g>
<defs>
<filter id="filter0_d_659_54" x="15.1709" y="20.1033" width="251.781" height="36.3" filterUnits="userSpaceOnUse" color-interpolation-filters="sRGB">
<feFlood flood-opacity="0" result="BackgroundImageFix"/>
<feColorMatrix in="SourceAlpha" type="matrix" values="0 0 0 0 0 0 0 0 0 0 0 0 0 0 0 0 0 0 127 0" result="hardAlpha"/>
<feOffset dy="4"/>
<feGaussianBlur stdDeviation="2"/>
<feComposite in2="hardAlpha" operator="out"/>
<feColorMatrix type="matrix" values="0 0 0 0 0 0 0 0 0 0 0 0 0 0 0 0 0 0 0.25 0"/>
<feBlend mode="normal" in2="BackgroundImageFix" result="effect1_dropShadow_659_54"/>
<feBlend mode="normal" in="SourceGraphic" in2="effect1_dropShadow_659_54" result="shape"/>
</filter>
</defs>
</svg>
