<svg width="31" height="31" viewBox="0 0 31 31" fill="none" xmlns="http://www.w3.org/2000/svg">
<path d="M15.7638 9.2159C12.4386 9.2159 9.75502 11.8995 9.75502 15.2247C9.75502 18.5499 12.4386 21.2335 15.7638 21.2335C19.089 21.2335 21.7726 18.5499 21.7726 15.2247C21.7726 11.8995 19.089 9.2159 15.7638 9.2159ZM15.7638 19.13C13.6134 19.13 11.8585 17.3751 11.8585 15.2247C11.8585 13.0743 13.6134 11.3194 15.7638 11.3194C17.9142 11.3194 19.6691 13.0743 19.6691 15.2247C19.6691 17.3751 17.9142 19.13 15.7638 19.13ZM22.0187 7.56941C21.2423 7.56941 20.6154 8.19637 20.6154 8.97273C20.6154 9.7491 21.2423 10.3761 22.0187 10.3761C22.7951 10.3761 23.422 9.75203 23.422 8.97273C23.4222 8.78838 23.3861 8.6058 23.3157 8.43543C23.2452 8.26507 23.1419 8.11028 23.0115 7.97992C22.8812 7.84956 22.7264 7.74621 22.556 7.67576C22.3856 7.60532 22.203 7.56918 22.0187 7.56941V7.56941ZM27.4767 15.2247C27.4767 13.6075 27.4914 12.005 27.4005 10.3907C27.3097 8.5157 26.882 6.85164 25.5109 5.48055C24.1369 4.10652 22.4757 3.68172 20.6007 3.5909C18.9835 3.50008 17.381 3.51473 15.7667 3.51473C14.1496 3.51473 12.547 3.50008 10.9328 3.5909C9.05776 3.68172 7.39369 4.10945 6.0226 5.48055C4.64858 6.85457 4.22377 8.5157 4.13295 10.3907C4.04213 12.0079 4.05678 13.6104 4.05678 15.2247C4.05678 16.8389 4.04213 18.4444 4.13295 20.0587C4.22377 21.9337 4.65151 23.5977 6.0226 24.9688C7.39662 26.3428 9.05776 26.7677 10.9328 26.8585C12.5499 26.9493 14.1525 26.9346 15.7667 26.9346C17.3839 26.9346 18.9865 26.9493 20.6007 26.8585C22.4757 26.7677 24.1398 26.3399 25.5109 24.9688C26.8849 23.5948 27.3097 21.9337 27.4005 20.0587C27.4943 18.4444 27.4767 16.8419 27.4767 15.2247V15.2247ZM24.8986 22.1329C24.6847 22.6661 24.4269 23.0645 24.0138 23.4747C23.6007 23.8878 23.2052 24.1456 22.672 24.3595C21.131 24.9718 17.4718 24.8341 15.7638 24.8341C14.0558 24.8341 10.3937 24.9718 8.85268 24.3624C8.31948 24.1485 7.92104 23.8907 7.51088 23.4776C7.0978 23.0645 6.83998 22.669 6.62612 22.1358C6.01674 20.5919 6.15444 16.9327 6.15444 15.2247C6.15444 13.5167 6.01674 9.85457 6.62612 8.31355C6.83998 7.78035 7.0978 7.38191 7.51088 6.97176C7.92397 6.5616 8.31948 6.30086 8.85268 6.08699C10.3937 5.47762 14.0558 5.61531 15.7638 5.61531C17.4718 5.61531 21.1339 5.47762 22.6749 6.08699C23.2081 6.30086 23.6066 6.55867 24.0167 6.97176C24.4298 7.38484 24.6876 7.78035 24.9015 8.31355C25.5109 9.85457 25.3732 13.5167 25.3732 15.2247C25.3732 16.9327 25.5109 20.5919 24.8986 22.1329Z" fill="black"/>
</svg>
