<svg width="124" height="65" viewBox="0 0 124 65" fill="none" xmlns="http://www.w3.org/2000/svg">
<path d="M0.940389 57.4018C0.940389 56.8485 1.05372 56.3585 1.28039 55.9318C1.51372 55.5051 1.82706 55.1751 2.22039 54.9418C2.62039 54.7018 3.06039 54.5818 3.54039 54.5818C3.97372 54.5818 4.35039 54.6685 4.67039 54.8418C4.99706 55.0085 5.25706 55.2185 5.45039 55.4718V54.6718H6.60039V60.1818H5.45039V59.3618C5.25706 59.6218 4.99372 59.8385 4.66039 60.0118C4.32706 60.1851 3.94706 60.2718 3.52039 60.2718C3.04706 60.2718 2.61372 60.1518 2.22039 59.9118C1.82706 59.6651 1.51372 59.3251 1.28039 58.8918C1.05372 58.4518 0.940389 57.9551 0.940389 57.4018ZM5.45039 57.4218C5.45039 57.0418 5.37039 56.7118 5.21039 56.4318C5.05706 56.1518 4.85372 55.9385 4.60039 55.7918C4.34706 55.6451 4.07372 55.5718 3.78039 55.5718C3.48706 55.5718 3.21372 55.6451 2.96039 55.7918C2.70706 55.9318 2.50039 56.1418 2.34039 56.4218C2.18706 56.6951 2.11039 57.0218 2.11039 57.4018C2.11039 57.7818 2.18706 58.1151 2.34039 58.4018C2.50039 58.6885 2.70706 58.9085 2.96039 59.0618C3.22039 59.2085 3.49372 59.2818 3.78039 59.2818C4.07372 59.2818 4.34706 59.2085 4.60039 59.0618C4.85372 58.9151 5.05706 58.7018 5.21039 58.4218C5.37039 58.1351 5.45039 57.8018 5.45039 57.4218ZM14.9277 54.5818C15.3611 54.5818 15.7477 54.6718 16.0877 54.8518C16.4344 55.0318 16.7044 55.2985 16.8977 55.6518C17.0911 56.0051 17.1877 56.4318 17.1877 56.9318V60.1818H16.0577V57.1018C16.0577 56.6085 15.9344 56.2318 15.6877 55.9718C15.4411 55.7051 15.1044 55.5718 14.6777 55.5718C14.2511 55.5718 13.9111 55.7051 13.6577 55.9718C13.4111 56.2318 13.2877 56.6085 13.2877 57.1018V60.1818H12.1477V54.6718H13.2877V55.3018C13.4744 55.0751 13.7111 54.8985 13.9977 54.7718C14.2911 54.6451 14.6011 54.5818 14.9277 54.5818ZM27.7419 57.2918C27.7419 57.4985 27.7285 57.6851 27.7019 57.8518H23.4919C23.5252 58.2918 23.6885 58.6451 23.9819 58.9118C24.2752 59.1785 24.6352 59.3118 25.0619 59.3118C25.6752 59.3118 26.1085 59.0551 26.3619 58.5418H27.5919C27.4252 59.0485 27.1219 59.4651 26.6819 59.7918C26.2485 60.1118 25.7085 60.2718 25.0619 60.2718C24.5352 60.2718 24.0619 60.1551 23.6419 59.9218C23.2285 59.6818 22.9019 59.3485 22.6619 58.9218C22.4285 58.4885 22.3119 57.9885 22.3119 57.4218C22.3119 56.8551 22.4252 56.3585 22.6519 55.9318C22.8852 55.4985 23.2085 55.1651 23.6219 54.9318C24.0419 54.6985 24.5219 54.5818 25.0619 54.5818C25.5819 54.5818 26.0452 54.6951 26.4519 54.9218C26.8585 55.1485 27.1752 55.4685 27.4019 55.8818C27.6285 56.2885 27.7419 56.7585 27.7419 57.2918ZM26.5519 56.9318C26.5452 56.5118 26.3952 56.1751 26.1019 55.9218C25.8085 55.6685 25.4452 55.5418 25.0119 55.5418C24.6185 55.5418 24.2819 55.6685 24.0019 55.9218C23.7219 56.1685 23.5552 56.5051 23.5019 56.9318H26.5519ZM40.3138 54.6718L38.6038 60.1818H37.4038L36.2937 56.1118L35.1837 60.1818H33.9837L32.2637 54.6718H33.4237L34.5737 59.1018L35.7437 54.6718H36.9337L38.0538 59.0818L39.1937 54.6718H40.3138ZM51.4834 57.4218C51.4834 56.8551 51.5967 56.3585 51.8234 55.9318C52.0567 55.4985 52.3767 55.1651 52.7834 54.9318C53.19 54.6985 53.6567 54.5818 54.1834 54.5818C54.85 54.5818 55.4 54.7418 55.8334 55.0618C56.2734 55.3751 56.57 55.8251 56.7234 56.4118H55.4934C55.3934 56.1385 55.2334 55.9251 55.0134 55.7718C54.7934 55.6185 54.5167 55.5418 54.1834 55.5418C53.7167 55.5418 53.3434 55.7085 53.0634 56.0418C52.79 56.3685 52.6534 56.8285 52.6534 57.4218C52.6534 58.0151 52.79 58.4785 53.0634 58.8118C53.3434 59.1451 53.7167 59.3118 54.1834 59.3118C54.8434 59.3118 55.28 59.0218 55.4934 58.4418H56.7234C56.5634 59.0018 56.2634 59.4485 55.8234 59.7818C55.3834 60.1085 54.8367 60.2718 54.1834 60.2718C53.6567 60.2718 53.19 60.1551 52.7834 59.9218C52.3767 59.6818 52.0567 59.3485 51.8234 58.9218C51.5967 58.4885 51.4834 57.9885 51.4834 57.4218ZM64.2995 60.2718C63.7795 60.2718 63.3095 60.1551 62.8895 59.9218C62.4695 59.6818 62.1395 59.3485 61.8995 58.9218C61.6595 58.4885 61.5395 57.9885 61.5395 57.4218C61.5395 56.8618 61.6628 56.3651 61.9095 55.9318C62.1561 55.4985 62.4928 55.1651 62.9195 54.9318C63.3461 54.6985 63.8228 54.5818 64.3495 54.5818C64.8761 54.5818 65.3528 54.6985 65.7795 54.9318C66.2061 55.1651 66.5428 55.4985 66.7895 55.9318C67.0361 56.3651 67.1595 56.8618 67.1595 57.4218C67.1595 57.9818 67.0328 58.4785 66.7795 58.9118C66.5261 59.3451 66.1795 59.6818 65.7395 59.9218C65.3061 60.1551 64.8261 60.2718 64.2995 60.2718ZM64.2995 59.2818C64.5928 59.2818 64.8661 59.2118 65.1195 59.0718C65.3795 58.9318 65.5895 58.7218 65.7495 58.4418C65.9095 58.1618 65.9895 57.8218 65.9895 57.4218C65.9895 57.0218 65.9128 56.6851 65.7595 56.4118C65.6061 56.1318 65.4028 55.9218 65.1495 55.7818C64.8961 55.6418 64.6228 55.5718 64.3295 55.5718C64.0361 55.5718 63.7628 55.6418 63.5095 55.7818C63.2628 55.9218 63.0661 56.1318 62.9195 56.4118C62.7728 56.6851 62.6995 57.0218 62.6995 57.4218C62.6995 58.0151 62.8495 58.4751 63.1495 58.8018C63.4561 59.1218 63.8395 59.2818 64.2995 59.2818ZM75.1164 54.5818C75.5497 54.5818 75.9364 54.6718 76.2764 54.8518C76.6231 55.0318 76.8931 55.2985 77.0864 55.6518C77.2797 56.0051 77.3764 56.4318 77.3764 56.9318V60.1818H76.2464V57.1018C76.2464 56.6085 76.1231 56.2318 75.8764 55.9718C75.6297 55.7051 75.2931 55.5718 74.8664 55.5718C74.4397 55.5718 74.0997 55.7051 73.8464 55.9718C73.5997 56.2318 73.4764 56.6085 73.4764 57.1018V60.1818H72.3364V54.6718H73.4764V55.3018C73.6631 55.0751 73.8997 54.8985 74.1864 54.7718C74.4797 54.6451 74.7897 54.5818 75.1164 54.5818ZM82.5005 57.4218C82.5005 56.8551 82.6139 56.3585 82.8405 55.9318C83.0739 55.4985 83.3939 55.1651 83.8005 54.9318C84.2072 54.6985 84.6739 54.5818 85.2005 54.5818C85.8672 54.5818 86.4172 54.7418 86.8505 55.0618C87.2905 55.3751 87.5872 55.8251 87.7405 56.4118H86.5105C86.4105 56.1385 86.2505 55.9251 86.0305 55.7718C85.8105 55.6185 85.5339 55.5418 85.2005 55.5418C84.7339 55.5418 84.3605 55.7085 84.0805 56.0418C83.8072 56.3685 83.6705 56.8285 83.6705 57.4218C83.6705 58.0151 83.8072 58.4785 84.0805 58.8118C84.3605 59.1451 84.7339 59.3118 85.2005 59.3118C85.8605 59.3118 86.2972 59.0218 86.5105 58.4418H87.7405C87.5805 59.0018 87.2805 59.4485 86.8405 59.7818C86.4005 60.1085 85.8539 60.2718 85.2005 60.2718C84.6739 60.2718 84.2072 60.1551 83.8005 59.9218C83.3939 59.6818 83.0739 59.3485 82.8405 58.9218C82.6139 58.4885 82.5005 57.9885 82.5005 57.4218ZM97.9766 57.2918C97.9766 57.4985 97.9633 57.6851 97.9366 57.8518H93.7266C93.76 58.2918 93.9233 58.6451 94.2166 58.9118C94.51 59.1785 94.87 59.3118 95.2966 59.3118C95.91 59.3118 96.3433 59.0551 96.5966 58.5418H97.8266C97.66 59.0485 97.3566 59.4651 96.9166 59.7918C96.4833 60.1118 95.9433 60.2718 95.2966 60.2718C94.77 60.2718 94.2966 60.1551 93.8766 59.9218C93.4633 59.6818 93.1366 59.3485 92.8966 58.9218C92.6633 58.4885 92.5466 57.9885 92.5466 57.4218C92.5466 56.8551 92.66 56.3585 92.8866 55.9318C93.12 55.4985 93.4433 55.1651 93.8566 54.9318C94.2766 54.6985 94.7566 54.5818 95.2966 54.5818C95.8166 54.5818 96.28 54.6951 96.6866 54.9218C97.0933 55.1485 97.41 55.4685 97.6366 55.8818C97.8633 56.2885 97.9766 56.7585 97.9766 57.2918ZM96.7866 56.9318C96.78 56.5118 96.63 56.1751 96.3366 55.9218C96.0433 55.6685 95.68 55.5418 95.2466 55.5418C94.8533 55.5418 94.5166 55.6685 94.2366 55.9218C93.9566 56.1685 93.79 56.5051 93.7366 56.9318H96.7866ZM104.289 55.4818C104.482 55.2285 104.745 55.0151 105.079 54.8418C105.412 54.6685 105.789 54.5818 106.209 54.5818C106.689 54.5818 107.125 54.7018 107.519 54.9418C107.919 55.1751 108.232 55.5051 108.459 55.9318C108.685 56.3585 108.799 56.8485 108.799 57.4018C108.799 57.9551 108.685 58.4518 108.459 58.8918C108.232 59.3251 107.919 59.6651 107.519 59.9118C107.125 60.1518 106.689 60.2718 106.209 60.2718C105.789 60.2718 105.415 60.1885 105.089 60.0218C104.762 59.8485 104.495 59.6351 104.289 59.3818V62.8018H103.149V54.6718H104.289V55.4818ZM107.639 57.4018C107.639 57.0218 107.559 56.6951 107.399 56.4218C107.245 56.1418 107.039 55.9318 106.779 55.7918C106.525 55.6451 106.252 55.5718 105.959 55.5718C105.672 55.5718 105.399 55.6451 105.139 55.7918C104.885 55.9385 104.679 56.1518 104.519 56.4318C104.365 56.7118 104.289 57.0418 104.289 57.4218C104.289 57.8018 104.365 58.1351 104.519 58.4218C104.679 58.7018 104.885 58.9151 105.139 59.0618C105.399 59.2085 105.672 59.2818 105.959 59.2818C106.252 59.2818 106.525 59.2085 106.779 59.0618C107.039 58.9085 107.245 58.6885 107.399 58.4018C107.559 58.1151 107.639 57.7818 107.639 57.4018ZM115.306 55.6018V58.6518C115.306 58.8585 115.353 59.0085 115.446 59.1018C115.546 59.1885 115.713 59.2318 115.946 59.2318H116.646V60.1818H115.746C115.233 60.1818 114.839 60.0618 114.566 59.8218C114.293 59.5818 114.156 59.1918 114.156 58.6518V55.6018H113.506V54.6718H114.156V53.3018H115.306V54.6718H116.646V55.6018H115.306ZM122.207 60.2518C122 60.2518 121.827 60.1818 121.687 60.0418C121.547 59.9018 121.477 59.7285 121.477 59.5218C121.477 59.3151 121.547 59.1418 121.687 59.0018C121.827 58.8618 122 58.7918 122.207 58.7918C122.407 58.7918 122.577 58.8618 122.717 59.0018C122.857 59.1418 122.927 59.3151 122.927 59.5218C122.927 59.7285 122.857 59.9018 122.717 60.0418C122.577 60.1818 122.407 60.2518 122.207 60.2518Z" fill="black"/>
<path d="M2.8043 15.6236C2.8043 14.237 3.09097 13.0036 3.6643 11.9236C4.25097 10.8303 5.05097 9.97697 6.0643 9.36363C7.09097 8.7503 8.23764 8.44363 9.5043 8.44363C11.1043 8.44363 12.451 8.81697 13.5443 9.56363C14.6376 10.3103 15.4376 11.357 15.9443 12.7036H14.9043C14.5043 11.637 13.8376 10.797 12.9043 10.1836C11.9843 9.55697 10.851 9.24363 9.5043 9.24363C8.4243 9.24363 7.4443 9.50363 6.5643 10.0236C5.6843 10.5303 4.99097 11.2703 4.4843 12.2436C3.97764 13.2036 3.7243 14.3303 3.7243 15.6236C3.7243 16.9036 3.97764 18.0236 4.4843 18.9836C4.99097 19.9303 5.6843 20.6636 6.5643 21.1836C7.4443 21.7036 8.4243 21.9636 9.5043 21.9636C10.851 21.9636 11.9843 21.657 12.9043 21.0436C13.8376 20.417 14.5043 19.5703 14.9043 18.5036H15.9443C15.4376 19.8503 14.6376 20.897 13.5443 21.6436C12.451 22.3903 11.1043 22.7636 9.5043 22.7636C8.23764 22.7636 7.09097 22.4636 6.0643 21.8636C5.05097 21.2503 4.25097 20.4036 3.6643 19.3236C3.09097 18.2303 2.8043 16.997 2.8043 15.6236ZM20.8949 17.1836C20.8949 16.0636 21.1149 15.0836 21.5549 14.2436C22.0083 13.4036 22.6283 12.757 23.4149 12.3036C24.2149 11.8503 25.1216 11.6236 26.1349 11.6236C27.2816 11.6236 28.2549 11.9036 29.0549 12.4636C29.8549 13.0236 30.4149 13.737 30.7349 14.6036V11.7636H31.6349V22.6236H30.7349V19.7636C30.4149 20.6436 29.8483 21.3703 29.0349 21.9436C28.2349 22.5036 27.2683 22.7836 26.1349 22.7836C25.1216 22.7836 24.2149 22.557 23.4149 22.1036C22.6283 21.637 22.0083 20.9836 21.5549 20.1436C21.1149 19.2903 20.8949 18.3036 20.8949 17.1836ZM30.7349 17.1836C30.7349 16.237 30.5349 15.4036 30.1349 14.6836C29.7483 13.9503 29.2149 13.3903 28.5349 13.0036C27.8549 12.6036 27.0949 12.4036 26.2549 12.4036C25.3749 12.4036 24.6016 12.597 23.9349 12.9836C23.2683 13.357 22.7483 13.9036 22.3749 14.6236C22.0016 15.3436 21.8149 16.197 21.8149 17.1836C21.8149 18.1703 22.0016 19.0236 22.3749 19.7436C22.7483 20.4636 23.2683 21.017 23.9349 21.4036C24.6149 21.7903 25.3883 21.9836 26.2549 21.9836C27.0949 21.9836 27.8549 21.7903 28.5349 21.4036C29.2283 21.0036 29.7683 20.4436 30.1549 19.7236C30.5416 18.9903 30.7349 18.1436 30.7349 17.1836ZM41.232 22.7836C40.0186 22.7836 39.0253 22.517 38.252 21.9836C37.492 21.4503 37.0653 20.6903 36.972 19.7036H37.892C37.9586 20.4103 38.2786 20.9703 38.852 21.3836C39.4386 21.797 40.232 22.0036 41.232 22.0036C42.0586 22.0036 42.712 21.797 43.192 21.3836C43.6853 20.957 43.932 20.437 43.932 19.8236C43.932 19.397 43.7986 19.0503 43.532 18.7836C43.2786 18.5036 42.9586 18.2903 42.572 18.1436C42.1853 17.997 41.6586 17.837 40.992 17.6636C40.192 17.4503 39.5453 17.2436 39.052 17.0436C38.5586 16.8303 38.1386 16.517 37.792 16.1036C37.4453 15.6903 37.272 15.137 37.272 14.4436C37.272 13.937 37.4253 13.4703 37.732 13.0436C38.0386 12.6036 38.4653 12.257 39.012 12.0036C39.5586 11.7503 40.1786 11.6236 40.872 11.6236C42.0053 11.6236 42.9186 11.9103 43.612 12.4836C44.3186 13.0436 44.6986 13.8236 44.752 14.8236H43.852C43.812 14.1036 43.532 13.517 43.012 13.0636C42.492 12.6103 41.772 12.3836 40.852 12.3836C40.0786 12.3836 39.4386 12.5836 38.932 12.9836C38.4253 13.3836 38.172 13.8703 38.172 14.4436C38.172 14.9503 38.312 15.3636 38.592 15.6836C38.8853 15.9903 39.2386 16.2303 39.652 16.4036C40.0786 16.5636 40.6386 16.737 41.332 16.9236C42.092 17.1236 42.6986 17.3236 43.152 17.5236C43.6186 17.7103 44.012 17.9903 44.332 18.3636C44.652 18.7236 44.812 19.2103 44.812 19.8236C44.812 20.3836 44.6586 20.8903 44.352 21.3436C44.0453 21.797 43.6186 22.1503 43.072 22.4036C42.5253 22.657 41.912 22.7836 41.232 22.7836ZM49.6934 17.1836C49.6934 16.0636 49.9134 15.0836 50.3534 14.2436C50.8067 13.4036 51.4267 12.757 52.2134 12.3036C53.0134 11.8503 53.92 11.6236 54.9334 11.6236C56.08 11.6236 57.0534 11.9036 57.8534 12.4636C58.6534 13.0236 59.2134 13.737 59.5334 14.6036V11.7636H60.4334V22.6236H59.5334V19.7636C59.2134 20.6436 58.6467 21.3703 57.8334 21.9436C57.0334 22.5036 56.0667 22.7836 54.9334 22.7836C53.92 22.7836 53.0134 22.557 52.2134 22.1036C51.4267 21.637 50.8067 20.9836 50.3534 20.1436C49.9134 19.2903 49.6934 18.3036 49.6934 17.1836ZM59.5334 17.1836C59.5334 16.237 59.3334 15.4036 58.9334 14.6836C58.5467 13.9503 58.0134 13.3903 57.3334 13.0036C56.6534 12.6036 55.8934 12.4036 55.0534 12.4036C54.1734 12.4036 53.4 12.597 52.7334 12.9836C52.0667 13.357 51.5467 13.9036 51.1734 14.6236C50.8 15.3436 50.6134 16.197 50.6134 17.1836C50.6134 18.1703 50.8 19.0236 51.1734 19.7436C51.5467 20.4636 52.0667 21.017 52.7334 21.4036C53.4134 21.7903 54.1867 21.9836 55.0534 21.9836C55.8934 21.9836 56.6534 21.7903 57.3334 21.4036C58.0267 21.0036 58.5667 20.4436 58.9534 19.7236C59.34 18.9903 59.5334 18.1436 59.5334 17.1836Z" fill="black"/>
<path d="M9.04039 38.6376C9.93506 38.799 10.6831 39.239 11.2844 39.9576C11.9004 40.6763 12.2084 41.5196 12.2084 42.4876C12.2084 43.2796 12.0177 43.991 11.6364 44.6216C11.2697 45.2376 10.7124 45.729 9.96439 46.0956C9.23106 46.4476 8.33639 46.6236 7.28039 46.6236H2.37439V31.1796H7.19239C8.73239 31.1796 9.89106 31.539 10.6684 32.2576C11.4604 32.9616 11.8564 33.8783 11.8564 35.0076C11.8564 35.9903 11.5924 36.7896 11.0644 37.4056C10.5364 38.007 9.86172 38.4176 9.04039 38.6376ZM3.36439 38.1976H7.23639C8.39506 38.1976 9.28239 37.9263 9.89839 37.3836C10.5291 36.8263 10.8444 36.0636 10.8444 35.0956C10.8444 34.157 10.5364 33.4163 9.92039 32.8736C9.30439 32.331 8.37306 32.0596 7.12639 32.0596H3.36439V38.1976ZM7.21439 45.7656C8.46106 45.7656 9.43639 45.4723 10.1404 44.8856C10.8591 44.2843 11.2184 43.463 11.2184 42.4216C11.2184 41.395 10.8517 40.581 10.1184 39.9796C9.39972 39.3636 8.40972 39.0556 7.14839 39.0556H3.36439V45.7656H7.21439ZM19.0746 30.3436V46.6236H18.0846V30.3436H19.0746ZM25.0578 40.6396C25.0578 39.4076 25.2998 38.3296 25.7838 37.4056C26.2824 36.4816 26.9644 35.7703 27.8298 35.2716C28.7098 34.773 29.7071 34.5236 30.8218 34.5236C32.0831 34.5236 33.1538 34.8316 34.0338 35.4476C34.9138 36.0636 35.5298 36.8483 35.8818 37.8016V34.6776H36.8718V46.6236H35.8818V43.4776C35.5298 44.4456 34.9064 45.245 34.0118 45.8756C33.1318 46.4916 32.0684 46.7996 30.8218 46.7996C29.7071 46.7996 28.7098 46.5503 27.8298 46.0516C26.9644 45.5383 26.2824 44.8196 25.7838 43.8956C25.2998 42.957 25.0578 41.8716 25.0578 40.6396ZM35.8818 40.6396C35.8818 39.5983 35.6618 38.6816 35.2218 37.8896C34.7964 37.083 34.2098 36.467 33.4618 36.0416C32.7138 35.6016 31.8778 35.3816 30.9538 35.3816C29.9858 35.3816 29.1351 35.5943 28.4018 36.0196C27.6684 36.4303 27.0964 37.0316 26.6858 37.8236C26.2751 38.6156 26.0698 39.5543 26.0698 40.6396C26.0698 41.725 26.2751 42.6636 26.6858 43.4556C27.0964 44.2476 27.6684 44.8563 28.4018 45.2816C29.1498 45.707 30.0004 45.9196 30.9538 45.9196C31.8778 45.9196 32.7138 45.707 33.4618 45.2816C34.2244 44.8416 34.8184 44.2256 35.2438 43.4336C35.6691 42.627 35.8818 41.6956 35.8818 40.6396ZM48.8365 34.4356C50.2592 34.4356 51.4178 34.8756 52.3125 35.7556C53.2072 36.621 53.6545 37.9116 53.6545 39.6276V46.6236H52.6865V39.6936C52.6865 38.271 52.3272 37.1856 51.6085 36.4376C50.8898 35.675 49.9145 35.2936 48.6825 35.2936C47.3918 35.2936 46.3578 35.7043 45.5805 36.5256C44.8178 37.347 44.4365 38.5643 44.4365 40.1776V46.6236H43.4465V34.6776H44.4365V37.2076C44.7738 36.313 45.3312 35.631 46.1085 35.1616C46.9005 34.6776 47.8098 34.4356 48.8365 34.4356ZM59.5075 40.6396C59.5075 39.393 59.7495 38.3076 60.2335 37.3836C60.7322 36.4596 61.4142 35.7556 62.2795 35.2716C63.1595 34.773 64.1642 34.5236 65.2935 34.5236C66.7895 34.5236 68.0142 34.8976 68.9675 35.6456C69.9355 36.3936 70.5369 37.3983 70.7715 38.6596H69.7375C69.5469 37.633 69.0482 36.8263 68.2415 36.2396C67.4495 35.653 66.4669 35.3596 65.2935 35.3596C64.4135 35.3596 63.6142 35.5576 62.8955 35.9536C62.1769 36.335 61.5975 36.929 61.1575 37.7356C60.7322 38.5276 60.5195 39.4956 60.5195 40.6396C60.5195 41.7983 60.7322 42.7736 61.1575 43.5656C61.5975 44.3576 62.1769 44.9516 62.8955 45.3476C63.6142 45.7436 64.4135 45.9416 65.2935 45.9416C66.4669 45.9416 67.4495 45.6483 68.2415 45.0616C69.0482 44.475 69.5469 43.6683 69.7375 42.6416H70.7715C70.5369 43.8883 69.9355 44.893 68.9675 45.6556C67.9995 46.4183 66.7749 46.7996 65.2935 46.7996C64.1642 46.7996 63.1595 46.5503 62.2795 46.0516C61.4142 45.553 60.7322 44.8416 60.2335 43.9176C59.7495 42.979 59.5075 41.8863 59.5075 40.6396ZM76.1416 40.6396C76.1416 39.4076 76.3836 38.3296 76.8676 37.4056C77.3663 36.4816 78.0483 35.7703 78.9136 35.2716C79.7936 34.773 80.7909 34.5236 81.9056 34.5236C83.1669 34.5236 84.2376 34.8316 85.1176 35.4476C85.9976 36.0636 86.6136 36.8483 86.9656 37.8016V34.6776H87.9556V46.6236H86.9656V43.4776C86.6136 44.4456 85.9903 45.245 85.0956 45.8756C84.2156 46.4916 83.1523 46.7996 81.9056 46.7996C80.7909 46.7996 79.7936 46.5503 78.9136 46.0516C78.0483 45.5383 77.3663 44.8196 76.8676 43.8956C76.3836 42.957 76.1416 41.8716 76.1416 40.6396ZM86.9656 40.6396C86.9656 39.5983 86.7456 38.6816 86.3056 37.8896C85.8803 37.083 85.2936 36.467 84.5456 36.0416C83.7976 35.6016 82.9616 35.3816 82.0376 35.3816C81.0696 35.3816 80.2189 35.5943 79.4856 36.0196C78.7523 36.4303 78.1803 37.0316 77.7696 37.8236C77.3589 38.6156 77.1536 39.5543 77.1536 40.6396C77.1536 41.725 77.3589 42.6636 77.7696 43.4556C78.1803 44.2476 78.7523 44.8563 79.4856 45.2816C80.2336 45.707 81.0843 45.9196 82.0376 45.9196C82.9616 45.9196 83.7976 45.707 84.5456 45.2816C85.3083 44.8416 85.9023 44.2256 86.3276 43.4336C86.7529 42.627 86.9656 41.6956 86.9656 40.6396ZM99.9423 34.4356C101.35 34.4356 102.502 34.8756 103.396 35.7556C104.291 36.621 104.738 37.9116 104.738 39.6276V46.6236H103.77V39.6936C103.77 38.271 103.411 37.1856 102.692 36.4376C101.974 35.675 100.998 35.2936 99.7663 35.2936C98.4757 35.2936 97.4417 35.7043 96.6643 36.5256C95.9017 37.347 95.5203 38.5643 95.5203 40.1776V46.6236H94.5303V30.3436H95.5203V37.2076C95.8577 36.313 96.4223 35.631 97.2143 35.1616C98.0063 34.6776 98.9157 34.4356 99.9423 34.4356Z" fill="black"/>
</svg>
