<svg width="31" height="31" viewBox="0 0 31 31" fill="none" xmlns="http://www.w3.org/2000/svg">
<path d="M26.5762 3.50595H5.01367C4.49512 3.50595 4.07617 3.9249 4.07617 4.44345V26.006C4.07617 26.5245 4.49512 26.9435 5.01367 26.9435H26.5762C27.0947 26.9435 27.5137 26.5245 27.5137 26.006V4.44345C27.5137 3.9249 27.0947 3.50595 26.5762 3.50595ZM25.6387 25.0685H20.2451V17.8673H23.292L23.749 14.3311H20.2451V12.0724C20.2451 11.047 20.5293 10.3497 21.9971 10.3497H23.8691V7.18564C23.5439 7.14169 22.4336 7.04501 21.1387 7.04501C18.4375 7.04501 16.5889 8.69443 16.5889 11.7208V14.3282H13.5361V17.8643H16.5918V25.0685H5.95117V5.38095H25.6387V25.0685Z" fill="black"/>
</svg>
