<svg width="31" height="31" viewBox="0 0 31 31" fill="none" xmlns="http://www.w3.org/2000/svg">
<path d="M28.1743 15.1427C28.1743 15.0782 28.1743 15.005 28.1714 14.92C28.1685 14.6827 28.1626 14.4161 28.1567 14.1319C28.1333 13.3145 28.0923 12.5001 28.0278 11.7325C27.9399 10.6749 27.811 9.79306 27.6353 9.13095C27.4498 8.43998 27.0861 7.8098 26.5808 7.3034C26.0754 6.797 25.446 6.43211 24.7554 6.24521C23.9263 6.02255 22.3032 5.88486 20.0181 5.7999C18.9312 5.75888 17.7681 5.73251 16.605 5.71786C16.1978 5.71201 15.8198 5.70908 15.48 5.70615H14.6187C14.2788 5.70908 13.9009 5.71201 13.4937 5.71786C12.3306 5.73251 11.1675 5.75888 10.0806 5.7999C7.79541 5.88779 6.16943 6.02548 5.34326 6.24521C4.65244 6.43165 4.02276 6.79639 3.51732 7.30286C3.01187 7.80933 2.64842 8.43976 2.46338 9.13095C2.28467 9.79306 2.15869 10.6749 2.0708 11.7325C2.00635 12.5001 1.96533 13.3145 1.94189 14.1319C1.93311 14.4161 1.93018 14.6827 1.92725 14.92C1.92725 15.005 1.92432 15.0782 1.92432 15.1427V15.3067C1.92432 15.3712 1.92432 15.4444 1.92725 15.5294C1.93018 15.7667 1.93604 16.0333 1.94189 16.3175C1.96533 17.1349 2.00635 17.9493 2.0708 18.7169C2.15869 19.7745 2.2876 20.6563 2.46338 21.3185C2.83838 22.7218 3.93994 23.8292 5.34326 24.2042C6.16943 24.4269 7.79541 24.5645 10.0806 24.6495C11.1675 24.6905 12.3306 24.7169 13.4937 24.7315C13.9009 24.7374 14.2788 24.7403 14.6187 24.7433H15.48C15.8198 24.7403 16.1978 24.7374 16.605 24.7315C17.7681 24.7169 18.9312 24.6905 20.0181 24.6495C22.3032 24.5616 23.9292 24.4239 24.7554 24.2042C26.1587 23.8292 27.2603 22.7247 27.6353 21.3185C27.814 20.6563 27.9399 19.7745 28.0278 18.7169C28.0923 17.9493 28.1333 17.1349 28.1567 16.3175C28.1655 16.0333 28.1685 15.7667 28.1714 15.5294C28.1714 15.4444 28.1743 15.3712 28.1743 15.3067V15.1427V15.1427ZM26.0649 15.295C26.0649 15.3565 26.0649 15.4239 26.062 15.503C26.0591 15.7315 26.0532 15.9835 26.0474 16.256C26.0269 17.0352 25.9858 17.8145 25.9243 18.5382C25.8452 19.4815 25.7339 20.255 25.5962 20.7735C25.4146 21.4503 24.8813 21.9864 24.2075 22.1651C23.5923 22.3292 22.0425 22.461 19.936 22.5401C18.8696 22.5811 17.7212 22.6075 16.5757 22.6222C16.1743 22.628 15.8022 22.6309 15.4683 22.6309H14.6304L13.5229 22.6222C12.3774 22.6075 11.2319 22.5811 10.1626 22.5401C8.05615 22.4581 6.50342 22.3292 5.89111 22.1651C5.21728 21.9835 4.68408 21.4503 4.50244 20.7735C4.36475 20.255 4.25342 19.4815 4.17432 18.5382C4.11279 17.8145 4.07471 17.0352 4.05127 16.256C4.04248 15.9835 4.03955 15.7286 4.03662 15.503C4.03662 15.4239 4.03369 15.3536 4.03369 15.295V15.1544C4.03369 15.0929 4.03369 15.0255 4.03662 14.9464C4.03955 14.7179 4.04541 14.4659 4.05127 14.1935C4.07178 13.4142 4.11279 12.6349 4.17432 11.9112C4.25342 10.9679 4.36475 10.1944 4.50244 9.67587C4.68408 8.99911 5.21728 8.46298 5.89111 8.28427C6.50635 8.12021 8.05615 7.98837 10.1626 7.90927C11.229 7.86826 12.3774 7.84189 13.5229 7.82724C13.9243 7.82138 14.2964 7.81845 14.6304 7.81845H15.4683L16.5757 7.82724C17.7212 7.84189 18.8667 7.86826 19.936 7.90927C22.0425 7.9913 23.5952 8.12021 24.2075 8.28427C24.8813 8.46591 25.4146 8.99911 25.5962 9.67587C25.7339 10.1944 25.8452 10.9679 25.9243 11.9112C25.9858 12.6349 26.0239 13.4142 26.0474 14.1935C26.0562 14.4659 26.0591 14.7208 26.062 14.9464C26.062 15.0255 26.0649 15.0958 26.0649 15.1544V15.295ZM12.4419 19.1505L19.2388 15.1954L12.4419 11.2989V19.1505Z" fill="black"/>
</svg>
